<svg width="673" height="606" fill="none" xmlns="http://www.w3.org/2000/svg"><g clip-path="url(#clip0)"><path d="M506.445 537.708l-1.003-1.691 29.345-17.201a11.515 11.515 0 0111.734.059l24.254 14.488-1.002 1.691-24.255-14.488a9.532 9.532 0 00-9.729-.039l-29.344 17.181zM593.751 532.951l-1.002-1.691 76.123-44.997a2.362 2.362 0 001.16-2.045c0-.845-.433-1.612-1.14-2.044l-25.276-15.53 1.022-1.671 25.256 15.51c1.317.786 2.103 2.182 2.103 3.735s-.806 2.929-2.123 3.716l-76.123 45.017zM510.848 470.988l-.983-1.71 74.197-42.717a2.434 2.434 0 001.219-2.123c0-.885-.452-1.691-1.239-2.123l-39.27-22.548a17.407 17.407 0 01-8.727-15.058V255.496c0-5.347 2.634-10.34 7.076-13.348l5.897-4.01 1.1 1.632-5.896 4.01a14.193 14.193 0 00-6.211 11.736v129.213a15.432 15.432 0 007.724 13.347l39.271 22.548c1.395.806 2.221 2.222 2.221 3.834a4.408 4.408 0 01-2.202 3.833l-74.177 42.697z" fill="#D4ECFF"/><path d="M505.934 511.779a1.972 1.972 0 01-1.691-.963 1.965 1.965 0 01.708-2.694l29.345-17.2c3.931-2.32 8.805-2.281 12.736.059l24.254 14.488a1.979 1.979 0 01.688 2.693 1.979 1.979 0 01-2.693.688l-24.254-14.488a8.57 8.57 0 00-8.727-.04l-29.344 17.201a2.128 2.128 0 01-1.022.256z" fill="#FF2C9C"/><path d="M464.325 603.779l-163.292-94.281c-5.681-3.282-4.973-9.003 1.592-12.797 6.545-3.794 16.47-4.187 22.151-.924l163.292 94.28c5.68 3.283 4.972 9.004-1.592 12.798-6.565 3.794-16.471 4.207-22.151.924zM620.501 354.317c-1.218-.707-2.535-1.317-3.891-1.867h.039l-7.488-3.322.57 1.317c-5.681-1.14-11.852-1.199-17.592-.197l.354-1.455-8.825 3.912h.059c-1.14.492-2.26 1.003-3.302 1.612-11.065 6.389-11.065 16.749 0 23.158 11.066 6.389 29.011 6.389 40.096 0 11.046-6.409 11.046-16.769-.02-23.158z" fill="#D4ECFF"/><path d="M609.849 360.352c-5.189 2.988-13.602 2.988-18.79 0-5.189-2.988-5.189-7.843 0-10.851 5.188-2.988 13.601-2.988 18.79 0 5.188 2.988 5.188 7.844 0 10.851z" fill="#5793CE"/><path d="M600.453 356.991a4.521 4.521 0 01-4.52-4.522v-57.087h9.021v57.087c.02 2.497-2.005 4.522-4.501 4.522z" fill="#5793CE"/><path d="M603.637 297.446c-1.808 1.042-4.717 1.042-6.525 0-1.808-1.041-1.808-2.732 0-3.754 1.808-1.042 4.717-1.042 6.525 0 1.789 1.042 1.789 2.732 0 3.754z" fill="#5793CE"/><path d="M600.454 297.348a3.649 3.649 0 01-3.656-3.656v-53.667h7.311v53.667a3.661 3.661 0 01-3.655 3.656z" fill="#D4ECFF"/><path d="M653.089 268.136v-2.103l2.968-.433 3.321-2.496c.531-.393 1.573-.433 2.182-.079l2.457 1.416 2.437-.354v2.123h-.02c-.019.236-.196.472-.55.648l-7.744 3.441c-.609.275-1.474.236-2.024-.079l-2.575-1.494c-.295-.138-.432-.374-.452-.59z" fill="#396CAA"/><path d="M653.403 265.463l5.975-4.463c.531-.393 1.572-.432 2.182-.078l4.461 2.575c.629.354.551.963-.137 1.258l-7.744 3.44c-.609.275-1.474.236-2.025-.078l-2.574-1.494c-.551-.295-.61-.806-.138-1.16z" fill="#5793CE"/><path d="M643.34 275.606c.845 0 1.71-.196 2.398-.589l9.277-5.367c.511-.295.688-.944.393-1.455a1.063 1.063 0 00-1.454-.393l-9.278 5.367c-.687.393-1.945.393-2.633 0l-15.429-8.925a1.064 1.064 0 00-1.455.393 1.065 1.065 0 00.393 1.455l15.429 8.925c.649.393 1.494.589 2.359.589z" fill="#D4ECFF"/><path d="M554.107 255.968l14.899-8.65-8.334-3.774-7.154 5.052.589 7.372z" fill="url(#paint0_radial)"/><path d="M649.786 243.112a20.926 20.926 0 01-2.515-1.553l-31.743-23.276c-5.739-4.206-11.635-5.288-16.195-2.968-.118.059-.217.138-.334.216l-.04-.019-43.85 25.437 3.951 1.317 15.35 6.959 20.893 14.822 16.491 8.748.747.158c3.852-3.244 8.156-6.016 10.515-10.734 4.088-7.136 15.449-9.2 22.131-14.979a27.16 27.16 0 002.025 1.179c1.376-1.356 1.749-3.283 2.574-5.307z" fill="#5793CE"/><path d="M663.722 232.614c-.688 0-1.297.236-1.808.629l-42.907 24.848 1.573 6.409 1.611-.767c-2.456 3.833-6.23 6.35-9.63 9.239l4.854 1.022 42.022-24.454c.197-.079.393-.158.59-.256a11.3 11.3 0 001.612-1.022l.078-.039h-.02c3.204-2.477 5.012-6.763 5.012-12.129v-.511c-.039-1.652-1.356-2.969-2.987-2.969z" fill="#396CAA"/><path d="M604.955 214.116c2.673.098 5.543 1.022 8.432 2.732-2.87-1.71-5.739-2.634-8.432-2.732z" fill="#EAEAEA"/><path d="M624.511 260.077v-.512a2.944 2.944 0 00-2.948-2.948 2.944 2.944 0 00-2.948 2.948v.512c0 3.951-1.258 6.841-3.44 7.941-2.476 1.258-6.23.335-10.043-2.477l-31.743-23.275c-4.894-3.578-9.886-4.875-14.092-3.754l26.219-15.216-30.386 17.634 3.931 1.317 15.35 6.959 20.893 14.822 16.491 8.748.746.157c3.853-3.244 8.157-6.015 10.516-10.733.413-.708.904-1.357 1.435-1.986 0-.02.019-.079.019-.137z" fill="#5793CE"/><path d="M611.775 275.43c-3.479 0-7.292-1.416-11.046-4.168l-31.743-23.275c-3.813-2.792-7.567-3.716-10.044-2.477-2.181 1.101-3.439 4.01-3.439 7.942a2.944 2.944 0 01-2.948 2.948 2.945 2.945 0 01-2.949-2.948c0-6.252 2.438-11.068 6.663-13.211 4.56-2.319 10.476-1.238 16.196 2.969l31.742 23.275c3.813 2.792 7.568 3.715 10.044 2.477 2.182-1.101 3.44-4.01 3.44-7.942v-.511a2.944 2.944 0 012.948-2.949 2.945 2.945 0 012.948 2.949v.511c0 6.251-2.437 11.068-6.663 13.21-1.572.806-3.302 1.2-5.149 1.2z" fill="#D4ECFF"/><path d="M586.833 327.464s-5.975-3.007-9.651 1.475c-3.675 4.482-8.923 15.097-9.08 22.253-.157 7.155 5.66 6.684 9.139 4.993 3.459-1.691 13.601-16.395 14.211-19.265.609-2.87-.728-6.762-1.691-7.529-1.002-.767-2.928-1.927-2.928-1.927z" fill="#173D7A"/><path d="M588.13 326.029l.275 6.193c.059 1.317-.609 2.575-1.749 3.224-1.042.589-2.555 1.042-4.619.707-4.501-.727-4.914-2.005-5.228-8.197-.314-6.192 11.321-1.927 11.321-1.927z" fill="#5793CE"/><path d="M564.937 315.552s-5.975-3.008-9.65 1.474c-3.676 4.482-8.924 15.097-9.081 22.253-.157 7.155 5.661 6.684 9.14 4.993 3.459-1.691 13.601-16.395 14.21-19.265.609-2.87-.727-6.762-1.69-7.529-1.003-.767-2.929-1.926-2.929-1.926z" fill="#173D7A"/><path d="M566.235 314.117l.275 6.192c.059 1.317-.61 2.575-1.749 3.224-1.042.59-2.556 1.042-4.619.708-4.501-.728-4.914-2.006-5.229-8.198-.314-6.192 11.322-1.926 11.322-1.926z" fill="#5793CE"/><path d="M619.598 200.336c-1.769-28.799-31.193 4.246-31.193 4.246l-20.126 19.736-18.122 19.914a17.864 17.864 0 00-4.501 14.351l7.331 55.848c.354 2.752 2.713 4.797 5.504 4.777.786 0 1.69-.079 2.712-.236 6.545-1.022 6.054-7.234 6.054-7.234l-1.337-52.251 38.072-22.961c0 .02 17.374-7.372 15.606-36.19z" fill="#FDD762"/><path d="M641.493 211.324c-1.769-28.799-31.192 4.247-31.192 4.247l-20.127 19.736-18.121 19.914a17.863 17.863 0 00-4.501 14.35l7.331 55.849c.354 2.752 2.712 4.797 5.503 4.777.786 0 1.691-.079 2.713-.236 6.545-1.022 6.053-7.234 6.053-7.234l-1.336-52.251 38.071-22.961s17.375-7.391 15.606-36.191z" fill="#FDD762"/><path d="M624.079 118.853c22.308 9.239 21.856 22.43 21.856 22.43s-4.363 48.339-2.869 80.618c.629 13.505-71.701 14.527-60.911-21.487 12.717-42.461 7.941-76.824 13.896-82.013 5.956-5.151 22.269-1.927 28.028.452z" fill="#FF2C9C"/><path d="M631.234 130.531c1.167-4.532-2.873-9.489-9.022-11.073-6.15-1.584-12.081.805-13.248 5.337-1.167 4.531 2.873 9.489 9.022 11.073 6.15 1.584 12.081-.806 13.248-5.337z" fill="#FFC2B0"/><path d="M621.818 137.43c-1.336 0-2.712-.177-4.068-.531-3.204-.826-5.975-2.516-7.823-4.797-1.926-2.359-2.634-5.052-1.965-7.588 1.316-5.091 7.842-7.824 14.544-6.094 3.184.826 5.975 2.517 7.823 4.797 1.926 2.359 2.633 5.052 1.965 7.588-.648 2.536-2.555 4.541-5.385 5.681-1.553.629-3.302.944-5.091.944zm-3.4-17.378c-4.147 0-7.607 1.926-8.393 5.032-.471 1.848.079 3.873 1.573 5.701 1.552 1.907 3.931 3.362 6.702 4.069 2.752.708 5.543.59 7.823-.334 2.181-.884 3.636-2.378 4.127-4.226.472-1.848-.079-3.873-1.553-5.701-1.552-1.907-3.931-3.362-6.702-4.069a14.534 14.534 0 00-3.577-.472z" fill="#fff"/><path d="M615.156 117.85s.196.905-.197 7.962c-.118 2.221 7.666 4.305 9.67 2.28 2.005-2.005 1.199-4.108 1.691-11.657.471-7.569-11.164 1.415-11.164 1.415z" fill="#FFC2B0"/><path d="M626.32 116.435s-1.907 7.018-11.361 9.711l.138-6.369 11.223-3.342z" fill="#EA9C92"/><path d="M632.294 98.625c2.379 9.18-3.144 18.557-12.323 20.916-9.179 2.359-18.554-3.145-20.913-12.326-2.378-9.18 3.145-18.557 12.324-20.916 9.179-2.379 18.534 3.145 20.912 12.326z" fill="#FFC2B0"/><path d="M619.617 103.539s-9.454 4.05-15.999 4.089c-6.545.039-5.11-5.426-5.11-5.426l19.419-2.81 1.69 4.147z" fill="#EA9C92"/><path d="M601.672 104.62s8.236-3.499 15.449-2.044a7.6 7.6 0 014.363 2.595c.354.432.806.845 1.317.963 1.278.295 3.381-5.032 5.877-5.15 2.496-.118 4.147 1.651 2.103 4.914s-1.356 6.92-.413 7.451c.944.53 10.909-7.117 2.123-24.514-8.786-17.417-31.114-8.04-34.592-4.502 0 0-3.656 3.185-6.624.354 0-.02-3.342 24.966 10.397 19.933z" fill="#FDD762"/><path d="M633.434 176.608v13.053a5.331 5.331 0 01-1.729 3.932l-26.829 24.474 3.046 4.659 35.438-25.693a7.22 7.22 0 002.929-5.072l2.398-22.783-15.253 7.43z" fill="#FFC2B0"/><path d="M644.048 134.756s8.137 12.247 11.164 44.467c0 0-13.896 4.502-21.797 1.946-7.902-2.556 10.633-46.413 10.633-46.413z" fill="#FF2C9C"/><path d="M631.941 150.247s-3.184 17.063-3.361 25.064a5.099 5.099 0 003.361 4.934v-29.998z" fill="#D3008D"/><path d="M624.983 235.052l-5.936-.787-38.288-22.095c-1.218-.708-3.361-.629-4.795.196l-27.124 15.648-3.577-.472v3.578c-.02.472.236.924.825 1.258l43.378 25.045c1.219.707 3.361.629 4.796-.197l29.541-17.043c.806-.453 1.199-1.062 1.18-1.612v-3.519z" fill="#173D7A"/><path d="M596.227 221.095l-2.712-1.573H563.62l-14.741 8.512-3.577-.472v3.578c-.02.472.236.924.825 1.258l43.378 25.044c.649.374 1.553.531 2.477.472l4.245-36.819z" fill="#396CAA"/><path d="M546.874 227.759l-1.592-.217v3.578c-.019.472.236.924.826 1.258l.766.433v-5.052z" fill="#5793CE"/><path d="M589.918 257.639c1.16.432 2.83.354 4.068-.256v-6.074h-4.068v6.33z" fill="#274F89"/><path d="M589.487 253.865l-43.378-25.045c-1.219-.708-1.081-1.946.334-2.772l29.541-17.043c1.415-.826 3.558-.904 4.796-.197l43.378 25.045c1.219.707 1.081 1.946-.334 2.771l-29.541 17.044c-1.415.806-3.577.904-4.796.197z" fill="#fff"/><path d="M588.758 250.071l-36.066-20.838c-1.022-.59-.885-1.612.295-2.3l15.822-8.905c1.179-.688 2.968-.747 3.99-.157l36.066 20.837c1.022.59.885 1.612-.295 2.3l-15.822 8.905c-1.199.669-2.968.747-3.99.158z" fill="#D4ECFF"/><path d="M577.674 208.179l-.452 2.988a22.303 22.303 0 00.196 7.667l.531 2.634a3.688 3.688 0 002.968 2.909c1.16.217 2.26-.609 2.398-1.788l.707-6.409s1.632 2.143 2.438 2.143c.786 0-.885-6.409-2.674-10.046-1.788-3.597-6.112-.098-6.112-.098z" fill="#FFC2B0"/><path d="M592.375 160.587l-4.658 9.22a18.129 18.129 0 00-1.906 6.998l-2.025 31.512-6.132-.138-2.771-35.384a12.876 12.876 0 01.157-3.264l3.184-17.947 14.151 9.003z" fill="#FFC2B0"/><path d="M588.012 256.263l-3.636-4.757-38.248-22.155c-1.219-.708-2.221-2.615-2.221-4.246l.039-31.316-2.201-2.87 2.064-1.199c.393-.255.924-.255 1.494.079l43.358 25.103c1.219.708 2.221 2.615 2.221 4.246l-.039 34.107c0 .924-.315 1.553-.806 1.828l-2.025 1.18z" fill="#173D7A"/><path d="M561.557 238.315l-2.712-1.573-14.918-25.909.019-17.024-2.201-2.87 2.064-1.199c.393-.256.924-.256 1.494.079l43.358 25.103c.649.373 1.238 1.081 1.631 1.907l-28.735 21.486z" fill="#396CAA"/><path d="M542.728 192.197l-.983-1.278 2.064-1.199c.393-.255.924-.255 1.494.079l.766.432-3.341 1.966z" fill="#5793CE"/><path d="M589.053 215.197c.964.786 1.71 2.28 1.809 3.657l-4.246 2.437-2.024-3.519 4.461-2.575z" fill="#274F89"/><path d="M586.597 216.121l-43.339-25.103c-1.218-.708-2.221.039-2.221 1.671l-.039 34.106c0 1.632.983 3.539 2.221 4.247l43.358 25.103c1.219.708 2.221-.039 2.221-1.671l.04-34.107c-.02-1.631-1.003-3.538-2.241-4.246z" fill="#5793CE"/><path d="M607.922 222.726l-.687 1.435a9.763 9.763 0 01-3.617 4.01l-4.304 2.654c-1.337.826-3.027.885-4.403.099a.615.615 0 01-.138-.099c-1.375-.865-1.493-2.83-.373-3.971l4.501-4.619s-2.536 1.946-3.243 1.16c-.511-.571 2.457-3.362 4.737-3.46 2.28-.099 4.481-1.887 4.481-1.887l3.046 4.678z" fill="#FFC2B0"/><path d="M596.503 118.361s-16.49 17.948-23.153 34.422c0 0 5.641 10.163 19.458 14.153 13.798 3.991 3.695-48.575 3.695-48.575z" fill="#FF2C9C"/><path d="M589.703 165.875l2.673-25.831-6.31 24.199c1.121.59 2.339 1.121 3.637 1.632z" fill="#D3008D"/><path d="M608.866 114.744l-4.442-1.219s2.123 3.323 5.208 4.188c3.086.845 3.578-1.77 3.578-1.77l-4.344-1.199z" fill="#fff"/><path d="M493.886 104.286L317.956 2.674c-5.779-3.342-11.027-3.421-14.997-.924v-.04l-22.092 12.798 14.8 2.771c-.039.767-.098 1.514-.098 2.32V434.64c0 16.474 10.024 35.621 22.367 42.757l173.473 100.177c-1.572 4.954-4.933 15.373-4.933 15.373l21.581-12.522c5.012-2.575 8.196-9.043 8.196-18.341V147.023c.02-16.474-10.004-35.601-22.367-42.737z" fill="#FF2C9C"/><path d="M659.261 460.569l-26.416-15.254-26.416 15.254 26.416 15.255 26.416-15.255z" fill="#D4ECFF"/><path d="M632.845 461.67v-17.201l31.565-18.223v17.201l-31.565 18.223z" fill="#E8A200"/><path d="M632.845 444.469l-31.566-18.223v17.201l31.566 18.223v-17.201z" fill="#F9BF30"/><path d="M664.41 426.246l-31.565-18.223-31.566 18.223 31.566 18.223 31.565-18.223z" fill="#FDD762"/><path d="M554.894 227.719c0 2.693-1.887 3.794-4.245 2.438-2.339-1.356-4.246-4.639-4.246-7.333 0-2.693 1.887-3.794 4.246-2.437 2.339 1.356 4.245 4.639 4.245 7.332z" fill="#fff"/><path d="M510.357 458.859a1.978 1.978 0 01-1.71-.983c-.551-.943-.217-2.142.727-2.693l74.197-42.717a1.437 1.437 0 00.727-1.278c0-.255-.079-.884-.747-1.277l-39.27-22.548c-5.68-3.264-9.218-9.358-9.218-15.904V242.247c0-5.682 2.81-10.97 7.488-14.174l5.897-4.01a1.977 1.977 0 012.732.511 1.977 1.977 0 01-.511 2.732l-5.897 4.011a13.194 13.194 0 00-5.778 10.91V371.44c0 5.15 2.771 9.947 7.233 12.502l39.27 22.548c1.69.983 2.712 2.713 2.712 4.679a5.334 5.334 0 01-2.712 4.678L511.3 458.564c-.255.217-.609.295-.943.295z" fill="#FF2C9C"/><path d="M295.589 434.621c0 16.473 10.024 35.62 22.367 42.756l173.473 100.178a4832.803 4832.803 0 01-4.933 15.372l21.581-12.522c5.012-2.575 8.196-9.043 8.196-18.341V147.023c0-8.591-2.752-17.909-7.095-25.87L295.609 244.488v190.133h-.02z" fill="#D3008D"/><path d="M471.696 591.846l-175.93-101.613c-12.363-7.135-22.368-26.282-22.368-42.756V32.436c0-16.474 10.024-24.042 22.368-16.906l175.93 101.613c12.363 7.135 22.367 26.282 22.367 42.756V574.94c0 16.454-10.004 24.042-22.367 16.906z" fill="#FF2C9C"/><path d="M302.488 145.509l-13.621-9.357-5.327-17.456-5.326 11.303-4.835-2.261v9.613l1.553 2.438-1.553 6.939v6.605l10.161-1.356 11.715 15.077-3.106-17.318 10.339-4.227z" fill="#D3008D"/><path d="M468.413 578.105l-169.051-97.642c-9.178-5.307-16.628-19.54-16.628-31.787V39.552c0-12.247 7.45-17.87 16.628-12.581l169.051 97.642c9.179 5.307 16.628 19.54 16.628 31.787v409.144c0 12.227-7.429 17.849-16.628 12.561z" fill="#fff"/><path d="M399.268 452.451l-82.983-47.927V202.773l39.094 22.568c27.162 15.687 43.889 44.663 43.889 76.018v151.092z" fill="#EDEDED"/><path d="M286.606 183.253c-8.373-4.974-20.009-4.364-32.863 3.066-25.453 14.685-46.149 50.561-46.149 79.93v21.211l.865.511 83.139 48.91 1.258-25.379 1.042-9.849 4.403-15.294.511-2.339 9.454-19.049 7.449-9.298 6.034-7.195 14.702-11.578 1.297-.964 7.233-3.106 9.729-2.535h7.587l8.471 1.494-84.162-48.536z" fill="#D4ECFF"/><path d="M297.22 379.362l2.692-1.553v-96.6c-1.395 1.907-2.063 4.344-2.692 6.841v91.312z" fill="#D4ECFF"/><path d="M381.224 427.78l-84.004-48.418.865-91.45 3.203-9.239 9.729-16.729 11.498-13.643 10.378-8.295 11.203-6.822 20.343-2.319 10.771 6.094 6.014 9.2 1.887 14.134-.648 152.881-1.239 14.606z" fill="#D4ECFF"/><path d="M286.626 183.272c-7.017-4.167-16.294-4.403-26.672-.039l85.597 49.421 9.179-2.379h7.586l8.471 1.494-84.161-48.497z" fill="#5793CE"/><path d="M261.959 182.447c-2.673.983-5.405 2.26-8.196 3.872a67.971 67.971 0 00-5.523 3.598l85.322 49.263 2.928-2.3 1.297-.963 7.233-3.106 2.89-.747-85.951-49.617z" fill="#E9F6FF"/><path d="M322.496 247.889l11.616-9.141-85.302-49.264c-3.872 2.713-7.587 5.898-11.105 9.436l84.791 48.969z" fill="#fff"/><path d="M383.917 426.227l-2.693 1.553V262.927c0-27.659-19.497-38.923-43.456-25.084-23.96 13.84-43.457 47.593-43.457 75.271v22.233l-2.693 1.553v-22.233c0-29.389 20.697-65.245 46.15-79.93 25.453-14.684 46.149-2.732 46.149 26.637v164.853z" fill="#5793CE"/><path d="M233.106 250.483l-4.737 19.344 2.358 31.237-5.994-3.539-7.666-16.965 6.722-21.466 9.317-8.611z" fill="#AEDEED"/><path opacity=".4" d="M370.552 374.211c-.511 0-1.042-.157-1.573-.471l-61.087-35.287c-1.808-1.042-3.204-3.695-3.204-6.035v-48.083c0-1.416.531-2.517 1.435-3.047.806-.472 1.789-.413 2.752.137l61.087 35.286c1.808 1.042 3.204 3.696 3.204 6.035v48.084c0 1.416-.531 2.516-1.435 3.047a2.106 2.106 0 01-1.179.334zm-63.249-91.253a.454.454 0 00-.217.059c-.216.118-.452.551-.452 1.357v48.084c0 1.651 1.022 3.636 2.221 4.344l61.087 35.286c.158.079.551.276.806.138.197-.118.452-.55.452-1.356v-48.084c0-1.651-1.022-3.637-2.221-4.345l-61.087-35.286c-.118-.059-.373-.197-.589-.197z" fill="#fff"/><path d="M326.859 340.439l-.433-.256c-1.592-.924-2.889-3.381-2.889-5.504v-22.902c0-2.123 1.297-3.106 2.889-2.182l.433.256c1.592.924 2.889 3.381 2.889 5.504v22.902c-.02 2.123-1.297 3.106-2.889 2.182zM339.143 347.535l-.432-.255c-1.593-.924-2.89-3.381-2.89-5.504v-13.407c0-2.123 1.297-3.106 2.89-2.182l.432.255c1.592.924 2.889 3.381 2.889 5.504v13.407c-.019 2.123-1.297 3.106-2.889 2.182z" fill="#B2D3EA"/><path d="M351.427 354.632l-.432-.256c-1.592-.924-2.89-3.381-2.89-5.504v-31.925c0-2.123 1.298-3.106 2.89-2.182l.432.256c1.592.924 2.889 3.381 2.889 5.504v31.925c-.019 2.123-1.297 3.106-2.889 2.182z" fill="#396CAA"/><path d="M253.035 600.85c29.027 0 52.557-13.589 52.557-30.353 0-16.763-23.53-30.352-52.557-30.352-29.026 0-52.556 13.589-52.556 30.352 0 16.764 23.53 30.353 52.556 30.353z" fill="#D4ECFF"/><path d="M220.841 554.397c-3.655 1.573-5.975 5.642-5.66 10.026.137 2.064.393 3.991.825 4.915 1.16 2.437 4.993 5.799 11.086 3.401 6.093-2.418 19.635-15.137 20.146-23.453.924-15.471-16.766 1.003-26.397 5.111zM256.652 579.992s-1.455 8.925-.747 10.557c.708 1.631 4.953 5.13 11.223 4.364 6.27-.767 24.293-6.979 28.303-18.852 6.23-18.42-34.809 1.376-34.809 1.376l-3.97 2.555z" fill="#173D7A"/><path d="M274.263 437.432l1.396 139.219c-.138 4.835-3.322 8.924-7.587 9.652-.531.098-1.101.157-1.691.216-4.324.373-6.839-1.474-8.274-3.421-1.16-1.572-1.769-3.577-1.867-5.622l-1.769-59.426-8.865-53.136-12.264 94.044c-.197 2.536-1.415 4.895-3.381 6.193-1.356.904-3.184 1.592-5.602 1.513-3.518-.098-5.955-1.985-7.449-3.656-1.179-1.337-1.808-3.165-1.769-5.033l4.875-56.576 1.808-72.165 52.439 8.198z" fill="#FDD762"/><path d="M256.239 312.819l-2.201 12.68s-.078 4.324 4.757 5.524c4.835 1.199 6.328-1.927 6.328-1.927l2.182-14.291-11.066-1.986z" fill="#FFC2B0"/><path d="M282.872 305.86c-3.44 10.871-14.053 17.181-23.704 14.095-9.67-3.086-14.721-14.39-11.282-25.261 3.44-10.87 14.053-17.181 23.704-14.094 9.65 3.086 14.702 14.409 11.282 25.26z" fill="#FFC2B0"/><path d="M256.809 325.735c-.334-.138-20.5-13.132-27.949.471-12.147 22.155-3.263 47.573-7.606 102.734-.728 9.239 12.421 14.861 18.632 18.4 5.523 3.165 11.715 5.091 18.083 5.15 6.309.059 18.377-5.544 17.945-13.8-2.025-37.901 1.336-69.826 4.422-100.826.02 0-3.852-4.168-23.527-12.129z" fill="#983BE9"/><path d="M245.606 464.894l-12.265 94.044c-.196 2.536-1.415 4.895-3.38 6.193a7.654 7.654 0 01-1.042.59c2.555-1.907 9.985-80.854 11.36-89.622 1.376-8.787 5.327-11.205 5.327-11.205z" fill="#D8892B"/><path d="M322.2 337.215l16.884-33.517-5.307-3.342-17.493 25.536 5.916 11.323zM210.837 301.634l8.216-37.37 6.545.059-2.457 31-12.304 6.311z" fill="#FFC2B0"/><path d="M280.355 337.864s18.888 7.45 35.104-13.014c1.434-1.809 4.363-1.592 5.208.334 1.454 3.362 3.282 8.414 1.061 13.191-9.807 21.053-43.26 20.306-51.318 32.121-8.059 11.775 9.945-32.632 9.945-32.632zM244.014 321.076s-15.586 1.199-17.827-12.306c-1.16-6.959-1.494-11.107-1.572-13.486a2.738 2.738 0 00-3.066-2.654c-3.735.472-9.513 1.573-10.3 4.089-1.179 3.735-3.38 22.057 12.029 50.187 10.103 18.42 20.736-25.83 20.736-25.83z" fill="#983BE9"/><path d="M219.013 264.342l.157-4.265a8.713 8.713 0 011.278-4.247l4.324-7.096 1.12-1.416a3.294 3.294 0 014.324-.747l1.002.629c1.258.806 2.005 2.222 1.907 3.716l-2.241 6.055 2.83-.551a1.01 1.01 0 011.18.806c.078.472-.177.924-.61 1.101l-4.618 1.868-4.187 5.936-6.466-1.789zM339.202 303.914l1.985-3.774a8.962 8.962 0 001.002-4.325l-.255-8.296-.275-1.789a3.27 3.27 0 00-3.381-2.771l-1.179.059a4.033 4.033 0 00-3.479 2.3l-1.062 6.369-2.181-1.868a.982.982 0 00-1.415.118c-.295.374-.315.885-.02 1.258l3.086 3.893.806 8.118 6.368.708z" fill="#FFC2B0"/><path d="M268.032 366.25c-1.651 7.49 8.235 63.948-2.752 84.589 5.504-2.222 10.928-6.586 10.634-12.169-1.435-27.108-.138-51.15 1.847-73.993 9.395-4.757 24.097-7.607 34.475-15.215-11.125 4.128-42.73 10.124-44.204 16.788z" fill="#721BD5"/><path d="M249.557 322.157l2.791-2.87s4.599 4.698 8.314 5.524c0 0 4.461 1.258 6.623 1.376l1.808 4.973c0-.019-14.662-1.081-19.536-9.003z" fill="#fff"/><path d="M269.723 306.214c.766-.02 1.493-.373 1.926-1.002.766-1.101.275-6.212 2.633-7.038 3.696-1.317 12.442 3.302 13.366-10.006.491-6.92-2.87-8.748-2.87-12.542 0 0 .295 1.907-17.493.708-17.787-1.18-23.566 14.625-23.998 22.135-.413 7.529 3.223 19.894 15.37 21.604 2.024.275 10.476-6.526 10.26-7.431-.216-.884-3.42-.845-2.948-3.44.393-2.162 1.729-2.949 3.754-2.988z" fill="#173D7A"/><path d="M360.979 145.509l-53.756-31.04c-2.397-1.376-4.324-5.072-4.324-8.256V66.228c0-3.184 1.946-4.659 4.324-3.263l53.756 31.04c2.398 1.376 4.324 5.072 4.324 8.256v39.985c0 3.185-1.945 4.639-4.324 3.263z" fill="#EDEDED"/><path d="M355.654 82.092l-53.756-31.04c-1.062-.61-2.025-.629-2.771-.216v-.04l-5.209 3.008s2.3.846 3.656 1.337V94.3c0 3.184 1.946 6.88 4.324 8.256l51.377 29.664v4.6l5.268-3.027-.02-.02c.885-.55 1.455-1.73 1.455-3.44V90.349c0-3.185-1.926-6.88-4.324-8.257z" fill="#721BD5"/><path d="M350.347 136.663l-53.756-31.04c-2.398-1.376-4.324-5.072-4.324-8.257V57.383c0-3.185 1.945-4.659 4.324-3.263l53.756 31.04c2.397 1.376 4.324 5.072 4.324 8.256V133.4c0 3.184-1.927 4.639-4.324 3.263z" fill="#983BE9"/><path d="M350.346 85.159l-53.756-31.04c-1.356-.787-2.555-.63-3.341.216.57-.04 1.219.079 1.907.492l53.755 31.04c2.398 1.376 4.325 5.071 4.325 8.256v39.985c0 1.376-.374 2.398-.983 3.047 1.435-.118 2.417-1.494 2.417-3.755V93.415c0-3.184-1.926-6.88-4.324-8.256zM314.673 91.843c0 2.32-1.632 3.243-3.636 2.103-2.005-1.16-3.637-3.97-3.637-6.29s1.632-3.244 3.637-2.104c2.004 1.18 3.636 3.99 3.636 6.29z" fill="#fff"/><path d="M325.66 98.192c0 2.32-1.631 3.244-3.636 2.104-2.005-1.16-3.636-3.971-3.636-6.291 0-2.32 1.631-3.244 3.636-2.103 2.005 1.16 3.636 3.97 3.636 6.29zM336.646 104.542c0 2.319-1.631 3.243-3.636 2.103-2.005-1.16-3.636-3.971-3.636-6.29 0-2.32 1.631-3.244 3.636-2.104 2.005 1.16 3.636 3.971 3.636 6.291z" fill="#fff"/><path d="M467.941 356.539l-53.756-31.04c-2.398-1.376-4.324-5.072-4.324-8.257v-89.975c0-3.184 1.946-4.659 4.324-3.263l53.756 31.04c2.398 1.376 4.324 5.072 4.324 8.257v89.975c0 3.165-1.926 4.639-4.324 3.263z" fill="#EDEDED"/><path d="M462.616 243.112l-53.756-31.041c-1.062-.609-2.025-.629-2.772-.216v-.039l-5.208 3.008s2.299.845 3.656 1.336v89.15c0 3.184 1.945 6.88 4.324 8.256l51.377 29.664v4.6l5.268-3.027-.02-.02c.885-.55 1.455-1.73 1.455-3.44v-89.975c0-3.165-1.927-6.861-4.324-8.256z" fill="#5793CE"/><path d="M457.308 347.693l-53.755-31.04c-2.398-1.377-4.324-5.072-4.324-8.257v-89.975c0-3.185 1.945-4.659 4.324-3.263l53.755 31.04c2.398 1.376 4.324 5.072 4.324 8.256v89.975c0 3.165-1.926 4.64-4.324 3.264z" fill="#D4ECFF"/><path d="M457.308 246.178l-53.756-31.04c-1.356-.786-2.555-.629-3.341.216.57-.039 1.219.079 1.906.492l53.756 31.04c2.398 1.376 4.324 5.072 4.324 8.256v89.975c0 1.377-.373 2.399-.982 3.047 1.434-.117 2.417-1.494 2.417-3.754v-89.975c0-3.165-1.926-6.881-4.324-8.257z" fill="#fff"/><path d="M467.941 478.085l-53.756-31.04c-2.398-1.376-4.324-5.072-4.324-8.257v-89.975c0-3.184 1.946-4.659 4.324-3.263l53.756 31.04c2.398 1.376 4.324 5.072 4.324 8.257v89.975c0 3.184-1.926 4.639-4.324 3.263z" fill="#EDEDED"/><path d="M462.616 364.677l-53.756-31.04c-1.062-.609-2.025-.629-2.772-.216v-.039l-5.208 3.007s2.299.846 3.656 1.337v89.149c0 3.185 1.945 6.881 4.324 8.257l51.377 29.664v4.6l5.268-3.027-.02-.02c.885-.55 1.455-1.73 1.455-3.44v-89.975c0-3.185-1.927-6.881-4.324-8.257z" fill="#D3008D"/><path d="M457.308 469.239l-53.755-31.04c-2.398-1.376-4.324-5.072-4.324-8.257v-89.975c0-3.185 1.945-4.659 4.324-3.263l53.755 31.04c2.398 1.376 4.324 5.072 4.324 8.256v89.975c0 3.185-1.926 4.64-4.324 3.264z" fill="#FF2C9C"/><path d="M457.308 367.744l-53.756-31.04c-1.356-.786-2.555-.629-3.341.216.57-.039 1.219.079 1.906.492l53.756 31.04c2.398 1.376 4.324 5.071 4.324 8.256v89.975c0 1.376-.373 2.398-.982 3.047 1.434-.118 2.417-1.494 2.417-3.755V376c0-3.184-1.926-6.88-4.324-8.256z" fill="#fff"/><path d="M107.217 517.165l47.25-26.617c2.103-1.179 5.739-1.003 8.137.432l30.052 17.771c2.398 1.416 2.634 3.519.531 4.699l-47.25 26.617c-2.103 1.179-5.739 1.002-8.137-.413l-30.052-17.771c-2.379-1.415-2.614-3.538-.531-4.718z" fill="#D4ECFF"/><path d="M145.269 526.699l54.07-30.47c1.061-.609 1.572-1.415 1.612-2.28l.019.02.059-6.016s-1.906 1.553-3.027 2.477l-33.688-19.933c-2.732-1.612-6.918-1.848-9.316-.492l-51.692 29.134-3.951-2.34-.079 6.075.02-.02c.02 1.042.747 2.143 2.221 3.008l34.396 20.346c2.791 1.631 6.958 1.848 9.356.491z" fill="#F9BF30"/><path d="M101.005 494.342l54.071-30.47c2.398-1.356 6.564-1.14 9.316.491l34.396 20.347c2.732 1.612 3.007 4.03.609 5.386l-54.07 30.47c-2.398 1.356-6.565 1.14-9.316-.491l-34.396-20.347c-2.732-1.612-3.007-4.03-.61-5.386z" fill="#FDD762"/><path d="M145.347 520.566l54.071-30.47c1.376-.767 1.828-1.887 1.513-2.988-.255.531-.688 1.002-1.395 1.396l-54.071 30.47c-2.397 1.356-6.564 1.14-9.316-.492l-34.396-20.346c-1.179-.708-1.887-1.553-2.123-2.398-.629 1.297.06 2.831 2.005 3.99l34.396 20.347c2.732 1.631 6.899 1.847 9.316.491zM157.73 486.44c-1.986-1.18-1.966-3.047.039-4.188 2.024-1.14 5.267-1.1 7.253.079 1.985 1.179 1.965 3.047-.04 4.187-2.005 1.14-5.248 1.101-7.252-.078z" fill="#fff"/><path d="M146.684 492.671c-1.985-1.179-1.966-3.047.039-4.187 2.024-1.14 5.267-1.101 7.253.079 1.985 1.179 1.965 3.047-.04 4.187-2.004 1.14-5.267 1.101-7.252-.079zM135.638 498.903c-1.985-1.18-1.966-3.047.039-4.187 2.025-1.141 5.268-1.101 7.253.078 1.985 1.18 1.965 3.047-.04 4.187-2.004 1.141-5.267 1.101-7.252-.078z" fill="#fff"/><path d="M62.09 474.802c20.874 0 37.796-9.77 37.796-21.821 0-12.051-16.922-21.82-37.796-21.82s-37.796 9.769-37.796 21.82 16.922 21.821 37.796 21.821z" fill="#D4ECFF"/><path d="M40.725 189.091s.963 20.032 2.496 33.517c1.533 13.466 33.963-10.34 33.963-10.34v-15.333l-36.46-7.844z" fill="#6614CF"/><path d="M58.001 438.434c.492 1.219 8.884 11.441 17.297 14.017 3.655 1.12 6.112 1.258 7.724 1.061 1.612-.196 2.614-1.848 2.064-3.381-1.455-4.069-5.582-12.542-16.117-17.771C54.699 425.283 58 438.434 58 438.434zM55.191 442.366s3.165 7.431 4.148 13.643c.59 3.794-1.494 8.708-3.204 11.972-1.061 2.024-3.754 2.477-5.444.943-2.752-2.496-6.25-6.821-6.82-13.033-.983-10.478 0-12.306 0-12.306l11.32-1.219z" fill="#173D7A"/><path d="M34.947 315.768s-1.1 13.21 0 27.836c1.1 14.625 5.012 82.977 5.759 99.411 0 0-.373 4.973 9.277 3.872 9.631-1.1 8.864-6.624 8.864-6.624s13.543-.177 13.955-8.158c.433-7.982 13.857-95.264 13.857-126.657l-51.712 10.32z" fill="#FDD762"/><path d="M91.65 247.436l6.624 10.262 22.8 27.541s-.787 2.556-3.617 3.224c-2.221.531-21.384-17.771-29.659-25.792a6.33 6.33 0 01-.865-8.079l4.717-7.156z" fill="#FFC2B0"/><path d="M78.718 205.27s10.535-.275 14.19 14.96c3.676 15.215 6.526 34.283 3.342 35.876-9.572 4.757-15.626-.806-15.626-.806l-1.906-50.03z" fill="#8A2AE3"/><path d="M81.882 205.919c-1.789-.747-3.813-.846-5.68-.315-8.983 2.575-42.71 12.483-48.272 17.24-6.428 5.485 9.63 36.348 9.395 46.472-.236 10.124-1.376 22.056-2.26 33.045-.885 11.009-2.104 17.024 6.898 21.703 9.002 4.678 24.352 4.895 35.85-3.873 11.498-8.767 9.415-14.763 8.924-21.113-.472-6.369-4.403-33.871-4.05-41.675 0 0 4.05-2.988 7.057-8.099 3.007-5.111-2.3-14.527-4.501-20.641-2.201-6.114 1.238-13.112.55-18.105-.354-2.575-2.005-3.833-3.911-4.639z" fill="#983BE9"/><path d="M71.092 216.455c.708 5.564-4.383 10.793-11.38 11.697-6.997.904-13.247-2.89-13.955-8.433-.707-5.544 4.383-10.793 11.38-11.697 6.978-.904 13.248 2.87 13.955 8.433z" fill="#fff"/><path d="M67.475 216.907c.511 3.971-3.144 7.706-8.137 8.355-5.012.649-9.473-2.064-9.984-6.035-.511-3.971 3.125-7.706 8.137-8.355 5.012-.648 9.473 2.064 9.984 6.035z" fill="#FFC2B0"/><path d="M62.503 203.874s-6.093-5.013-7.292-2.477c-1.199 2.536-2.182 13.427-2.182 13.427l12.088 3.243-1.828-11.028s2.418-2.044-.786-3.165z" fill="#FFC2B0"/><path d="M81.396 191.822c.523-9.964-7.129-18.465-17.09-18.988-9.962-.522-18.462 7.131-18.984 17.094-.523 9.964 7.129 18.465 17.09 18.987 9.962.523 18.462-7.13 18.984-17.093z" fill="#FFC2B0"/><path d="M54.365 204.542c-.098.571-.216 1.18-.314 1.809 1.218 6.291 10.613 9.043 10.613 9.043l-1.395-8.355s1.14-.963.825-1.926c-3.695-1.18-8.392-2.222-9.729-.571z" fill="#EA9C92"/><path d="M81.396 191.822c.523-9.964-7.129-18.465-17.09-18.988-9.962-.522-18.462 7.131-18.984 17.094-.523 9.964 7.129 18.465 17.09 18.987 9.962.523 18.462-7.13 18.984-17.093zM18.889 267.33l2.005 48.32 7.075.747 4.6-43.523-13.68-5.544z" fill="#FFC2B0"/><path d="M42.101 263.281c-.373-1.691-3.479-3.067-3.95-5.269-2.418-11.264-3.008-27.855-3.008-27.855l-1.965 22.685c2.28 6.723 4.226 12.896 4.147 16.474-.138 5.937-.59 12.502-1.12 19.127v.02c0 .02 8.235-14.862 5.896-25.182z" fill="#8A2AE3"/><path d="M29.267 221.861s-5.642 2.163-8.845 19.521c-3.204 17.358-5.582 34.736.118 36.977 5.7 2.241 10.456 3.931 12.146-.708 1.671-4.639 2.713-27.01 2.929-35.05.197-8.06.491-19.147-6.349-20.74z" fill="#B45EF4"/><path d="M119.383 283.234s3.067 1.12 5.268 3.538c1.808 1.986 2.811 3.657 3.597 4.836 1.769 2.634 3.243 8.296 2.162 9.004-1.081.707-7.214-9.495-8.196-7.136-.983 2.378 0 4.56-1.258 4.6-1.278.039-5.68-10.262-9.14-13.447-3.459-3.184 7.567-1.395 7.567-1.395z" fill="#FFC2B0"/><path d="M58.827 440.263s1.67-.02 3.872-.393l2.654-106.252-6.526 106.645z" fill="#D8892B"/><path d="M48.606 382.861l-3.754-4.914-39.545-22.883c-1.258-.727-2.3-2.693-2.3-4.383l.04-32.377-2.28-2.969 2.142-1.238c.413-.256.943-.256 1.553.098l44.793 25.949c1.258.727 2.3 2.693 2.3 4.384l-.04 35.247c0 .943-.334 1.612-.845 1.887l-2.064 1.199z" fill="#983BE9"/><path d="M21.266 364.304l-2.81-1.632-15.41-26.774.02-17.594-2.28-2.969 2.143-1.238c.412-.256.943-.256 1.552.098l44.794 25.949c.668.393 1.277 1.12 1.69 1.966l-29.699 22.194z" fill="#D29FFF"/><path d="M1.789 316.653l-1.003-1.318 2.143-1.238c.412-.256.943-.256 1.552.098l.786.452-3.478 2.006z" fill="#D29FFF"/><path d="M49.687 340.419c1.003.806 1.77 2.359 1.867 3.775l-4.383 2.535-2.103-3.636 4.62-2.674z" fill="#983BE9"/><path d="M47.132 341.363L2.34 315.414c-1.258-.727-2.3.039-2.3 1.73L0 352.411c0 1.69 1.022 3.656 2.3 4.383l44.793 25.949c1.258.727 2.3-.039 2.3-1.73l.039-35.247c0-1.69-1.022-3.656-2.3-4.403z" fill="#B45EF4"/><path d="M37.934 366.663l-2.122-1.239v-18.341l2.122 1.239v18.341zM32.941 363.773l-2.123-1.219v-18.341l2.123 1.239v18.321zM27.968 360.903l-2.142-1.239v-18.341l2.142 1.239v18.341z" fill="#fff"/><path d="M20.952 315.257s-1.868 11.284-1.592 14.901c.275 3.617 2.22 9.573 3.675 9.455 1.474-.118.04-14.527 2.634-13.092 2.575 1.435 2.85 3.892 4.01 3.027 1.16-.865-2.045-13.19-1.18-18.518.865-5.366-7.547 4.227-7.547 4.227z" fill="#FFC2B0"/><path d="M70.305 192.453c9.061 3.224 10.83 1.258 10.909 1.14.079-.551.157-1.101.177-1.671a17.654 17.654 0 00-.61-5.78l-23.507-3.164c.02.019 3.735 6.172 13.031 9.475z" fill="#EA9C92"/><path d="M82.058 173.935c-2.142-1.828-9.847-10.871-23.644-8.748-8.629 1.337-15.9 7.214-17.513 20.641-1.08 9.043 2.241 17.948 8.354 24.533.334-.157.668-.295.982-.491 3.46-2.281 3.833-3.519 3.833-3.539l.767-6.841c-.02-.963-.747-1.828-1.73-1.906-.747-.04-1.67-.413-2.535-1.534-1.986-2.595-1.062-6.644 2.889-6.782 2.064-.078 2.87-1.199 3.164-2.261a1.625 1.625 0 012.123-1.1c4.5 1.631 15.626 5.15 22.78 3.125 9.159-2.575 2.653-13.269.53-15.097z" fill="#6614CF"/><path d="M71.76 200.611l5.523-1.514s-2.634 4.148-6.487 5.21c-3.852 1.061-4.442-2.202-4.442-2.202l5.406-1.494z" fill="#fff"/><path d="M30.347 329.175l-4.698-2.693 1.77 2.889 2.378.885.55-1.081z" fill="#D29FFF"/><path d="M134.243 336.881l53.952-30.706c1.062-.61 1.573-1.435 1.592-2.281l.02.02.039-6.015s-1.887 1.572-3.007 2.477L153.052 280.6c-2.751-1.612-6.918-1.809-9.316-.452l-51.554 29.349-3.97-2.32-.04 6.075.02-.02c.02 1.042.766 2.143 2.24 3.008l34.494 20.208c2.752 1.593 6.919 1.809 9.317.433z" fill="#D3008D"/><path d="M89.842 304.72l53.952-30.706c2.398-1.356 6.565-1.16 9.316.452l34.495 20.209c2.751 1.612 3.026 4.03.629 5.386l-53.953 30.706c-2.398 1.356-6.565 1.16-9.316-.452l-34.494-20.209c-2.733-1.612-3.027-4.01-.63-5.386z" fill="#FF2C9C"/><path d="M134.282 330.747l53.953-30.705c1.356-.767 1.827-1.888 1.493-3.008-.255.531-.688 1.002-1.376 1.396L134.4 329.135c-2.398 1.357-6.565 1.16-9.316-.452l-34.495-20.208c-1.179-.688-1.886-1.533-2.142-2.379-.61 1.298.06 2.831 2.025 3.991l34.494 20.208c2.751 1.632 6.918 1.829 9.316.452zM146.547 296.582c-2.005-1.16-1.986-3.047.019-4.187 2.005-1.141 5.268-1.121 7.253.039 2.005 1.16 1.985 3.047-.02 4.187-2.024 1.14-5.267 1.121-7.252-.039z" fill="#fff"/><path d="M135.52 302.853c-2.005-1.16-1.985-3.047.02-4.188 2.005-1.14 5.267-1.12 7.252.04 2.005 1.16 1.986 3.047-.019 4.187-2.025 1.16-5.268 1.14-7.253-.039zM124.494 309.124c-2.005-1.16-1.985-3.047.019-4.188 2.005-1.14 5.268-1.12 7.253.04 2.005 1.16 1.985 3.047-.02 4.187-2.024 1.16-5.267 1.14-7.252-.039z" fill="#fff"/><path d="M438.282 379.932c0 4.993-3.518 7.038-7.842 4.521-4.324-2.496-7.842-8.59-7.842-13.583 0-4.994 3.518-7.038 7.842-4.522 4.324 2.497 7.842 8.571 7.842 13.584zM441.545 394.066c-.02-.079-.02-.157-.04-.236-.334-2.103-2.319-3.951-3.636-3.479-2.024.727-4.619.373-7.429-1.258-2.811-1.632-5.405-4.266-7.43-7.333-1.317-1.985-3.302-2.437-3.636-.727-.019.059-.019.118-.039.196l-3.715 23.629 29.659 17.123-3.734-27.915z" fill="#D3008D"/><path d="M438.282 379.932c0 4.993-3.518 7.038-7.842 4.521-4.324-2.496-7.842-8.59-7.842-13.583 0-4.994 3.518-7.038 7.842-4.522 4.324 2.497 7.842 8.571 7.842 13.584zM441.545 394.066c-.02-.079-.02-.157-.04-.236-.334-2.103-2.319-3.951-3.636-3.479-2.024.727-4.619.373-7.429-1.258-2.811-1.632-5.405-4.266-7.43-7.333-1.317-1.985-3.302-2.437-3.636-.727-.019.059-.019.118-.039.196l-3.715 23.629 29.659 17.123-3.734-27.915zM447.363 439.968l-36.008-20.798v-2.595l36.008 20.798v2.595zM436.494 445.02l-25.139-14.508v-2.595l25.139 14.508v2.595zM433.113 437.393l-21.758-12.562v-2.595l21.758 12.562v2.595zM447.363 445.629l-10.869-6.271v-2.594l10.869 6.27v2.595z" fill="#fff"/><path d="M447.441 266.505l-36.007-20.799v-2.594l36.007 20.798v2.595zM436.572 271.557l-25.138-14.508v-2.595l25.138 14.508v2.595zM433.191 263.929l-21.757-12.561v-2.595l21.757 12.562v2.594zM447.441 272.166l-10.869-6.271V263.3l10.869 6.271v2.595zM447.441 288.404l-36.007-20.798v-2.595l36.007 20.798v2.595zM436.572 293.476l-25.138-14.528v-2.594l25.138 14.527v2.595zM433.191 285.848l-21.757-12.561v-2.595l21.757 12.542v2.614zM447.441 294.085l-10.869-6.29V285.2l10.869 6.271v2.614zM447.441 310.303l-36.007-20.779v-2.594l36.007 20.778v2.595zM436.572 315.375l-25.138-14.508v-2.614l25.138 14.527v2.595zM433.191 307.747l-21.757-12.561v-2.595l21.757 12.562v2.594zM447.441 315.984l-10.869-6.29v-2.595l10.869 6.29v2.595z" fill="#5793CE"/><path d="M333.974 371.754l-25.689-14.842v-2.398l25.689 14.842v2.398zM349.895 380.954l-10.967-6.35v-2.398l10.967 6.35v2.398zM334.859 377.494l-10.967-6.349v-2.399l10.967 6.35v2.398zM358.622 391.196l-19.694-11.362v-2.399l19.694 11.363v2.398zM372.085 404.21l-29.108-16.828v-2.398l29.108 16.827v2.399zM365.58 390.016l-10.968-6.349v-2.398l10.968 6.349v2.398zM319.253 368.471l-10.968-6.33v-2.398l10.968 6.33v2.398zM338.259 384.669l-30.032-17.338v-2.398l30.032 17.338v2.398zM326.702 383.215l-18.122-10.458v-2.399l18.122 10.458v2.399z" fill="#fff"/><path d="M593.261 509.675a1.996 1.996 0 01-1.691-.963 1.974 1.974 0 01.688-2.693l76.123-44.997c.61-.354.688-.964.688-1.2s-.059-.825-.668-1.199l-20.775-12.463a1.955 1.955 0 01-.668-2.693c.55-.924 1.769-1.239 2.692-.669l20.775 12.464c1.632.983 2.595 2.693 2.575 4.58a5.267 5.267 0 01-2.614 4.561L594.263 509.4a2.077 2.077 0 01-1.002.275z" fill="#FDD762"/><path d="M608.139 544.136l-26.416-15.255-26.436 15.255 26.436 15.255 26.416-15.255z" fill="#D4ECFF"/><path d="M581.723 545.237v-17.181l31.565-18.243v17.201l-31.565 18.223zM581.723 528.056l-31.566-18.243v17.201l31.566 18.223v-17.181z" fill="#D3008D"/><path d="M613.288 509.813l-31.565-18.223-31.566 18.223 31.566 18.243 31.565-18.243z" fill="#FF2C9C"/><path d="M326.937 143.543L332.264 161l13.62 9.377-10.338 4.207 3.106 17.318-11.715-15.077-11.694 1.553 3.105-13.741-10.338-16.14 13.621 6.35 5.306-11.304zM370.355 168.391l5.327 17.457 13.601 9.377-10.319 4.206 3.086 17.319-11.695-15.058-11.714 1.533 3.106-13.741-10.339-16.139 13.621 6.35 5.326-11.304zM302.487 145.509l-13.62-9.357-5.327-17.456-.806 1.71v31.689l.806-.118 11.714 15.077-3.105-17.318 10.338-4.227z" fill="#EDEDED"/><path d="M187.586 57.52l5.326 17.456 13.621 9.377-10.338 4.207 3.105 17.318-11.714-15.058-11.695 1.553 3.086-13.76-10.319-16.14 13.621 6.35 5.307-11.303z" fill="#E8A200"/><path d="M162.31 66.13l6.348-3.657 9.808 4.58s-.04 6.606 0 6.763c.039.157-4.049.354-4.324.354-.275 0-11.832-8.04-11.832-8.04z" fill="#F9BF30"/><path d="M199.3 105.878l-6.349 3.657-3.105-17.319s3.086-3.243 3.066-3.243c-.02 0 3.459.59 3.459.59l2.929 16.315z" fill="#E8A200"/><path d="M181.237 61.176l5.327 17.456 13.62 9.358-10.338 4.226 3.105 17.319-11.714-15.078-11.694 1.553 3.085-13.74-10.318-16.14 13.601 6.35 5.326-11.304z" fill="#FDD762"/><path d="M192.952 109.535l-3.106-17.319 10.338-4.207-13.62-9.377-5.327-17.456-5.326 11.303-13.621-6.35.943 1.475 13.13 6.114 4.678-9.947 4.697 15.431 12.461 8.571-9.414 3.834 2.909 16.316 1.258 1.612z" fill="#fff"/><path d="M181.237 61.176l6.349-3.656 5.326 17.456-6.348 3.656-5.327-17.456z" fill="#E8A200"/><path d="M206.533 84.353l-6.349 3.637-13.621-9.358 6.349-3.656 13.621 9.377z" fill="#F9BF30"/><path d="M186.878 79.065l-.963-.57 6.86-3.99.137.471.452.314-6.486 3.775z" fill="#fff"/><path d="M231.003 82.367l5.326 17.457 13.601 9.377-10.318 4.207 3.085 17.318-11.694-15.058-11.714 1.553 3.105-13.76-10.338-16.14 13.62 6.37 5.327-11.324z" fill="#E8A200"/><path d="M205.707 90.978l6.349-3.657 9.807 4.58s-.039 6.606 0 6.763c.04.157-4.049.354-4.324.354-.255 0-11.832-8.04-11.832-8.04z" fill="#F9BF30"/><path d="M242.697 130.726l-6.348 3.657-3.106-17.319s3.086-3.244 3.066-3.244c-.019 0 3.46.59 3.46.59l2.928 16.316z" fill="#E8A200"/><path d="M224.654 86.024l5.307 17.456 13.621 9.377-10.319 4.207 3.086 17.319-11.695-15.078-11.714 1.553 3.105-13.741-10.338-16.14 13.621 6.35 5.326-11.303z" fill="#FDD762"/><path d="M236.349 134.383l-3.105-17.319 10.338-4.207-13.621-9.377-5.326-17.456-5.327 11.303-13.62-6.35.943 1.475 13.129 6.114 4.678-9.947 4.698 15.431 12.461 8.571-9.415 3.834 2.909 16.316 1.258 1.612z" fill="#fff"/><path d="M224.654 86.024l6.349-3.657 5.326 17.457-6.368 3.656-5.307-17.456z" fill="#E8A200"/><path d="M249.93 109.201l-6.348 3.656-13.621-9.377 6.368-3.656 13.601 9.377z" fill="#F9BF30"/><path d="M230.276 103.913l-.964-.551 6.86-4.01.157.472.452.314-6.505 3.775z" fill="#fff"/><path d="M274.401 107.215l5.327 17.457 13.62 9.377-10.338 4.206 3.105 17.319-11.714-15.058-11.694 1.553 3.085-13.741-10.318-16.159 13.62 6.369 5.307-11.323z" fill="#E8A200"/><path d="M249.105 115.826l6.349-3.657 9.808 4.58s-.04 6.606 0 6.763c.039.157-4.049.354-4.324.354-.256 0-11.833-8.04-11.833-8.04z" fill="#F9BF30"/><path d="M286.115 155.574l-6.368 3.657-3.105-17.319s3.085-3.244 3.066-3.244c-.02 0 3.459.59 3.459.59l2.948 16.316z" fill="#E8A200"/><path d="M268.053 110.872l5.326 17.456 13.601 9.377-10.318 4.207 3.085 17.319-11.694-15.078-11.715 1.553 3.106-13.741-10.339-16.14 13.621 6.35 5.327-11.303z" fill="#FDD762"/><path d="M279.747 159.231l-3.105-17.319 10.338-4.207-13.62-9.377-5.327-17.456-5.326 11.303-13.621-6.35.943 1.475 13.13 6.113 4.678-9.946 4.697 15.431 12.461 8.571-9.414 3.833 2.909 16.317 1.257 1.612z" fill="#fff"/><path d="M268.053 110.872l6.348-3.657 5.327 17.457-6.349 3.656-5.326-17.456z" fill="#E8A200"/><path d="M293.349 134.049l-6.368 3.656-13.601-9.377 6.348-3.656 13.621 9.377z" fill="#F9BF30"/><path d="M273.694 128.761l-.964-.551 6.86-4.01.138.472.452.314-6.486 3.775z" fill="#fff"/><path d="M317.818 132.063l5.307 17.456 13.621 9.377-10.319 4.207 3.086 17.339-11.695-15.078-11.714 1.553 3.106-13.741-10.339-16.139 13.621 6.349 5.326-11.323z" fill="#E8A200"/><path d="M292.522 140.673l6.349-3.656 9.808 4.58s-.04 6.605 0 6.763c.039.157-4.049.353-4.324.353-.256 0-11.833-8.04-11.833-8.04z" fill="#F9BF30"/><path d="M329.513 180.442l-6.349 3.656-3.105-17.319s3.085-3.243 3.066-3.243c-.02 0 3.459.589 3.459.589l2.929 16.317z" fill="#E8A200"/><path d="M311.45 135.719l5.326 17.457 13.621 9.377-10.338 4.207 3.105 17.318-11.714-15.058-11.695 1.553 3.086-13.76-10.319-16.14 13.621 6.35 5.307-11.304z" fill="#FDD762"/><path d="M323.164 184.078l-3.105-17.318 10.338-4.207-13.62-9.377-5.327-17.457-5.326 11.304-13.621-6.35.943 1.475 13.13 6.113 4.678-9.947 4.697 15.432 12.461 8.571-9.414 3.833 2.909 16.316 1.257 1.612z" fill="#fff"/><path d="M311.45 135.719l6.368-3.656 5.307 17.456-6.348 3.657-5.327-17.457z" fill="#E8A200"/><path d="M336.746 158.896l-6.349 3.657-13.621-9.377 6.349-3.657 13.621 9.377z" fill="#F9BF30"/><path d="M317.091 153.608l-.963-.55 6.859-3.991.138.453.452.314-6.486 3.774z" fill="#fff"/><path d="M361.217 156.931l5.326 17.436 13.621 9.377-10.339 4.227 3.106 17.318-11.714-15.077-11.695 1.553 3.086-13.741-10.319-16.14 13.601 6.35 5.327-11.303z" fill="#E8A200"/><path d="M335.921 165.521l6.348-3.656 9.808 4.58s-.039 6.605 0 6.762c.039.158-4.049.354-4.324.354-.275 0-11.832-8.04-11.832-8.04z" fill="#F9BF30"/><path d="M372.931 205.289l-6.348 3.657-3.105-17.319s3.085-3.244 3.066-3.244c-.02 0 3.459.59 3.459.59l2.928 16.316z" fill="#E8A200"/><path d="M354.868 160.567l5.307 17.457 13.621 9.377-10.319 4.206 3.086 17.319-11.695-15.058-11.714 1.553 3.105-13.761-10.338-16.139 13.621 6.35 5.326-11.304z" fill="#FDD762"/><path d="M366.563 208.926l-3.106-17.319 10.339-4.206-13.621-9.377-5.326-17.457-5.327 11.304-13.621-6.35.944 1.474 13.129 6.114 4.678-9.947 4.698 15.432 12.461 8.571-9.415 3.833 2.909 16.316 1.258 1.612z" fill="#fff"/><path d="M354.868 160.567l6.349-3.636 5.326 17.436-6.368 3.657-5.307-17.457z" fill="#E8A200"/><path d="M380.164 183.744l-6.368 3.657-13.621-9.377 6.368-3.657 13.621 9.377z" fill="#F9BF30"/><path d="M360.509 178.456l-.983-.55 6.88-3.991.137.452.452.315-6.486 3.774z" fill="#fff"/></g><defs><radialGradient id="paint0_radial" cx="0" cy="0" r="1" gradientUnits="userSpaceOnUse" gradientTransform="matrix(91.9797 0 0 91.9953 455.568 244.874)"><stop stop-color="#01C8EF"/><stop offset=".089" stop-color="#03BEE9"/><stop offset=".239" stop-color="#08A5D7"/><stop offset=".429" stop-color="#107BBB"/><stop offset=".446" stop-color="#1177B8"/><stop offset="1" stop-color="#112564"/></radialGradient><clipPath id="clip0"><path fill="#fff" d="M0 0h673v606H0z"/></clipPath></defs></svg>