<svg width="152" height="131" fill="none" xmlns="http://www.w3.org/2000/svg"><g clip-path="url(#clip0)"><path d="M152 0H0v105.915h152V0z" fill="#fff"/><path d="M36.585 44.596h-7.652c-1.494 0-2.726-1.31-2.726-2.899v-8.139c0-1.588 1.232-2.898 2.726-2.898h7.652c1.494 0 2.725 1.31 2.725 2.898v8.139c0 1.589-1.231 2.899-2.725 2.899zM65.412 44.596H57.76c-1.494 0-2.726-1.31-2.726-2.899v-8.139c0-1.588 1.232-2.898 2.726-2.898h7.652c1.494 0 2.726 1.31 2.726 2.898v8.139c0 1.589-1.232 2.899-2.726 2.899zM94.24 44.596h-7.652c-1.494 0-2.726-1.31-2.726-2.899v-8.139c0-1.588 1.232-2.898 2.726-2.898h7.652c1.494 0 2.726 1.31 2.726 2.898v8.139c0 1.589-1.232 2.899-2.726 2.899zM123.067 44.596h-7.652c-1.494 0-2.726-1.31-2.726-2.899v-8.139c0-1.588 1.232-2.898 2.726-2.898h7.652c1.494 0 2.726 1.31 2.726 2.898v8.139c0 1.589-1.232 2.899-2.726 2.899zM36.585 75.255h-7.652c-1.494 0-2.726-1.31-2.726-2.898v-8.14c0-1.588 1.232-2.898 2.726-2.898h7.652c1.494 0 2.725 1.31 2.725 2.899v8.138c0 1.59-1.231 2.9-2.725 2.9zM65.412 75.255H57.76c-1.494 0-2.726-1.31-2.726-2.898v-8.14c0-1.588 1.232-2.898 2.726-2.898h7.652c1.494 0 2.726 1.31 2.726 2.899v8.138c0 1.59-1.232 2.9-2.726 2.9zM94.24 75.255h-7.652c-1.494 0-2.726-1.31-2.726-2.898v-8.14c0-1.588 1.232-2.898 2.726-2.898h7.652c1.494 0 2.726 1.31 2.726 2.899v8.138c0 1.59-1.232 2.9-2.726 2.9zM123.067 75.255h-7.652c-1.494 0-2.726-1.31-2.726-2.898v-8.14c0-1.588 1.232-2.898 2.726-2.898h7.652c1.494 0 2.726 1.31 2.726 2.899v8.138c0 1.59-1.232 2.9-2.726 2.9zM78.62 122.638v-16.723h-5.24v16.723H39.31V131h73.38v-8.362H78.62z" fill="#FDD762"/></g><defs><clipPath id="clip0"><path fill="#fff" d="M0 0h152v131H0z"/></clipPath></defs></svg>