<svg width="139" height="133" fill="none" xmlns="http://www.w3.org/2000/svg"><path d="M130.376 73.358a1.46 1.46 0 00-.283-.3l-4.88-4.536c4.029-.875 8.397-4.153 8.397-7.486 0-3.907-5.617-5.273-10.411-5.273-5.021 0-5.588 3.306-5.645 5.655l-12.566-11.666c-2.554-2.432-7.404-4.344-11.007-4.344H45.019c-3.603 0-8.453 1.912-11.007 4.344L21.446 61.418c-.057-2.322-.653-5.655-5.645-5.655-4.794 0-10.411 1.393-10.411 5.273 0 3.333 4.34 6.611 8.396 7.486l-4.879 4.535c-.113.11-.198.191-.283.3C3.404 77.648 0 85.598 0 91.363v17.158c0 4.153 1.702 7.951 4.454 10.765v6.666c0 3.88 3.375 7.049 7.545 7.049h9.106c4.17 0 7.546-3.169 7.546-7.049v-1.694h81.698v1.694c0 3.907 3.376 7.049 7.546 7.049h9.106c4.17 0 7.545-3.169 7.545-7.049v-6.666c2.752-2.814 4.454-6.585 4.454-10.765V91.362c0-5.764-3.404-13.715-8.624-18.004zM38.608 54.916c1.759-1.42 4.85-2.486 6.411-2.486h48.962c1.532 0 4.624 1.065 6.411 2.486l16.481 15.382H22.127l16.481-15.382zM5.645 88.766c0-4.234 3.433-7.65 7.66-7.65 4.226 0 18.07 7.815 18.07 12.05 0 4.234-13.844 3.25-18.07 3.25-4.227 0-7.66-3.414-7.66-7.65zm23.006 27.95h-2.922l-8.68.028c-2.411-.711-4.114-1.557-5.305-2.459-.596-.465-1.078-.929-1.447-1.393a5.134 5.134 0 01-.794-1.421c-1.078-2.924 1.135-5.628 1.135-5.628h14.78l9.871 10.901-6.638-.028zm62.124 0H48.224c-4.425 0-8.027-3.469-8.027-7.731h58.606c0 4.262-3.602 7.731-8.028 7.731zm1.844-13.004H46.38c-4.822 0-8.736-5.738-8.736-12.787h63.713c0 7.05-3.915 12.787-8.738 12.787zm36.85 7.731c-.171.465-.454.929-.795 1.421a6.833 6.833 0 01-1.446 1.394c-1.192.901-2.894 1.748-5.305 2.458l-8.681-.027H103.683l9.871-10.901h14.78c-.028.027 2.213 2.705 1.135 5.655zm-3.802-15.026c-4.226 0-18.07.983-18.07-3.252 0-4.207 13.844-12.048 18.07-12.048 4.227 0 7.66 3.415 7.66 7.65.028 4.235-3.433 7.65-7.66 7.65z" fill="#fff"/><path d="M69.33 42.703c3.807 0 6.893-2.972 6.893-6.639 0-3.666-3.086-6.639-6.893-6.639s-6.893 2.973-6.893 6.64c0 3.666 3.086 6.638 6.893 6.638z" fill="#FDD762"/><path d="M85.754 20.108c-.113-.109-.198-.19-.312-.273l-.312-.273c-.028-.082-.085-.11-.17-.164-8.907-7.787-22.524-7.486-31.005.71l-.993.957-1.39 1.338a4.064 4.064 0 000 5.875c1.673 1.639 4.425 1.639 6.099 0l2.383-2.295c5.39-5.192 14.183-5.192 19.573 0l1.702 1.611a4.353 4.353 0 006.042-.027 4.035 4.035 0 001.248-2.923 3.91 3.91 0 00-1.248-2.896l-1.617-1.64z" fill="#FDD762"/><path d="M97.498 11.915L96.08 10.55s0-.027-.029-.027l-1.134-1.093a3.674 3.674 0 00-.653-.492C79.77-3.33 57.7-2.948 43.657 10.057c-.057.055-.142.11-.227.164l-2.581 2.486a3.671 3.671 0 00.028 5.355c1.532 1.476 4.028 1.503 5.56.028l2.581-2.486c.029-.028.029-.055.057-.055 11.347-10.574 29.36-10.628 40.82-.219l2.043 1.967c1.532 1.476 4.028 1.476 5.56-.027 1.503-1.503 1.532-3.88 0-5.355z" fill="#FDD762"/></svg>