<svg width="673" height="693" fill="none" xmlns="http://www.w3.org/2000/svg"><path d="M372.384 405.8h4.68v21.24h13.176V431h-17.856v-25.2zm21.119 5.976h4.5V431h-4.5v-19.224zm2.268-3.168c-.816 0-1.5-.252-2.052-.756a2.585 2.585 0 01-.828-1.944c0-.768.276-1.404.828-1.908.552-.528 1.236-.792 2.052-.792.816 0 1.5.252 2.052.756.552.48.828 1.092.828 1.836 0 .792-.276 1.464-.828 2.016-.528.528-1.212.792-2.052.792zm16.778 22.644c-1.944 0-3.696-.42-5.256-1.26-1.56-.84-2.784-2.004-3.672-3.492-.864-1.512-1.296-3.216-1.296-5.112s.432-3.588 1.296-5.076c.888-1.488 2.112-2.652 3.672-3.492 1.56-.84 3.312-1.26 5.256-1.26 1.968 0 3.732.42 5.292 1.26 1.56.84 2.772 2.004 3.636 3.492.888 1.488 1.332 3.18 1.332 5.076 0 1.896-.444 3.6-1.332 5.112-.864 1.488-2.076 2.652-3.636 3.492-1.56.84-3.324 1.26-5.292 1.26zm0-3.852c1.656 0 3.024-.552 4.104-1.656 1.08-1.104 1.62-2.556 1.62-4.356 0-1.8-.54-3.252-1.62-4.356s-2.448-1.656-4.104-1.656c-1.656 0-3.024.552-4.104 1.656-1.056 1.104-1.584 2.556-1.584 4.356 0 1.8.528 3.252 1.584 4.356 1.08 1.104 2.448 1.656 4.104 1.656zm25.471-15.84c2.424 0 4.368.708 5.832 2.124 1.464 1.416 2.196 3.516 2.196 6.3V431h-4.5v-10.44c0-1.68-.396-2.94-1.188-3.78-.792-.864-1.92-1.296-3.384-1.296-1.656 0-2.964.504-3.924 1.512-.96.984-1.44 2.412-1.44 4.284V431h-4.5v-19.224h4.284v2.484c.744-.888 1.68-1.56 2.808-2.016 1.128-.456 2.4-.684 3.816-.684zm19.677 19.692c-1.56 0-3.084-.204-4.572-.612-1.488-.408-2.676-.924-3.564-1.548l1.728-3.42c.864.576 1.896 1.044 3.096 1.404 1.224.336 2.424.504 3.6.504 2.688 0 4.032-.708 4.032-2.124 0-.672-.348-1.14-1.044-1.404-.672-.264-1.764-.516-3.276-.756-1.584-.24-2.88-.516-3.888-.828a6.156 6.156 0 01-2.592-1.62c-.72-.792-1.08-1.884-1.08-3.276 0-1.824.756-3.276 2.268-4.356 1.536-1.104 3.6-1.656 6.192-1.656 1.32 0 2.64.156 3.96.468 1.32.288 2.4.684 3.24 1.188l-1.728 3.42c-1.632-.96-3.468-1.44-5.508-1.44-1.32 0-2.328.204-3.024.612-.672.384-1.008.9-1.008 1.548 0 .72.36 1.236 1.08 1.548.744.288 1.884.564 3.42.828 1.536.24 2.796.516 3.78.828.984.312 1.824.84 2.52 1.584.72.744 1.08 1.8 1.08 3.168 0 1.8-.78 3.24-2.34 4.32-1.56 1.08-3.684 1.62-6.372 1.62zm40.176-13.14h4.428v10.044c-1.296 1.032-2.808 1.824-4.536 2.376a17.404 17.404 0 01-5.328.828c-2.568 0-4.884-.552-6.948-1.656-2.064-1.128-3.684-2.676-4.86-4.644-1.176-1.968-1.764-4.188-1.764-6.66 0-2.472.588-4.692 1.764-6.66 1.176-1.968 2.796-3.504 4.86-4.608 2.088-1.128 4.428-1.692 7.02-1.692 2.112 0 4.032.348 5.76 1.044 1.728.696 3.18 1.716 4.356 3.06l-2.952 2.88c-1.92-1.92-4.236-2.88-6.948-2.88-1.776 0-3.36.372-4.752 1.116a8.294 8.294 0 00-3.24 3.132c-.768 1.344-1.152 2.88-1.152 4.608 0 1.68.384 3.192 1.152 4.536a8.556 8.556 0 003.24 3.168c1.392.768 2.964 1.152 4.716 1.152 1.968 0 3.696-.432 5.184-1.296v-7.848zm14.453-3.528c1.296-2.016 3.576-3.024 6.84-3.024v4.284a5.713 5.713 0 00-1.044-.108c-1.752 0-3.12.516-4.104 1.548-.984 1.008-1.476 2.472-1.476 4.392V431h-4.5v-19.224h4.284v2.808zm19.121 16.668c-1.944 0-3.696-.42-5.256-1.26-1.56-.84-2.784-2.004-3.672-3.492-.864-1.512-1.296-3.216-1.296-5.112s.432-3.588 1.296-5.076c.888-1.488 2.112-2.652 3.672-3.492 1.56-.84 3.312-1.26 5.256-1.26 1.968 0 3.732.42 5.292 1.26 1.56.84 2.772 2.004 3.636 3.492.888 1.488 1.332 3.18 1.332 5.076 0 1.896-.444 3.6-1.332 5.112-.864 1.488-2.076 2.652-3.636 3.492-1.56.84-3.324 1.26-5.292 1.26zm0-3.852c1.656 0 3.024-.552 4.104-1.656 1.08-1.104 1.62-2.556 1.62-4.356 0-1.8-.54-3.252-1.62-4.356s-2.448-1.656-4.104-1.656c-1.656 0-3.024.552-4.104 1.656-1.056 1.104-1.584 2.556-1.584 4.356 0 1.8.528 3.252 1.584 4.356 1.08 1.104 2.448 1.656 4.104 1.656zm33.176-15.624V431h-4.284v-2.448a7.332 7.332 0 01-2.7 2.016c-1.08.456-2.244.684-3.492.684-2.568 0-4.596-.708-6.084-2.124-1.464-1.44-2.196-3.564-2.196-6.372v-10.98h4.5v10.368c0 1.728.384 3.024 1.152 3.888.792.84 1.908 1.26 3.348 1.26 1.608 0 2.88-.492 3.816-1.476.96-1.008 1.44-2.448 1.44-4.32v-9.72h4.5zm16.548-.216c1.872 0 3.54.408 5.004 1.224a8.795 8.795 0 013.492 3.456c.84 1.488 1.26 3.204 1.26 5.148 0 1.944-.42 3.672-1.26 5.184a8.795 8.795 0 01-3.492 3.456c-1.464.816-3.132 1.224-5.004 1.224-2.592 0-4.644-.864-6.156-2.592v9.324h-4.5v-26.208h4.284v2.52a6.99 6.99 0 012.736-2.052c1.104-.456 2.316-.684 3.636-.684zm-.504 15.84c1.656 0 3.012-.552 4.068-1.656 1.08-1.104 1.62-2.556 1.62-4.356 0-1.8-.54-3.252-1.62-4.356-1.056-1.104-2.412-1.656-4.068-1.656-1.08 0-2.052.252-2.916.756-.864.48-1.548 1.176-2.052 2.088-.504.912-.756 1.968-.756 3.168 0 1.2.252 2.256.756 3.168a5.461 5.461 0 002.052 2.124c.864.48 1.836.72 2.916.72z" fill="#F5F5F5"/><path d="M450.28 448h5.7c1.48 0 2.787.3 3.92.9 1.133.587 2.013 1.413 2.64 2.48.627 1.053.94 2.26.94 3.62 0 1.36-.313 2.573-.94 3.64-.627 1.053-1.507 1.88-2.64 2.48-1.133.587-2.44.88-3.92.88h-5.7v-14zm5.62 12.72c1.227 0 2.3-.24 3.22-.72.92-.493 1.633-1.167 2.14-2.02.507-.867.76-1.86.76-2.98 0-1.12-.253-2.107-.76-2.96a5.215 5.215 0 00-2.14-2.02c-.92-.493-1.993-.74-3.22-.74h-4.14v11.44h4.14zm10.603-9.24h1.42V462h-1.42v-10.52zm.72-2.3c-.293 0-.54-.1-.74-.3-.2-.2-.3-.44-.3-.72 0-.267.1-.5.3-.7.2-.2.447-.3.74-.3.294 0 .54.1.74.3.2.187.3.413.3.68 0 .293-.1.54-.3.74-.2.2-.446.3-.74.3zm14.392 2.3v9.24c0 1.787-.44 3.107-1.32 3.96-.867.867-2.18 1.3-3.94 1.3a8.74 8.74 0 01-2.78-.44c-.867-.28-1.574-.673-2.12-1.18l.72-1.08c.506.453 1.12.807 1.84 1.06.733.253 1.5.38 2.3.38 1.333 0 2.313-.313 2.94-.94.626-.613.94-1.573.94-2.88v-1.34a4.264 4.264 0 01-1.74 1.52c-.707.347-1.494.52-2.36.52-.987 0-1.887-.213-2.7-.64a4.982 4.982 0 01-1.9-1.82c-.454-.787-.68-1.673-.68-2.66 0-.987.226-1.867.68-2.64a4.838 4.838 0 011.9-1.8c.8-.427 1.7-.64 2.7-.64.893 0 1.7.18 2.42.54.72.36 1.3.88 1.74 1.56v-2.02h1.36zm-5.38 8.86c.76 0 1.446-.16 2.06-.48a3.54 3.54 0 001.42-1.38c.346-.587.52-1.253.52-2 0-.747-.174-1.407-.52-1.98a3.412 3.412 0 00-1.42-1.36c-.6-.333-1.287-.5-2.06-.5-.76 0-1.447.16-2.06.48-.6.32-1.074.773-1.42 1.36-.334.587-.5 1.253-.5 2 0 .747.166 1.413.5 2 .346.587.82 1.047 1.42 1.38.613.32 1.3.48 2.06.48zm9.35-8.86h1.42V462h-1.42v-10.52zm.72-2.3c-.293 0-.54-.1-.74-.3-.2-.2-.3-.44-.3-.72 0-.267.1-.5.3-.7.2-.2.447-.3.74-.3.294 0 .54.1.74.3.2.187.3.413.3.68 0 .293-.1.54-.3.74-.2.2-.446.3-.74.3zm10.192 12.18c-.267.24-.6.427-1 .56-.387.12-.794.18-1.22.18-.987 0-1.747-.267-2.28-.8-.534-.533-.8-1.287-.8-2.26v-6.36h-1.88v-1.2h1.88v-2.3h1.42v2.3h3.2v1.2h-3.2v6.28c0 .627.153 1.107.46 1.44.32.32.773.48 1.36.48.293 0 .573-.047.84-.14.28-.093.52-.227.72-.4l.5 1.02zm6.265-9.96c1.373 0 2.426.347 3.16 1.04.733.68 1.1 1.693 1.1 3.04V462h-1.36v-1.64c-.32.547-.794.973-1.42 1.28-.614.307-1.347.46-2.2.46-1.174 0-2.107-.28-2.8-.84-.694-.56-1.04-1.3-1.04-2.22 0-.893.32-1.613.96-2.16.653-.547 1.686-.82 3.1-.82h3.34v-.64c0-.907-.254-1.593-.76-2.06-.507-.48-1.247-.72-2.22-.72-.667 0-1.307.113-1.92.34a4.685 4.685 0 00-1.58.9l-.64-1.06c.533-.453 1.173-.8 1.92-1.04a7.3 7.3 0 012.36-.38zm-.5 9.58c.8 0 1.486-.18 2.06-.54.573-.373 1-.907 1.28-1.6v-1.72h-3.3c-1.8 0-2.7.627-2.7 1.88 0 .613.233 1.1.7 1.46.466.347 1.12.52 1.96.52zm8.616-13.82h1.42V462h-1.42v-14.84zm14.286 4.24c1.373 0 2.427.347 3.16 1.04.733.68 1.1 1.693 1.1 3.04V462h-1.36v-1.64c-.32.547-.793.973-1.42 1.28-.613.307-1.347.46-2.2.46-1.173 0-2.107-.28-2.8-.84-.693-.56-1.04-1.3-1.04-2.22 0-.893.32-1.613.96-2.16.653-.547 1.687-.82 3.1-.82h3.34v-.64c0-.907-.253-1.593-.76-2.06-.507-.48-1.247-.72-2.22-.72-.667 0-1.307.113-1.92.34a4.695 4.695 0 00-1.58.9l-.64-1.06c.533-.453 1.173-.8 1.92-1.04a7.304 7.304 0 012.36-.38zm-.5 9.58c.8 0 1.487-.18 2.06-.54.573-.373 1-.907 1.28-1.6v-1.72h-3.3c-1.8 0-2.7.627-2.7 1.88 0 .613.233 1.1.7 1.46.467.347 1.12.52 1.96.52zm18.396-9.5v9.24c0 1.787-.44 3.107-1.32 3.96-.867.867-2.18 1.3-3.94 1.3-.973 0-1.9-.147-2.78-.44-.867-.28-1.573-.673-2.12-1.18l.72-1.08c.507.453 1.12.807 1.84 1.06.733.253 1.5.38 2.3.38 1.333 0 2.313-.313 2.94-.94.627-.613.94-1.573.94-2.88v-1.34a4.264 4.264 0 01-1.74 1.52c-.707.347-1.493.52-2.36.52-.987 0-1.887-.213-2.7-.64a4.99 4.99 0 01-1.9-1.82c-.453-.787-.68-1.673-.68-2.66 0-.987.227-1.867.68-2.64a4.845 4.845 0 011.9-1.8c.8-.427 1.7-.64 2.7-.64.893 0 1.7.18 2.42.54.72.36 1.3.88 1.74 1.56v-2.02h1.36zm-5.38 8.86c.76 0 1.447-.16 2.06-.48a3.534 3.534 0 001.42-1.38c.347-.587.52-1.253.52-2 0-.747-.173-1.407-.52-1.98a3.407 3.407 0 00-1.42-1.36c-.6-.333-1.287-.5-2.06-.5-.76 0-1.447.16-2.06.48-.6.32-1.073.773-1.42 1.36-.333.587-.5 1.253-.5 2 0 .747.167 1.413.5 2 .347.587.82 1.047 1.42 1.38.613.32 1.3.48 2.06.48zm18.511-3.16h-8.8c.08 1.093.5 1.98 1.26 2.66.76.667 1.72 1 2.88 1a4.65 4.65 0 001.8-.34 4.05 4.05 0 001.42-1.04l.8.92a4.494 4.494 0 01-1.76 1.28c-.694.293-1.46.44-2.3.44-1.08 0-2.04-.227-2.88-.68a5.062 5.062 0 01-1.94-1.92c-.467-.813-.7-1.733-.7-2.76 0-1.027.22-1.947.66-2.76a4.937 4.937 0 011.84-1.9c.786-.453 1.666-.68 2.64-.68.973 0 1.846.227 2.62.68a4.805 4.805 0 011.82 1.9c.44.8.66 1.72.66 2.76l-.02.44zm-5.08-4.56c-1.014 0-1.867.327-2.56.98-.68.64-1.067 1.48-1.16 2.52h7.46c-.094-1.04-.487-1.88-1.18-2.52-.68-.653-1.534-.98-2.56-.98zm13.35-1.22c1.32 0 2.367.387 3.14 1.16.787.76 1.18 1.873 1.18 3.34v6.1h-1.42v-5.96c0-1.093-.273-1.927-.82-2.5-.547-.573-1.327-.86-2.34-.86-1.133 0-2.033.34-2.7 1.02-.653.667-.98 1.593-.98 2.78V462h-1.42v-10.52h1.36v1.94c.387-.64.92-1.133 1.6-1.48.693-.36 1.493-.54 2.4-.54zm12.574 10.7c-1.04 0-1.973-.227-2.8-.68a4.965 4.965 0 01-1.92-1.9c-.466-.827-.7-1.753-.7-2.78s.234-1.947.7-2.76a4.965 4.965 0 011.92-1.9c.827-.453 1.76-.68 2.8-.68.907 0 1.714.18 2.42.54.72.347 1.287.86 1.7 1.54l-1.06.72a3.23 3.23 0 00-1.32-1.16 3.83 3.83 0 00-1.74-.4c-.76 0-1.446.173-2.06.52-.6.333-1.073.813-1.42 1.44-.333.627-.5 1.34-.5 2.14 0 .813.167 1.533.5 2.16.347.613.82 1.093 1.42 1.44.614.333 1.3.5 2.06.5.627 0 1.207-.127 1.74-.38a3.23 3.23 0 001.32-1.16l1.06.72c-.413.68-.98 1.2-1.7 1.56-.72.347-1.526.52-2.42.52zm15.594-10.62l-5.26 11.78c-.427.987-.92 1.687-1.48 2.1-.56.413-1.234.62-2.02.62-.507 0-.98-.08-1.42-.24-.44-.16-.82-.4-1.14-.72l.66-1.06c.533.533 1.173.8 1.92.8.48 0 .886-.133 1.22-.4.346-.267.666-.72.96-1.36l.46-1.02-4.7-10.5h1.48l3.96 8.94 3.96-8.94h1.4z" fill="#B48728"/><mask id="a" maskUnits="userSpaceOnUse" x="21" y="28" width="543" height="571"><path d="M160.856 215.35l402.455 10.062L284.7 598.408 160.856 215.35z" fill="#C4C4C4"/></mask><g mask="url(#a)"><path stroke="#F5F5F5" stroke-width="25" d="M267.572 303.829h180.193v178.919H267.572z"/></g></svg>