<svg width="830" height="501" fill="none" xmlns="http://www.w3.org/2000/svg"><g clip-path="url(#clip0)"><path opacity=".6" d="M678.286 334.237V145.448h-9.177v-19.109h-71.002v19.109h-9.122v237.35h-66.633v-107.49h-97.038v141.051h-46.883V163.694h-95.587v194.118h-11.217V242.267h-17.285l-48.211-23.602v23.602h-10.547v142.709h-23.42V191.707h-23.668v-67.793h-3.246v67.793h-23.667v298.622h616.515V334.237h-59.812zm-511.834-18.342h-39.048v-4.205h39.048v4.205zm0-9.725h-39.048v-4.206h39.048v4.206zm0-9.726h-39.048v-4.205h39.048v4.205zm0-9.726h-39.048v-4.205h39.048v4.205zm0-9.712h-39.048v-4.205h39.048v4.205zm0-9.739h-39.048v-4.206h39.048v4.206zm0-9.712h-39.048v-4.206h39.048v4.206zm0-9.726h-39.048v-4.206h39.048v4.206zm0-9.726h-39.048v-4.205h39.048v4.205zm0-9.712h-39.048v-4.205h39.048v4.205zm0-9.726h-39.048v-4.205h39.048v4.205zm0-9.725h-39.048v-4.206h39.048v4.206zm0-9.726h-39.048v-4.206h39.048v4.206zm136.964 57.875h-11.628v-10.767h11.628v10.767zm0-17.959h-11.628v-10.78h11.628v10.78zm0-17.958h-11.628v-10.767h11.628v10.767zm0-17.958h-11.628v-10.781h11.628v10.781zm0-17.972h-11.628v-10.781h11.628v10.781zm22.079 71.847H313.88v-10.767h11.615v10.767zm0-17.959H313.88v-10.78h11.615v10.78zm0-17.958H313.88v-10.767h11.615v10.767zm0-17.958H313.88v-10.781h11.615v10.781zm0-17.972H313.88v-10.781h11.615v10.781zm22.105 71.847h-11.628v-10.767H347.6v10.767zm0-17.959h-11.628v-10.78H347.6v10.78zm0-17.958h-11.628v-10.767H347.6v10.767zm0-17.958h-11.628v-10.781H347.6v10.781zm0-17.972h-11.628v-10.781H347.6v10.781zm22.079 71.847h-11.615v-10.767h11.615v10.767zm0-17.959h-11.615v-10.78h11.615v10.78zm0-17.958h-11.615v-10.767h11.615v10.767zm0-17.958h-11.615v-10.781h11.615v10.781zm317.756 219.884h-12.08v-11.205h12.08v11.205zm0-22.424h-12.08v-11.205h12.08v11.205zm0-22.438h-12.08v-11.205h12.08v11.205zm0-22.424h-12.08v-11.205h12.08v11.205zm22.421 67.286h-12.08v-11.205h12.08v11.205zm0-22.424h-12.08v-11.205h12.08v11.205zm0-22.438h-12.08v-11.205h12.08v11.205zm0-22.424h-12.08v-11.205h12.08v11.205zm22.421 67.286h-12.094v-11.205h12.094v11.205zm0-22.424h-12.094v-11.205h12.094v11.205zm0-22.438h-12.094v-11.205h12.094v11.205zm0-22.424h-12.094v-11.205h12.094v11.205z" fill="#E8EAEF"/><path d="M392.771 193.913v-83.532l-61.127 61.916v102.97h-39.377V127.709h-10.012l-28.53-24.698-28.666 24.698h-9.848V326.84H70.317v163.489h417.945V193.913h-95.491zm-110.53 52.943h-57.018v-5.397h57.018v5.397zm0-10.766h-57.018v-5.398h57.018v5.398zm0-10.781h-57.018v-5.383h57.018v5.383zm0-10.767h-57.018v-5.383h57.018v5.383zm0-10.767h-57.018v-5.397h57.018v5.397zm0-10.766h-57.018v-5.398h57.018v5.398zm0-10.781h-57.018v-5.383h57.018v5.383zm0-10.767h-57.018v-5.383h57.018v5.383zm0-10.78h-57.018v-5.384h57.018v5.384zm0-10.753h-57.018v-5.398h57.018v5.398zm0-10.781h-57.018v-5.383h57.018v5.383zm102.778 262.404h-5.917V136.448l5.917-6.013v271.116zM713.882 246.856h-57.004v-5.397h57.018v5.397h-.014zm0-10.767h-57.004v-5.397h57.018v5.397h-.014zm0-10.78h-57.004v-5.384h57.018v5.384h-.014zm0-10.767h-57.004v-5.383h57.018v5.383h-.014zm0-10.767h-57.004v-5.397h57.018v5.397h-.014zm0-10.767h-57.004v-5.397h57.018v5.397h-.014zm0-10.78h-57.004v-5.384h57.018v5.384h-.014zm0-10.767h-57.004v-5.383h57.018v5.383h-.014zm0-10.78h-57.004v-5.384h57.018v5.384h-.014zm0-10.754h-57.004v-5.397h57.018v5.397h-.014zm0-10.78h-57.004v-5.384h57.018v5.384h-.014zm10.026 136.133V127.709h-10.026l-28.502-24.698-28.667 24.698h-9.861V326.84H501.958v162.325h259.094V275.28h-37.144z" fill="#E8EAEF"/><path opacity=".75" d="M440.16 315.895h-39.062v-4.191h39.062v4.191zm0-9.725h-39.062v-4.192h39.062v4.192zm0-9.726h-39.062v-4.192h39.062v4.192zm0-9.726h-39.062v-4.191h39.062v4.191zm0-9.712h-39.062v-4.192h39.062v4.192zm0-9.726h-39.062v-4.191h39.062v4.191zm0-9.725h-39.062v-4.192h39.062v4.192zm0-9.712h-39.062v-4.192h39.062v4.192zm0-9.74h-39.062v-4.192h39.062v4.192zm0-9.712h-39.062v-4.192h39.062v4.192zm0-9.726h-39.062v-4.191h39.062v4.191zm0-9.725h-39.062v-4.192h39.062v4.192zm0-9.726h-39.062v-4.206h39.062v4.206zm136.95 57.875h-11.628v-10.781h11.628v10.781zm0-17.959h-11.628v-10.78h11.628v10.78zm0-17.958h-11.628v-10.78h11.628v10.78zm0-17.958h-11.628v-10.781h11.628v10.781zm0-17.959h-11.628v-10.794h11.628v10.794zm22.079 71.834h-11.615v-10.781h11.615v10.781zm0-17.959h-11.615v-10.78h11.615v10.78zm0-17.958h-11.615v-10.78h11.615v10.78zm0-17.958h-11.615v-10.781h11.615v10.781zm0-17.959h-11.615v-10.794h11.615v10.794zm22.106 71.834h-11.642v-10.781h11.642v10.781zm0-17.959h-11.642v-10.78h11.642v10.78zm0-17.958h-11.642v-10.78h11.642v10.78zm0-17.958h-11.642v-10.781h11.642v10.781zm0-17.959h-11.642v-10.794h11.642v10.794zm22.092 71.834h-11.614v-10.781h11.614v10.781zm0-17.959h-11.614v-10.78h11.614v10.78zm0-17.958h-11.614v-10.78h11.614v10.78zm0-17.958h-11.614v-10.781h11.614v10.781zm55.607 72.094v141.051h-46.896V163.708h-95.573v194.104h-11.218V242.267h-17.298l-48.198-23.602v23.602h-10.546v142.695h-23.407V191.707h-23.681v-67.793h-3.219v67.793h-23.681v297.458h365.776V275.308h-62.059z" fill="#E8EAEF"/><path d="M265.586 87.12l6.424 3.425-3.205-8.356" fill="#296BEF"/><path d="M272.267 78.611c1.206-7.407-3.82-14.39-11.226-15.596-7.407-1.206-14.388 3.822-15.594 11.229-1.206 7.407 3.821 14.39 11.227 15.596 7.406 1.206 14.388-3.822 15.593-11.229z" fill="#296BEF"/><path d="M264.586 72.71a3.3 3.3 0 00-4.685.055l-.849.863-.863-.863a3.314 3.314 0 00-4.697.041 3.315 3.315 0 00.041 4.699l3.232 3.178c.014.013.014.013.014.027.52.507 1.15.808 1.808.904a3.326 3.326 0 002.876-.959l3.177-3.246a3.329 3.329 0 00-.054-4.699z" fill="#FFBC47"/><path d="M495.987 20.74l-5.548 2.862 2.849-7.123" fill="#296BEF"/><path d="M513.203 11.794c-.082 6.438-5.369 11.575-11.793 11.493-6.437-.082-11.573-5.37-11.491-11.794.082-6.438 5.369-11.575 11.792-11.493 6.424.082 11.574 5.37 11.492 11.794z" fill="#296BEF"/><path d="M499.397 17.191c2.533.082 5.108.151 7.437.014.739-.041 1.397-1.205.506-1.589.384-.192.767-.37.932-.794.164-.398-.014-.946-.439-1.055.877.233 1.247-1.165.562-1.617.37-.301.671-.712.753-1.178.082-.465-.109-1-.52-1.233-.274-.15-.603-.164-.918-.164-1.054-.027-2.109-.041-3.164-.068.302-1.644.411-3.452-.397-4.904-.246-.439-.918-.973-1.465-.644-.507.315-.384 1.096-.356 1.589.082 2.055-1.124 4.11-2.945 5.054.014-.013.068 4.357.014 6.59zM498.556 10.556l-3.834-.05-.086 6.602 3.835.05.085-6.602z" fill="#FFBC47"/><path d="M265.627 186.735a2.674 2.674 0 01-2.671 2.671 2.675 2.675 0 01-2.671-2.671 2.675 2.675 0 012.671-2.672c1.479-.013 2.671 1.192 2.671 2.672zM243.795 11.643a2.675 2.675 0 01-2.671 2.672 2.675 2.675 0 01-2.671-2.671 2.674 2.674 0 012.671-2.672 2.675 2.675 0 012.671 2.671z" stroke="#296BEF" stroke-miterlimit="10"/><path d="M390.14 20.04a2.674 2.674 0 01-2.67 2.672 2.683 2.683 0 01-2.671-2.671 2.674 2.674 0 012.671-2.672 2.674 2.674 0 012.67 2.672zM129.526 98.23c0 1.48-1.205 2.671-2.671 2.671a2.674 2.674 0 01-2.67-2.67 2.674 2.674 0 012.67-2.672 2.674 2.674 0 012.671 2.671zM776.802 184.776a2.674 2.674 0 01-2.67 2.671 2.675 2.675 0 01-2.671-2.671 2.683 2.683 0 012.671-2.671 2.665 2.665 0 012.67 2.671z" fill="#296BEF"/><path d="M580.52 89.039a2.671 2.671 0 100-5.343 2.671 2.671 0 000 5.343z" stroke="#296BEF" stroke-miterlimit="10"/><path d="M213.251 401.003a.701.701 0 01-.698-.699v-4.918c0-.383.315-.698.698-.698.384 0 .699.315.699.698v4.918a.702.702 0 01-.699.699z" fill="#296BEF"/><path d="M215.703 398.537h-4.917a.701.701 0 01-.698-.699c0-.383.315-.698.698-.698h4.917c.384 0 .699.315.699.698a.693.693 0 01-.699.699zM85.752 234.144a.701.701 0 01-.698-.698v-4.918c0-.384.315-.699.698-.699.384 0 .699.315.699.699v4.918a.701.701 0 01-.699.698z" fill="#296BEF"/><path d="M88.218 231.679h-4.917a.702.702 0 01-.698-.699c0-.384.315-.699.698-.699h4.917c.383 0 .698.315.698.699a.702.702 0 01-.698.699zM680.435 40.93a.702.702 0 01-.699-.698v-4.918c0-.383.315-.699.699-.699.383 0 .698.316.698.7v4.917a.693.693 0 01-.698.698z" fill="#296BEF"/><path d="M682.901 38.478h-4.917a.702.702 0 01-.699-.698c0-.384.315-.699.699-.699h4.917c.383 0 .698.315.698.699a.701.701 0 01-.698.698zM672.135 211.145a.7.7 0 01-.698-.699v-4.917a.7.7 0 01.698-.699c.383 0 .698.315.698.699v4.917a.71.71 0 01-.698.699z" fill="#296BEF"/><path d="M674.587 208.679h-4.917a.701.701 0 01-.698-.698c0-.384.315-.699.698-.699h4.917c.384 0 .699.315.699.699a.701.701 0 01-.699.698z" fill="#296BEF"/><path d="M830 489.165H0" stroke="#E8EAEF" stroke-miterlimit="10"/><path d="M694.872 444.289l6.396 43.752c.699 4.74 4.684 8.302 9.464 8.425 4.356.123 10.752.219 19.997.219 9.574 0 16.244-.109 20.75-.233 4.794-.137 8.793-3.685 9.478-8.424l6.396-43.739h-72.481z" fill="#A4D6FB"/><path d="M731.126 472.467c13.34 0 25.201-1.685 32.748-4.288l3.383-23.136h-72.276l3.383 23.136c7.547 2.616 19.408 4.288 32.762 4.288z" fill="#A4D6FB"/><path d="M772.407 456.22c0 6.055-18.49 10.959-41.294 10.959-22.805 0-41.295-4.904-41.295-10.959l-1.986-16.465h86.561l-1.986 16.465z" fill="#78C1F4"/><path d="M774.393 439.755c0 6.342-19.38 11.493-43.28 11.493-23.901 0-43.281-5.137-43.281-11.493 0-6.342 19.38-11.493 43.281-11.493 23.913.014 43.28 5.151 43.28 11.493z" fill="#A4D6FB"/><path d="M731.127 448.207c21.369 0 38.692-3.876 38.692-8.657 0-4.782-17.323-8.658-38.692-8.658s-38.692 3.876-38.692 8.658c0 4.781 17.323 8.657 38.692 8.657z" fill="#2F36AD"/><path opacity=".5" d="M694.188 442.139c4.93-3.521 19.599-6.069 36.925-6.069 17.326 0 31.995 2.548 36.925 6.069 1.151-.822 1.767-1.685 1.767-2.589 0-4.781-17.326-8.658-38.692-8.658s-38.692 3.877-38.692 8.658c0 .904.616 1.767 1.767 2.589z" fill="#2F36AD"/><path d="M761.601 370.784c2.794-10.054-.603-17.985-4.287-26.958-3.684-8.972-4.314-18.479-2.89-27.917 1.89-12.808 6.136-25.164 1.233-37.574-4.589-11.712-9.026-27.164-21.695-32.095-12.313-5.26-21.641 6.89-21.435 18.082.205 11.191 6.56 21.287 3.383 32.341-2.411 9.055-5.575 19.767-.849 28.438 5.656 10.739 16.175 18.301 12.244 31.355-1.547 4.685-4.095 8.644-4.629 13.369-.63 7.096 2.945 8.836 6.177 14.493 13.559 23.835-11.286 33.451-1.534 59.642.274.74.986 1.22 1.767 1.178a1.76 1.76 0 001.671-1.547c3.109-29.287 23.968-19.192 24.187-42.917.042-4.411-1.328-8.863-.794-13.26.603-6.753 5.835-10.26 7.451-16.63z" fill="#FFBC47"/><path d="M749.507 399.838a.58.58 0 00-.575.576c0 .589-.219 14.219-13.97 16.328 1.082-1.918 2.218-3.726 3.355-5.52 2.562-4.055 4.986-7.891 6.396-12.589 3.835-12.767 3.342-23.643 1.041-33.835 9.684-4.78 7.013-21.095 6.89-21.794-.055-.315-.356-.507-.671-.465a.576.576 0 00-.466.671c.027.164 2.63 15.89-6.027 20.465-1.26-5.233-2.958-10.287-4.793-15.328-3.931-10.822-1.986-24.972-.699-34.328.055-.411.11-.795.165-1.178 12.135-2.699 12.888-18.219 12.888-18.37a.578.578 0 00-.548-.602h-.027a.583.583 0 00-.576.548c0 .15-.712 14.41-11.573 17.177.178-1.383.329-2.616.425-3.685.438-6.15.534-11.753.301-16.835v-.109c-.658-13.89-3.835-23.767-9.533-29.397a.596.596 0 00-.822 0 .596.596 0 000 .822c5.383 5.329 8.437 14.671 9.15 27.821-8.095-3.15-9.259-17.355-9.273-17.492-.027-.315-.26-.562-.616-.535a.58.58 0 00-.534.617c.054.644 1.273 15.629 10.491 18.671.205 4.931.11 10.383-.329 16.342-.137 1.616-.411 3.671-.739 6.04-.726 5.315-1.671 12.165-1.644 19.11-11.272-4.261-12.094-18.068-12.107-18.205a.583.583 0 00-.576-.548h-.027a.578.578 0 00-.548.602c.014.151.863 15.068 13.286 19.397.109 5.014.739 10.041 2.369 14.52 5.054 13.904 9.19 27.89 5.109 45.369-9.026-1.726-10.245-14.37-10.259-14.493-.027-.315-.287-.52-.63-.52a.573.573 0 00-.52.63c.013.137 1.301 13.575 11.135 15.506-.26 1.014-.521 2.041-.836 3.082-1.369 4.548-3.752 8.315-6.273 12.301-1.342 2.11-2.711 4.301-3.985 6.699 0 .013-.014.013-.014.027-3.492 6.575-6.177 14.739-4.821 27.314a.59.59 0 00.575.521h.069a.56.56 0 00.506-.63c-1.314-12.26 1.165-20.041 4.603-26.506 15.613-1.795 15.819-17.452 15.819-17.616a.551.551 0 00-.562-.576z" fill="#FFBC47"/><path opacity=".2" d="M754.904 399.332c.027.438.027.89.027 1.328-.137 15.575-9.19 16.575-16.257 23.698.835-4.15 1.027-9.301 3.794-12.684 3.054-3.384 7.108-4.069 10.162-8.123 1.096-1.521 1.822-2.918 2.274-4.219zm2.411-55.519c-3.685-8.973-4.315-18.479-2.89-27.918.137-.931.287-1.849.452-2.78-4.849 1.863-8.67 5.424-10.971 10.314-6.862 14.548-1.452 24.411 4.437 35.41 4.808 8.987 1.699 17.274 2.712 26.753.425 3.959 2.151 7.041 3.493 10-.343-2.74-.74-5.479-.411-8.192.616-6.753 5.848-10.26 7.478-16.629 2.781-10.041-.616-17.986-4.3-26.958zm-25.585 76.189c-.959-2.055-2.109-4.287-2.301-6.534-3.096 8.11-6.533 16.507-2.849 28.356a.244.244 0 01.027.095c.206.672.439 1.343.699 2.041.055.137.123.261.192.37.013.014.027.041.041.055.082.11.178.219.287.301l.014.014a1.742 1.742 0 002.15.082c.534-.397.658-.835.713-1.123 0-.041.013-.068.027-.109.466-4.357 1.315-7.836 2.438-10.699-.644.411-1.301.808-1.945 1.219 2.096-4.726 3.547-7.534.507-14.068z" fill="#000"/><path d="M793.499 365.565c-6.095-11.177-6.081-18.561-5.423-30.478.671-12.192-3.055-28.452-17.943-31.164-11.176-2.027-20.27 2.507-24.42 11.315-6.862 14.548-1.452 24.41 4.437 35.41 4.808 8.986 1.699 17.273 2.712 26.753 1.014 9.479 9.478 13.89 2.37 23.711-3.055 4.069-7.109 4.74-10.163 8.123-3.054 3.726-2.986 9.562-4.068 13.89-2.725 10.918-13.422 9.37-13.861 20.438-.027.822.63 1.644 1.219 1.617.576-.028 1.041.082 1.452-.658 2.507-4.452 6.643-3.767 11.286-5.822 3.438-1.52 4.506-5.78 12.779-6.767 10.806-1.301 20.654 5.754 26.078-8.808 2.027-5.082 1.356-9.479 2.369-14.561 1.014-6.767 5.424-10.835 9.82-15.575 7.794-8.794 6.78-17.602 1.356-27.424z" fill="#6774FF"/><path d="M772.065 344.812h-.054c-10.122-.862-17.189-13.191-17.491-13.725a.58.58 0 01.219-.781.578.578 0 01.781.219c.069.123 7.067 12.329 16.586 13.137a.568.568 0 01.521.616.568.568 0 01-.562.534zM769.161 397.838a.537.537 0 01-.315-.095c-7.41-4.932-6.958-27.013-6.944-27.959.014-.315.26-.575.589-.561a.58.58 0 01.562.589c0 .219-.466 22.383 6.423 26.958.26.178.343.534.165.795a.557.557 0 01-.48.273zM772.956 378.086a.596.596 0 01-.562-.425.585.585 0 01.397-.712c11.669-3.274 12.601-22.178 12.615-22.356a.57.57 0 01.602-.548.58.58 0 01.548.603c-.041.808-.986 19.931-13.45 23.424-.041.014-.096.014-.15.014zM755.849 426.988c-1.219 0-2.507-.109-3.863-.342a.576.576 0 01-.465-.671c.054-.315.328-.521.671-.466 17.052 2.918 23.242-15.123 23.311-15.315a.58.58 0 01.726-.37.58.58 0 01.37.726c-.069.192-5.657 16.438-20.75 16.438zM770.928 335.826a.585.585 0 01-.425-.191.568.568 0 01.042-.809c7.3-6.684 2.451-21.054 2.396-21.191a.592.592 0 01.356-.739.586.586 0 01.74.356c.219.616 5.15 15.232-2.712 22.424a.65.65 0 01-.397.15z" fill="#6774FF"/><path d="M728.483 444.714c-.055 0-.096 0-.151-.014a.587.587 0 01-.411-.712c1.329-4.89 6.999-7.384 10.752-9.041 1.137-.507 2.123-.932 2.698-1.315 30.475-19.821 38.802-57.492 25.421-115.161a.57.57 0 011.109-.261c13.491 58.204 5.013 96.272-25.927 116.395-.658.424-1.685.876-2.863 1.397-3.547 1.561-8.916 3.917-10.108 8.287-.027.26-.26.425-.52.425z" fill="#6774FF"/><path opacity=".75" d="M727.154 443.577c-.027.822.63 1.644 1.219 1.616h.082c1.822-1.37-.479-3.328 2.274-9.794-1.945 1.877-3.424 4.219-3.575 8.178z" fill="#15CCBE"/><path d="M729.195 416.769c-3.355-7.219-.192-16.506-3.493-21.766-4.04-6.589-10.806-1.575-18.654-10.63-6.588-7.602-1.849-18.123-16.846-25.972-4.575-2.397-9.889-1.219-11.67 3.959-2.136 4.849 1.247 11.808 2.822 16.479 1.534 3.972 3.369 6.931 2.588 11.328-.013.041-.013.096-.027.137-.863 3.384-3.109 5.192-1.918 9.178 2.507 9.712 16.258 8.836 23.202 14.89 4.89 4.274.479 9.37 5.273 15.835 4.753 6.398 7.177-.561 15.737 14.589.302.548 1 .74 1.548.425.383-.219.603-.63.562-1.069-1.233-16.397 5.821-16.766.876-27.383z" fill="#FF9422"/><path d="M722.593 428.605c-1.041-1.658-1.986-3.192-2.548-4.973 5.301-4.397 2.356-14.862 2.219-15.328a.59.59 0 00-.712-.397.591.591 0 00-.397.712c.027.096 2.712 9.602-1.438 13.739a12.404 12.404 0 01-.206-2.643c.055-1.973.055-3.891-.123-5.74 0-.027.014-.041.014-.068 0-.042-.014-.069-.028-.11-.356-3.315-1.328-6.397-3.766-9.164 3.547-4.507-1.425-12.89-1.644-13.26a.577.577 0 10-.986.603c.055.082 4.671 7.876 1.835 11.821-1.082-1.055-2.383-2.068-3.985-3.027-5.397-3.233-9.588-6.534-12.861-10.37 3.534-4.616-.699-15.26-.89-15.739a.581.581 0 00-.754-.315.58.58 0 00-.315.753c.041.11 4.041 10.151 1.219 14.37-4.972-6.233-7.724-13.904-9.409-24.904a.552.552 0 00-.658-.479.572.572 0 00-.479.657c.836 5.411 1.918 10.014 3.383 14.069-5.602-2.562-6.355-8.644-6.382-8.918-.028-.315-.329-.534-.63-.507a.569.569 0 00-.507.63c.013.082.931 7.712 8.067 10.233 1.589 4 3.602 7.438 6.177 10.52.014.028.014.055.041.082.014.014.027.014.041.014 1.479 1.767 3.15 3.411 5.027 5-7.917 2.219-14.313-4.973-14.381-5.041a.569.569 0 00-.809-.055.58.58 0 00-.054.808c.068.069 5.204 5.891 12.176 5.891a12.7 12.7 0 004.136-.713c2.164 1.726 4.575 3.37 7.3 5 5.479 3.274 7.369 7.137 7.944 11.63-10.669.384-14.477-5.74-14.641-6a.594.594 0 00-.795-.205.58.58 0 00-.205.78c.164.288 4.04 6.603 14.641 6.603.356 0 .74-.014 1.11-.027.137 1.63.123 3.342.068 5.136-.123 4.124 1.438 6.617 3.246 9.521.26.411.521.835.781 1.26-9.711-1.849-10.848-7.726-10.902-7.986-.055-.315-.343-.548-.658-.466a.584.584 0 00-.479.658c.055.301 1.328 7.342 12.792 9.109 1.671 2.986 3.164 6.753 3.356 12.959.014.315.26.561.575.561h.014a.587.587 0 00.561-.589c-.274-8.397-2.944-12.671-5.081-16.095z" fill="#FF9422"/><path d="M149.333 400.619c-.11-.233-5.205-1.027-5.643-.397-.438.63.438 1.945.836 2.548.397.603 2.424 1.15 3.136.74.726-.425 2.287-1.494 1.671-2.891z" fill="#6774FF"/><path d="M154.359 396.222c-.287.384-.37.89-.219 1.342l2.356 6.945c.383 1.151-.712 2.247-1.863 1.85l-6.93-2.356a1.42 1.42 0 00-1.342.205l-5.876 4.37c-.973.726-2.356.027-2.342-1.192l.055-3.493.054-3.822c0-.493-.233-.945-.616-1.219l-5.985-4.233c-.986-.698-.74-2.232.424-2.589l6.985-2.178c.466-.137.822-.493.973-.959l1.068-3.41 1.11-3.576c.356-1.164 1.89-1.397 2.588-.411l4.232 5.987c.274.397.726.63 1.206.616l7.327-.082c1.205-.014 1.904 1.37 1.178 2.342l-4.383 5.863z" fill="#FEC752"/><path d="M113.873 384.305c-.11-.233-5.205-1.028-5.643-.398-.438.63.438 1.945.836 2.548.397.603 2.424 1.151 3.136.74.712-.425 2.274-1.493 1.671-2.89z" fill="#6774FF"/><path d="M118.886 379.907c-.288.384-.37.891-.206 1.343l2.342 6.945c.384 1.151-.712 2.233-1.862 1.849l-2.178-.74-4.753-1.616a1.43 1.43 0 00-1.342.206l-5.876 4.369c-.972.726-2.356.028-2.342-1.192l.11-7.328c0-.479-.233-.932-.617-1.205l-5.985-4.233c-.986-.713-.74-2.233.425-2.603l6.971-2.164h.014a1.45 1.45 0 00.972-.959l2.178-6.986c.37-1.165 1.89-1.397 2.589-.411l4.232 5.986c.274.397.726.63 1.205.616l7.328-.082c1.205-.014 1.917 1.37 1.191 2.343l-4.396 5.862z" fill="#FEC752"/><path d="M85.945 398.304c-.11-.233-5.204-1.027-5.643-.397-.438.63.439 1.945.836 2.548.397.603 2.424 1.15 3.136.74.713-.425 2.288-1.494 1.671-2.891z" fill="#6774FF"/><path d="M86.466 391.154c-.288.383-.37.89-.22 1.342l2.343 6.945c.397 1.151-.713 2.247-1.85 1.849l-1.794-.602-5.15-1.754a1.43 1.43 0 00-1.342.206l-5.875 4.383c-.973.713-2.342.014-2.329-1.205l.096-7.315a1.44 1.44 0 00-.616-1.219l-5.972-4.233c-.986-.699-.74-2.233.411-2.589l6.999-2.164c.466-.151.822-.507.959-.973l2.191-6.986c.356-1.164 1.89-1.397 2.589-.411l4.218 5.986c.274.397.726.63 1.206.617h.013l7.314-.083c1.219-.013 1.918 1.37 1.192 2.343l-4.383 5.863z" fill="#FEC752"/><path d="M136.402 401.866l8.821 1.055-7.355-8.069" fill="#fff"/><path opacity=".2" d="M138.197 403.893l.054-3.822c0-.493-.232-.945-.616-1.219l-5.985-4.233c-.986-.698-.74-2.232.424-2.589l6.985-2.178c.466-.137.822-.493.973-.959l1.068-3.41c.165.342.315.698.452 1.054 2.397 6.137.877 12.849-3.355 17.356z" fill="#020202"/><path opacity=".2" d="M106.969 398.771c3.328 8.52 12.93 12.739 21.449 9.41 8.519-3.328 12.737-12.931 9.409-21.451-3.328-8.52-12.929-12.739-21.448-9.411-8.533 3.329-12.738 12.931-9.41 21.452z" fill="#020202"/><path d="M109.023 398.578c3.328 8.52 12.93 12.74 21.449 9.411 8.519-3.329 12.737-12.931 9.409-21.452-3.328-8.52-12.929-12.739-21.448-9.41-8.52 3.328-12.738 12.931-9.41 21.451z" fill="#fff"/><path d="M130.088 398.866c-3.342 1.37-6.725 2.739-9.902 3.739-1 .315-2.452-.917-1.466-1.863-.602-.054-1.205-.109-1.643-.589-.411-.452-.452-1.273.055-1.616-1.055.74-2.233-.931-1.562-1.877-.644-.219-1.26-.602-1.602-1.191-.343-.589-.37-1.384.068-1.904.288-.343.712-.521 1.137-.685 1.397-.562 2.794-1.11 4.177-1.672-1.232-2.041-2.273-4.383-1.917-6.739.109-.712.739-1.753 1.63-1.589.835.151 1.054 1.26 1.274 1.931.917 2.781 3.533 4.904 6.437 5.261.027 0 2.123 5.849 3.314 8.794zM131.306 398.397l5.079-1.981-3.41-8.741-5.078 1.981 3.409 8.741z" fill="#296BEF"/><path d="M91.547 403.112l-7.67 4.48 3.534-10.329" fill="#fff"/><path opacity=".2" d="M116.981 389.181v.123l-4.753-1.616a1.43 1.43 0 00-1.342.206l-5.876 4.369c-.972.726-2.356.028-2.342-1.192l.11-7.328c0-.479-.233-.932-.617-1.206l-5.985-4.232c-.986-.713-.74-2.233.425-2.603l6.971-2.164c7.396 1.424 13.121 7.794 13.409 15.643zM86.466 391.154c-.288.383-.37.89-.22 1.342l2.342 6.945c.398 1.151-.712 2.247-1.849 1.849l-1.794-.602a16.584 16.584 0 01-4.04-10.247c-.11-2.63.424-5.15 1.424-7.41h.014l7.314-.083c1.219-.013 1.917 1.37 1.191 2.343l-4.382 5.863z" fill="#020202"/><path d="M115.351 389.181c.343 9.137-6.779 16.835-15.915 17.178-9.135.342-16.833-6.781-17.175-15.918-.343-9.136 6.78-16.835 15.915-17.177 9.136-.356 16.819 6.767 17.175 15.917z" fill="#fff"/><path d="M96.148 397.838c3.603-.082 7.259-.164 10.574-.52 1.041-.11 1.89-1.822.603-2.288.52-.301 1.054-.575 1.273-1.191.206-.576-.096-1.343-.698-1.466 1.26.26 1.685-1.74.685-2.343.493-.465.904-1.054.986-1.726.082-.671-.219-1.424-.822-1.726-.397-.191-.863-.191-1.315-.178-1.506.041-2.999.096-4.506.137.315-2.356.342-4.931-.931-6.945-.384-.602-1.37-1.315-2.123-.808-.699.48-.466 1.575-.397 2.288.26 2.917-1.288 5.917-3.822 7.383 0 0 .397 6.219.493 9.383zM94.46 388.519l-5.447.207.356 9.377 5.448-.207-.357-9.377z" fill="#296BEF"/><path d="M162.028 398.441l.082 73.834-75.343.096v-73.848l75.261-.082z" fill="#EACA9B"/><path d="M86.767 398.441v73.834l-17.545.027-.069-73.847 17.614-.014zM171.657 417.126H96.313l-9.546-18.685h75.343l9.547 18.685z" fill="#E2B17D"/><path d="M64.36 475.603h113.666a6.664 6.664 0 006.656-6.657V354.675c0-.904.74-1.644 1.644-1.644h19.49a1.713 1.713 0 000-3.424h-19.49a5.074 5.074 0 00-5.068 5.068v114.271a3.239 3.239 0 01-3.232 3.233H64.359a1.713 1.713 0 000 3.424z" fill="#6774FF"/><path d="M163.069 501.014c6.815 0 12.34-5.526 12.34-12.342 0-6.817-5.525-12.343-12.34-12.343-6.815 0-12.34 5.526-12.34 12.343 0 6.816 5.525 12.342 12.34 12.342z" fill="#296BEF"/><path d="M163.069 495a6.328 6.328 0 006.328-6.328 6.328 6.328 0 10-12.656 0 6.328 6.328 0 006.328 6.328z" fill="#fff"/><path d="M83.466 501.014c6.816 0 12.34-5.526 12.34-12.342 0-6.817-5.524-12.343-12.34-12.343-6.815 0-12.34 5.526-12.34 12.343 0 6.816 5.525 12.342 12.34 12.342z" fill="#296BEF"/><path d="M77.139 488.672A6.33 6.33 0 0083.466 495a6.33 6.33 0 006.328-6.328 6.331 6.331 0 00-6.328-6.329 6.331 6.331 0 00-6.327 6.329z" fill="#fff"/><path d="M524.489 84.039v375.127c0 2.15-.219 4.26-.63 6.287-.205 1.014-.466 2-.767 2.972-.164.494-.329.987-.493 1.466a30.747 30.747 0 01-4.301 7.918 31.872 31.872 0 01-2.944 3.397 32.908 32.908 0 01-3.383 2.931 39.502 39.502 0 01-2.479 1.685h-.014c-.849.521-1.726 1-2.63 1.439h-.014a30.536 30.536 0 01-4.232 1.671h-.013c-.973.301-1.959.561-2.972.767-2.041.411-4.15.63-6.301.63H339.465c-2.274 0-4.493-.247-6.629-.712-.356-.082-.699-.151-1.055-.247-.383-.096-.78-.205-1.164-.315a31.779 31.779 0 01-4.657-1.794 32.734 32.734 0 01-2.177-1.165c-.329-.192-.658-.383-.973-.589a27.981 27.981 0 01-1.986-1.37 31.481 31.481 0 01-7.19-7.547 31.58 31.58 0 01-2.247-3.918 29.734 29.734 0 01-2.095-5.712v-.014a31.046 31.046 0 01-.986-7.78V84.039c0-17.192 13.956-31.164 31.173-31.164H493.33c17.216 0 31.159 13.972 31.159 31.164z" fill="#2F36AD"/><path d="M517.64 84.039v375.127a24.76 24.76 0 01-.493 4.931 20.043 20.043 0 01-.575 2.247l-.452 1.328c-.739 2.055-1.863 4.123-3.301 6.041a23.614 23.614 0 01-2.314 2.658 24.182 24.182 0 01-2.671 2.315 31.46 31.46 0 01-1.671 1.137l-.26.164c-.535.329-1.082.644-1.658.931l-.397.178c-.945.466-1.931.863-2.945 1.192l-.342.11c-.808.246-1.561.438-2.301.603-1.63.315-3.287.479-4.944.479H339.464c-1.739 0-3.479-.178-5.163-.548a21.625 21.625 0 01-1.699-.425 24.77 24.77 0 01-3.698-1.424 22.65 22.65 0 01-1.643-.891c-.288-.164-.507-.287-.699-.411l-.15-.095a20.25 20.25 0 01-1.493-1.028 25.504 25.504 0 01-4.219-4.041c-.52-.63-.972-1.233-1.383-1.835-.671-1-1.26-2.041-1.753-3.069a23.5 23.5 0 01-1.548-4.096l-.096-.369a24.638 24.638 0 01-.767-6.082V84.039c0-13.397 10.916-24.315 24.325-24.315h153.851c10.232 0 19.011 6.37 22.586 15.342a24.118 24.118 0 011.725 8.973z" fill="#A4D6FB"/><path opacity=".2" d="M494.85 189.406H332.877a6.96 6.96 0 01-6.958-6.959v-61.423a6.96 6.96 0 016.958-6.959H494.85a6.96 6.96 0 016.958 6.959v61.423c-.014 3.849-3.123 6.959-6.958 6.959z" fill="#020202"/><path d="M497.384 186.735H335.425a6.96 6.96 0 01-6.958-6.959v-61.423a6.96 6.96 0 016.958-6.959h161.973a6.96 6.96 0 016.958 6.959v61.423a6.972 6.972 0 01-6.972 6.959z" fill="#fff"/><path opacity=".3" d="M484.276 128.065l-6.053.959 4.451 4.219-.945 6.055 5.383-2.932 5.464 2.781-1.123-6.027 4.328-4.343-6.081-.794-2.794-5.466-2.63 5.548z" fill="#FFBC47"/><path d="M462.828 128.065l-6.054.959 4.452 4.219-.945 6.055 5.382-2.932 5.465 2.781-1.123-6.027 4.328-4.343-6.081-.794-2.794-5.466-2.63 5.548zM441.366 128.065l-6.054.959 4.466 4.219-.959 6.055 5.382-2.932 5.479 2.781-1.137-6.027 4.328-4.343-6.067-.794-2.794-5.466-2.644 5.548zM418.328 133.243l-.958 6.055 5.177-2.809.205-.109 5.465 2.767-1.109-6.027 4.314-4.343-6.067-.794-2.808-5.466-2.644 5.534-6.04.987 4.465 4.205zM398.469 128.065l-6.054.959 4.451 4.219-.945 6.055 5.383-2.932 5.465 2.781-1.123-6.027 4.328-4.343-6.081-.794-2.794-5.466-2.63 5.548z" fill="#FFBC47"/><path opacity=".5" d="M392.415 150.516h79.398M392.415 158.872h94.587M392.415 167.242h94.587M392.415 175.612h94.587" stroke="#2F36AD" stroke-miterlimit="10"/><path opacity=".36" d="M360.379 165.845c11.346 0 20.544-9.2 20.544-20.548 0-11.348-9.198-20.547-20.544-20.547-11.347 0-20.545 9.199-20.545 20.547s9.198 20.548 20.545 20.548z" fill="#6774FF"/><path d="M369.199 140.736c1.589 2.753.219 6.52 1.821 9.26.644 1.096 1.74 1.959 2.041 3.192a2.855 2.855 0 01-.986 2.876c-.849.658-2.082.767-3.027.274-.205-.109-.397-.246-.616-.301-.795-.233-1.521.479-2.205.945-.836.575-1.932.836-2.89.507-1.233-.411-2-1.658-2.411-2.89-1.15-3.452-.329-7.233.726-10.726.534-1.74 1.315-3.671 3.027-4.301" fill="#1530A4"/><path d="M362.556 153.023s-.068 3.165.425 3.37c.958.411 2.041.63 2.041.63s-2.233 2.507-3.945 2.425c-2.397-.11-4.492-2.863-4.465-3.219.055-.617-.342-4.124-.342-4.124" fill="#6774FF"/><path d="M368.884 140.106s.506 6.123-.548 9.328c-.767 2.37-3.945 4.589-6.602 4.562-7.3 0-8.615-9.918-8.574-10.397.041-.48 10.765-4.644 10.765-4.644l4.959 1.151z" fill="#6774FF"/><path d="M358.515 156.448s3.328 3.698 4.465-.055c2.876.808 5.972 1.384 7.218 4 3.986 11.753-9.012 12.78-12.683 12.78-5.191 0-13.737-2.863-9.437-12.561 1.329-2.986 3.329-4.835 10.437-4.164z" fill="#FFBC47"/><path d="M349.366 158.256a5.317 5.317 0 01-.479-.274c-.836-.493-1.603-1.027-1.959-1.973-.507-1.369-.753-3.479-.041-4.808.48-.904 1.383-1.493 2-2.301.849-1.123 1.109-2.589 1.178-4 .068-1.411-.014-2.835.287-4.219.507-2.356 1.178-4.603 3-6.123 2.903-2.438 8.738-3.877 11.916-1.164.575.493.684.89 1.465.959 1.041.095 1.726.232 2.657.78 1.041.603 2.301 1.452 2.151 2.822-.096.945-1.178 2.438-1.986 2.89-.343.192-.74.247-1.123.247-1.233.027-2.26-.781-3.479-.644a2.317 2.317 0 00-1.521.85c-.438.534-.383 1.287-.89 1.794-.822.808-2.082.74-3.054 1.274-.165.082-.329.192-.425.342-.096.151-.096.343-.109.521-.014.507-.041 1.027-.055 1.534-.48-.205-.534-.89-.932-1.246-.383-.329-1.013-.247-1.397.095-.383.329-.575.836-.671 1.329-.123.603.082 1.233.274 1.836.315 1.041 1.206 1.972 1.931 1.287.521.768-.054 2.055-.068 2.918-.014.685 0 2.055.644 2.507.589.411 1.534.096 1.561 1.178.027.986-.945 1.753-1.931 1.877-.973.123-1.945-.22-2.876-.507-.945-.274-1.973-.493-2.89-.137-.562.219-1.041.63-1.616.726-.535.096-1.069-.11-1.562-.37z" fill="#1530A4"/><path opacity=".2" d="M494.741 288.554h-161.96a6.96 6.96 0 01-6.958-6.959v-61.423a6.96 6.96 0 016.958-6.959h161.973a6.96 6.96 0 016.958 6.959v61.423c-.014 3.836-3.123 6.959-6.971 6.959z" fill="#020202"/><path d="M497.384 285.828H335.425a6.96 6.96 0 01-6.958-6.959v-61.423a6.96 6.96 0 016.958-6.959h161.973a6.959 6.959 0 016.957 6.959v61.423c-.013 3.836-3.122 6.959-6.971 6.959z" fill="#fff"/><path opacity=".3" d="M484.276 227.144l-6.053.973 4.451 4.219-.945 6.055 5.383-2.932 5.465 2.767-1.124-6.027 4.328-4.342-6.081-.781-2.794-5.466-2.63 5.534zM462.828 227.144l-6.054.973 4.452 4.219-.945 6.055 5.382-2.932 5.465 2.767-1.123-6.027 4.328-4.342-6.081-.781-2.794-5.466-2.63 5.534zM441.366 227.144l-6.054.973 4.466 4.219-.959 6.055 5.382-2.932 5.479 2.767-1.137-6.027 4.328-4.342-6.067-.781-2.794-5.466-2.644 5.534z" fill="#FFBC47"/><path d="M418.328 232.336l-.958 6.041 5.177-2.794.205-.11 5.465 2.767-1.109-6.041 4.314-4.329-6.067-.794-2.808-5.466-2.644 5.534-6.04.987 4.465 4.205zM398.469 227.144l-6.054.973 4.451 4.219-.945 6.055 5.383-2.932 5.465 2.767-1.123-6.027 4.328-4.342-6.081-.781-2.794-5.466-2.63 5.534z" fill="#FFBC47"/><path opacity=".5" d="M392.415 249.596h79.398M392.415 257.966h94.587M392.415 266.335h94.587M392.415 274.691h94.587" stroke="#2F36AD" stroke-miterlimit="10"/><path opacity=".36" d="M374.901 258.921c8.024-8.024 8.024-21.034 0-29.058-8.023-8.024-21.031-8.024-29.054 0s-8.023 21.034 0 29.058c8.023 8.024 21.031 8.024 29.054 0z" fill="#6774FF"/><path d="M368.761 244.925c-.685.274-.397 2.602-.534 3.356-.123.753-.671 3.671-2.205 4.109-1.534.439-2.479.562-2.493.822 0 .124.041.658.082 1.192.041.589.096 1.192.096 1.192l-1.37 1.712-1.506.11-3.698-1.069s-.178-3.849-.329-4.438c-.096-.37-1.479-2.973-2.493-5.507-.589-1.479-1.054-2.945-1.054-3.931 0-2.685.096-5.493 1.739-6.877 1.658-1.383 12.149-6.342 12.437 1.863 0 0 1.26 4.699 1.821 5.507.562.808.192 1.699-.493 1.959z" fill="#6774FF"/><path d="M363.611 254.404c.042.589.096 1.192.096 1.192l-.397 1.918-2.493-.096-3.698-1.069s-.178-3.849-.328-4.438c-.096-.37-1.48-2.973-2.493-5.507l.137-1.589s3.027-.342 3.136-.329c.124.014 1.082 1.85 1.082 1.959 0 .096-.589 1.891-.589 1.891s-.109 2.479 0 4.383c.055 1 .74 1.863 1.712 2.137.548.151 1.165.274 1.754.274.999 0 1.712-.438 2.081-.726z" fill="#6774FF"/><path d="M357.818 243.98s-1.26 5.273 1.685 8.095c2.944 2.822 8.067 1.274 8.793.644.725-.63 3.136-5.027.904-7.055-2.233-2.027-5.178.192-5.178.192s-1.753 1.493-2.328 1.411c-.562-.096-1.849-1.986-1.411-5.342a.408.408 0 01.356-.343c.685-.095 2.274-.657 2.178-4.013a.474.474 0 01.493-.493c.959.041 2.945.123 3.369.246 0 0 .315.055.617.178a.36.36 0 01.205.219c.096.329.301 1.069.356 1.247.069.233.576 1.89.576 1.89s.52-.315.52-.917c0-.603-.233-1.904-.123-2.206.109-.301.972-.507 1.109-1.205.315-1.562.945-7.63-4.04-4.767-.658.37-1.26.863-1.795.972-.698.137-1.328-.506-2.753-.657-1.985-.219-10.833.397-9.779 9.219 1.055 8.835 5.26 10.849 5.26 10.849s-.069-7.26.986-8.164z" fill="#1530A4"/><path d="M357.818 243.98s-.137-1.507-1.288-1.302c-1.548.288-2.219 4.343 1.041 4.397-.014 0-.11-1.726.247-3.095z" fill="#6774FF"/><path d="M357.229 256.253s4.561 1.74 6.588-.63c5.615.781 7.533.74 10.847 4.699-2.794 4.958-17.709 7.246-18.243 7.068-.548-.178-7.793-4.041-7.999-4.219-.205-.178 1.397-7.205 8.807-6.918z" fill="#1530A4"/><path opacity=".2" d="M523.832 355.182c.164-1.397.383-3.055.671-4.931v29.574c-1.589-4.671-2.671-8.109-2.863-9.369-.479-3.082.808-9.603 2.192-15.274z" fill="#020202"/><path d="M524.502 179.036v-44.3a6.243 6.243 0 016.245 6.246v31.794c0 3.452-2.794 6.26-6.245 6.26zM308.415 156.886h3.027v-22.15h-3.027a3.238 3.238 0 00-3.232 3.233v15.684a3.238 3.238 0 003.232 3.233zM308.415 183.598h3.027v-22.15h-3.027a3.238 3.238 0 00-3.232 3.232v15.685a3.238 3.238 0 003.232 3.233z" fill="#2F36AD"/><path opacity=".3" d="M468.813 59.724l-153.66 235.309V179.338l78.111-119.614h75.549zM515.915 75.066L315.153 382.483v-53.602L490.919 59.724h2.41c10.232 0 19.011 6.37 22.586 15.342zM517.64 211.885L340.3 483.48h35.008L517.64 265.5v-53.615z" fill="#fff"/><path d="M439.311 69.108h-45.746c-7.697 0-13.929-6.247-13.929-13.931h73.618c0 7.684-6.246 13.93-13.943 13.93z" fill="#2F36AD"/><path d="M706.13 165.667h-91.423a4.712 4.712 0 01-4.712-4.712v-40.068a4.711 4.711 0 014.712-4.712h91.423a4.712 4.712 0 014.712 4.712v40.054a4.715 4.715 0 01-4.712 4.726z" fill="#FEC752"/><path d="M624.171 122.832l.89 1.822 2.014.288-1.452 1.411.342 2-1.794-.946-1.794.946.342-2-1.451-1.411 1.999-.288.904-1.822zM632.937 122.832l.89 1.822 2.013.288-1.451 1.411.342 2-1.794-.946-1.794.946.342-2-1.465-1.411 2.013-.288.904-1.822zM641.689 122.832l.904 1.822 2.013.288-1.465 1.411.356 2-1.808-.946-1.794.946.342-2-1.452-1.411 2.013-.288.891-1.822zM650.454 122.832l.904 1.822 2 .288-1.452 1.411.343 2-1.795-.946-1.794.946.343-2-1.452-1.411 2.013-.288.89-1.822zM659.22 122.832l.904 1.822 2 .288-1.452 1.411.342 2-1.794-.946-1.794.946.342-2-1.452-1.411 2.014-.288.89-1.822z" fill="#FFF0B0"/><g opacity=".66" stroke="#EAA221" stroke-width="1.909" stroke-miterlimit="10" stroke-linecap="round" stroke-linejoin="round"><path opacity=".66" d="M699.2 155.557h-20.956M636.402 148.092h-14.175M699.2 148.092h-56.648M699.2 140.626h-76.973M645.962 133.161h-23.735M699.2 133.161h-47.335M672.136 155.557h-49.909"/></g><path d="M626.814 165.667l-9.176 11.177v-11.177h9.176z" fill="#FEC752"/><path opacity=".2" d="M524.489 245.445v-5.493c-.26 1.302-.329 2.562-.329 4.055 0 .493.069 1.041.329 1.438zm-6.848-31.423c-8.177-5.096-16.189-10.274-16.998-11.507-.917-1.397-1.821-2.342-2.41-3.671l7.67-.082c1.808-.028 2.821-2.11 1.698-3.534l-6.752-8.603a2.236 2.236 0 01-.37-2l3.274-10.438c.534-1.726-1.137-3.329-2.836-2.712l-10.272 3.767a2.165 2.165 0 01-2.013-.274l-8.93-6.329c-1.466-1.041-3.507.055-3.438 1.863l.397 10.931a2.192 2.192 0 01-.876 1.836l-8.78 6.52c-1.452 1.083-1.027 3.37.712 3.863l10.519 2.986a2.19 2.19 0 011.466 1.411l3.506 10.356c.575 1.726 2.863 2.028 3.876.521l4.588-6.836a19.75 19.75 0 001.575.357 14.57 14.57 0 002.192 1.123s12.806 17.287 22.202 26.958c1.63 1.685 3.15 3.123 4.492 4.219.808.658 1.589 1.26 2.356 1.836v-18.315a658.215 658.215 0 01-6.848-4.246z" fill="#020202"/><path d="M643.894 483.288c-.233 1.274 2.177 4.644-1.055 7.479-3.232 2.822-10.574 5.808-5.711 5.918 4.862.11 9.532-1.014 12.011-2.233 2.479-1.219.493-3.15 3.561-4.109 4.041-1.274 4-1.534 2.041-5.945-2.671-6.069-10.122-5.233-10.847-1.11z" fill="#0A1828"/><path d="M612.009 278.896c-1.684 4.384-2.095 9.165-1.068 13.754 2.027 9.123-.274 9.725-.274 9.725s-12.354 7.849-22.626 11.055c-7.369 2.287-13.642 1.904-13.464-6.233v-.11l.041-1.424c.343-18.274-3.465-19.205-4.396-39.67-.973-21 4.643-32.712 10.204-37.78 5.56-5.068 13.162-5.26 27.461-1.877 10.738 2.534 14.271 5.384 14.189 13.329-.027 2.643-.452 5.849-1.15 9.78-1.808 9.986-6.04 21.986-8.917 29.451z" fill="#01008A"/><path d="M586.082 233.925s-11.135 36.506-8.902 53.999l4.108 7.465 4.493-8.137s-3.643-34.971 3.342-52.71l-3.041-.617z" fill="#FF911E"/><path d="M612.009 278.897c-1.684 4.383-2.095 9.164-1.068 13.753 2.027 9.123-.274 9.725-.274 9.725s-12.354 7.849-22.626 11.055l-9.601-.904-3.849-3.028-.014-2.41.041-1.425c2.192.205 7.177.466 14.505-.384 5.656-.643 10.792-2.26 14.217-3.561a5.545 5.545 0 003.492-6.164c-.616-3.589-1.356-8.754-1.328-12.754.027-4.027 1.89-10.821 3.41-15.725 1.164-3.767 1.561-7.699 1.274-11.63-.48-6.794.013-13.26.013-13.26l7.616-4.123 4.246 1.575c-.028 2.644-.452 5.849-1.151 9.781-1.794 10.013-6.026 22.013-8.903 29.479z" fill="#07076B"/><path d="M612.174 317.676c.876.137 3.122-3.808 3.122-3.808l-.945-1.246a4.177 4.177 0 00-2.123-1.494l-.15-.041a1.827 1.827 0 00-2.041.699c-.644.959-1.644 2.055-2.794 2.014h-.014c-.041.013-.082.013-.123.013-1.027.028 4.191 3.726 5.068 3.863z" fill="#F4D5B5"/><path d="M577.494 190.639s-.959 2.657.493 4.78l5.89-7.972-4.109-.041-2.274 3.233z" fill="#1530A4"/><path d="M609.489 201.186c-.26 10.288-9.136 16.246-9.136 16.246l.589 9.37-5.985 3.877-4.109 2.657-2.356-4.931-.328-6.041a3.12 3.12 0 00-2.466-2.877c-1.534-.329-3.657-1.219-5.834-3.534-.124-.137-.261-.288-.37-.466l-.014-.013c-3.89-5.302-5.369-25.602 7.958-31.369 13.751-5.918 22.325 6.78 22.051 17.081z" fill="#6774FF"/><path d="M594.56 225.076l.397 5.616-4.109 2.658-2.355-4.932-.329-6.041a3.118 3.118 0 00-2.465-2.876c-1.534-.329-3.657-1.219-5.835-3.534-.123-.137-.26-.288-.37-.466.274.164 3.493 2.041 8.382 2.589 3.602.425 6.424 3.356 6.684 6.986z" fill="#5866E3"/><path d="M595.121 204.364c.521.219 1.014-.589 1.014-.589s2.89-6.479 3.876-7.479c1.78-1.794 5.958-1.63 6.3 3.931.26 4.302-4.835 13.493-6.396 16.192-.233.424-.137 1 .26 1.301.165.123.384.192.562.219h.068c.233 0 .48-.068.658-.233 3.287-2.89 17.777-16.78 6.272-29.848 0 0-9.135.589-10.532 5-1.397 4.424-2.397 10.397-2.397 10.397s-.219.876.315 1.109z" fill="#1530A4"/><path d="M577.494 190.639s7.999-6.233 20.134 1.356l9.943-2.534s.425-.137.192-1.631c-.219-1.493-1.315-16.109-18.737-12.821-10.012 1.89-16.148 8.835-11.532 15.63z" fill="#1530A4"/><path d="M585.314 230.816l.055.479c.11.904.356 1.795.712 2.63l3.014.617 2.629-1.959-3.013-3.507-.466.123a6.71 6.71 0 00-2.889 1.576l-.042.041z" fill="#FF911E"/><path d="M600.874 222.446s1.452.808 2.89 2.972c0 0-1.972.891-3.698 1.932-1.575.959-9.122 6.301-9.122 6.301l-2.218-4.561c-.014-.014 7.875-5.452 12.148-6.644zM588.712 229.076s-2.644.904-3.452 2.877c0 0-1.356-2.589.37-7.206 0 0 1.452-1.37 2.561-1.863l.521 6.192z" fill="#07076B"/><path d="M609.735 311.238s-1.41 1.767-1.821 2c-.411.233-.493-.26-.329-.603.151-.356 2.082-1.876 2.15-1.397z" fill="#E5BB98"/><path d="M600.764 217.926h.068c.233 0 .48-.069.658-.233 3.287-2.891 17.778-16.781 6.273-29.849 0 0 .561 2.274.328 4.164 0 0 7.342 11.863-7.327 25.918z" fill="#1530A4"/><path d="M626.499 354.333s8.615-28.493-15.833-51.971c0 0-13.107 5.862-23.598 6.575-8.259.561-12.464-.302-12.464-.302s-.699 25.315-.726 38.958l52.621 6.74zM571.659 401.66c-.534-12.739 8.903-11.369 14.423-2.096 17.682 29.685-.069 66.916-1.973 88.395-2.081-3.452-6.026-4.63-6.957-4.548-1.507.11-2.315 1.302-2.315 1.302.301-26.356-2.602-69.423-3.178-83.053z" fill="#1631A4"/><path d="M585.602 403.044c-1.589 5.205-15.271 11.219-13.833-7.712.63-8.397 2.328-54.766 2.643-59.245.329-4.466 1.069-11 3.233-11.822 10.806-4.082 25.954 9.507 23.119 26.287-1.904 11.233-11.861 41.711-15.162 52.492z" fill="#1631A4"/><path d="M574.878 485.083c-.562 1.096-3.274 3.657-7.04 5.328-3.753 1.671-11.724 2.466-7.3 3.945 4.424 1.48 9.587.589 12.203.165 2.616-.425 5.15-.48 8.232-.493 4.067-.028 4.095-.274 3.547-4.863-.767-6.315-7.821-7.644-9.642-4.082z" fill="#0A1828"/><path d="M616.98 404.564c-4.259-12.013 5.15-13.492 13.163-6.26 25.639 23.164 19.654 63.957 24.16 85.039-2.561 1.753-6.615 2.383-8.04 2.301-1.506-.082-2.191-1.123-2.191-1.123-7.465-25.246-22.531-67.108-27.092-79.957z" fill="#1631A4"/><path d="M630.896 401.126c.479 5.411-9.93 16.137-15.724-1.945-2.561-8.027-18.408-51.629-19.791-55.903-1.37-4.274-3.137-10.602-1.438-12.164 8.478-7.835 27.625-.945 31.296 15.685 2.452 11.109 4.657 43.094 5.657 54.327z" fill="#1631A4"/><path d="M606.38 310.567s1.903 6.739 10.395 10.616c7.328 3.342-11.724 5.246-12.149 4.507-.424-.74-4.081-13.041-4.081-13.041l5.835-2.082z" fill="#3A3A3A"/><path d="M680.751 327.334h-135.21a6.96 6.96 0 01-6.958-6.959v-49.958a6.959 6.959 0 016.958-6.958h135.21a6.959 6.959 0 016.958 6.958v49.958c-.014 3.835-3.123 6.959-6.958 6.959z" fill="#fff"/><path opacity=".3" d="M670.684 277.581l-5.136.822 3.78 3.576-.808 5.136 4.575-2.493 4.629 2.356-.959-5.109 3.671-3.685-5.15-.671-2.369-4.63-2.233 4.698zM652.496 277.581l-5.137.822 3.781 3.576-.808 5.136 4.574-2.493 4.63 2.356-.946-5.109 3.657-3.685-5.149-.671-2.37-4.63-2.232 4.698z" fill="#FFBC47"/><path d="M634.306 277.581l-5.136.822 3.78 3.576-.808 5.136 4.575-2.493 4.629 2.356-.945-5.109 3.657-3.685-5.15-.671-2.369-4.63-2.233 4.698z" fill="#2F36AD"/><path opacity=".3" d="M614.762 281.979l-.808 5.123 4.396-2.37.178-.096 4.63 2.342-.945-5.109 3.656-3.685-5.136-.671-2.383-4.63-2.232 4.698-5.137.822 3.781 3.576z" fill="#FFBC47"/><path d="M597.929 277.581l-5.136.822 3.78 3.576-.808 5.136 4.575-2.493 4.629 2.356-.945-5.109 3.657-3.685-5.15-.671-2.369-4.63-2.233 4.698z" fill="#FFBC47"/><path d="M592.793 296.622h67.331M592.793 303.704h80.206M592.793 310.8h80.206M592.793 317.895h80.206" stroke="#A4D6FB" stroke-width=".848" stroke-miterlimit="10"/><path opacity=".36" d="M565.647 309.622c9.622 0 17.422-7.801 17.422-17.425 0-9.623-7.8-17.424-17.422-17.424-9.621 0-17.421 7.801-17.421 17.424 0 9.624 7.8 17.425 17.421 17.425z" fill="#6774FF"/><path d="M573.125 288.335c1.356 2.328.178 5.52 1.548 7.849.547.931 1.465 1.657 1.739 2.712a2.435 2.435 0 01-.836 2.438c-.712.562-1.766.658-2.561.233-.178-.096-.342-.205-.52-.26-.671-.192-1.288.397-1.863.794-.712.48-1.643.713-2.451.439-1.041-.356-1.699-1.411-2.041-2.452-.973-2.932-.288-6.137.616-9.096.452-1.479 1.11-3.109 2.561-3.644" fill="#1530A4"/><path d="M567.496 298.745s-.055 2.685.356 2.863c.822.343 1.739.534 1.739.534s-1.89 2.124-3.342 2.055c-2.027-.096-3.807-2.424-3.78-2.726.041-.534-.287-3.493-.287-3.493" fill="#6774FF"/><path d="M572.852 287.787s.424 5.191-.466 7.904c-.657 2.013-3.342 3.89-5.588 3.862-6.191 0-7.3-8.41-7.273-8.821.027-.411 9.135-3.945 9.135-3.945l4.192 1z" fill="#6774FF"/><path d="M564.058 301.649s2.822 3.137 3.794-.041c2.438.685 5.068 1.178 6.123 3.384 3.369 9.972-7.643 10.835-10.752 10.835-4.41 0-11.642-2.425-7.999-10.644 1.123-2.534 2.808-4.109 8.834-3.534z" fill="#FFBC47"/><path d="M556.306 303.184c-.137-.069-.274-.151-.411-.233-.712-.425-1.356-.863-1.657-1.672-.424-1.164-.63-2.945-.041-4.068.411-.767 1.178-1.26 1.698-1.945.726-.945.945-2.192 1-3.384.055-1.191-.013-2.397.247-3.575.424-2 1-3.904 2.534-5.191 2.465-2.069 7.409-3.288 10.094-.987.493.425.589.754 1.246.822.89.082 1.466.206 2.26.658.877.507 1.959 1.233 1.822 2.383-.083.808-1 2.069-1.685 2.452-.288.165-.616.206-.945.219-1.055.014-1.918-.657-2.945-.548a1.966 1.966 0 00-1.287.713c-.37.452-.315 1.096-.754 1.52-.698.685-1.766.63-2.588 1.069a.916.916 0 00-.356.287c-.082.137-.082.288-.096.439l-.041 1.301c-.411-.178-.452-.767-.781-1.055-.329-.287-.849-.205-1.178.082-.328.274-.479.713-.575 1.137-.11.507.068 1.041.233 1.548.274.877 1.027 1.672 1.63 1.096.438.658-.041 1.74-.055 2.48-.014.589 0 1.739.548 2.123.507.356 1.301.082 1.328 1 .028.835-.808 1.479-1.63 1.589-.821.096-1.643-.192-2.437-.425-.795-.233-1.671-.425-2.452-.123-.466.178-.877.534-1.37.616-.479.069-.931-.096-1.356-.328z" fill="#1530A4"/><path d="M610.064 256.281s16.381 13.068 21.271 29.013c0 0 14.039-.891 17.312-11.795 0 0-21.942-36.875-30.022-42.314-8.054-5.438-13.094 13.233-8.561 25.096z" fill="#01008A"/><path d="M632.321 287.047s-10.971 33.862-13.053 35.752c-2.082 1.891-2.643 3.973-7.944 4.535 0 0 1.699 3.972 5.301 3.589 3.588-.384 5.204-3.973 5.204-3.973s16.97-20.123 21.695-29.616c6.492-13.068 6.246-21.081 6.246-21.081l-17.449 10.794z" fill="#6674FF"/><path d="M540.213 220.925s-33.57-20.109-35.282-22.698c-1.849-2.808-3.63-3.808-2.959-9.643 0 0-7.327.493-7.793 4.452-.466 3.959 5.533 6.246 5.533 6.246s17.628 23.794 26.708 31.177c12.478 10.151 21.161 11.822 21.161 11.822l-7.368-21.356z" fill="#6774FF"/><path d="M631.348 286.828c.028-.644.534.068.178-.48-.178-.287-.506-.479-.602-.808-.192-.671.671-1.109 1.342-1.246 4.561-.932 7.834-3.206 11.34-6.274 1.37-1.206 1.233-1.986 2.274-3.48.657-.945 1.739-1.876 2.78-1.397 2.178 1 .534 2.986 1.493 4.343.192.274.48.479.617.78.219.507-.042 1.083-.357 1.548-1.013 1.493-1.89 2.562-3.341 3.617-1.37 1.013-2.931 1.602-4.452 2.383-1.698.904-11.395 4.466-11.272 1.014z" fill="#07076B"/><path d="M584.109 225.61s-28.488 3.028-40.432-4.328L529.2 238.336s28.516 13.041 44.678 10.205l10.231-22.931z" fill="#01008A"/><path d="M543.048 219.254c.424.685-.589.302.15.617.384.164.849.137 1.178.397.658.548.096 1.603-.507 2.219-4.013 4.137-5.779 8.753-7.218 14.328-.561 2.192.124 2.891.11 5.151-.014 1.425-.575 1.137-1.972 1.37-2.918.507-2.534-.685-4.452-1.411-.383-.151-.821-.151-1.177-.37-.576-.356-.713-1.137-.713-1.822 0-2.233.151-3.931.891-6.027.698-1.986 1.89-3.685 2.876-5.548 1.123-2.096 8.546-12.52 10.834-8.904z" fill="#07076B"/><path d="M492.467 193.036c-.096-.37 5.259-5.932 6.341-5.575 1.082.342 1.233 2.698 1.302 3.78.082 1.069-1.836 3.562-3.055 3.713-1.219.15-4.04.301-4.588-1.918z" fill="#6774FF"/><path d="M505.205 167.201l-10.273 3.767a2.162 2.162 0 01-2.013-.274l-8.916-6.329c-1.479-1.041-3.52.055-3.452 1.863l.397 10.932a2.205 2.205 0 01-.876 1.835l-8.78 6.534c-1.451 1.082-1.04 3.356.713 3.849l10.518 3a2.17 2.17 0 011.466 1.398l3.493 10.369c.575 1.712 2.876 2.027 3.876.521l6.095-9.082a2.185 2.185 0 011.794-.973l10.929-.123c1.808-.014 2.808-2.11 1.699-3.534l-6.752-8.603a2.223 2.223 0 01-.37-2l3.259-10.438c.562-1.74-1.109-3.342-2.807-2.712z" fill="#FF9422"/><path d="M497.549 198.159s-4.52-.767-4.657-2.192c-.028-1.479 5.766.028 5.766.028l-1.109 2.164z" fill="#6774FF"/><path d="M251.315 290.513H131.568a4.713 4.713 0 01-4.712-4.713v-53.971a4.712 4.712 0 014.712-4.712h119.761a4.712 4.712 0 014.712 4.712V285.8a4.716 4.716 0 01-4.726 4.713z" fill="#FEC752"/><path d="M145.004 235.637l1.15 2.329 2.575.37-1.863 1.822.439 2.561-2.301-1.219-2.301 1.219.438-2.561-1.863-1.822 2.575-.37 1.151-2.329zM156.235 235.637l1.151 2.329 2.575.37-1.863 1.822.438 2.561-2.301-1.219-2.301 1.219.438-2.561-1.862-1.822 2.575-.37 1.15-2.329zM167.452 235.637l1.15 2.329 2.575.37-1.862 1.822.438 2.561-2.301-1.219-2.301 1.219.452-2.561-1.863-1.822 2.561-.37 1.151-2.329zM178.683 235.637l1.151 2.329 2.575.37-1.863 1.822.438 2.561-2.301-1.219-2.301 1.219.439-2.561-1.863-1.822 2.575-.37 1.15-2.329zM189.914 235.637l1.15 2.329 2.562.37-1.863 1.822.452 2.561-2.301-1.219-2.301 1.219.438-2.561-1.863-1.822 2.575-.37 1.151-2.329z" fill="#FFF0B0"/><g opacity=".66" stroke="#EAA221" stroke-width="2.445" stroke-miterlimit="10" stroke-linecap="round" stroke-linejoin="round"><path opacity=".66" d="M241.111 277.554H214.28M160.686 267.993h-18.162M241.111 267.993h-72.563M241.111 258.431h-98.587M172.917 248.87h-30.393M241.11 248.87h-60.62M206.445 277.554h-63.921"/></g><path d="M230.895 290.513l11.765 14.314v-14.314h-11.765z" fill="#FEC752"/><path opacity=".2" d="M357.708 405.263c-4.793-1.411-32.528 4.397-49.402 8.164v25.109c17.641-5.466 34.843-13.726 35.46-14.013-4.904 11.068-15.135 50.341-15.135 50.341a53.776 53.776 0 008.834 2.37c-.274 1.931-.739 4.657-1.506 6.945-.22.424-.398.794-.535 1.137a46.712 46.712 0 01-.753-.521s-1.643 2.219-2.89 4.575c.356.096.699.165 1.055.247 2.136.465 4.355.712 6.629.712h12.08c-3.588-1.329-7.081-2.698-7.081-2.698-.027.027-.068.041-.096.054-.589-1.89-.89-5 .356-9.643 7.41.301 12.163-1.124 12.163-1.124s2.451-19.246 4.903-36.437c2.465-17.205 2.876-33.163-4.082-35.218zm92.04-76.382H308.306v71.903h10.272c.027.356.068.63.151.78.424.699 7.204 1.85 10.217-.78h120.802c3.835 0 6.944-3.124 6.944-6.959V335.84c0-3.835-3.109-6.959-6.944-6.959z" fill="#020202"/><path d="M334.398 471.453s-.466 5.383-1.795 9.369c-1.383 2.631-1.123 3.603-1.123 3.603l10.834 2.384s-3.958-3.74-.233-14.534c3.726-10.794-7.683-.822-7.683-.822z" fill="#6774FF"/><path d="M341.109 484.261s12.299 4.808 14.422 5.191c2.123.384 3.629 1.261 3.232 2.288-.397 1.027-9.176 3.288-13.778 2.931-4.602-.369-7.78-3.205-8.752-3.205-.959 0-5.999 1.438-8.574-.123-2.575-1.548 3.643-9.918 3.643-9.918s6.821 5.069 9.807 2.836z" fill="#FF911E"/><path d="M291.843 413.057s55.539-13.205 62.497-11.164c6.957 2.041 6.547 18.013 4.095 35.218-2.452 17.192-4.917 36.438-4.917 36.438s-12.286 3.685-28.242-2.041c0 0 10.231-39.301 15.148-50.369 0 0-41.144 19.904-62.031 18.726-20.873-1.165 13.45-26.808 13.45-26.808z" fill="#01008A"/><path d="M235.126 470.836s-5.356-.712-9.273-2.232c-2.561-1.493-3.547-1.288-3.547-1.288l-2.904 10.712s3.931-3.767 14.532.452c10.615 4.233 1.192-7.644 1.192-7.644z" fill="#6774FF"/><path d="M222.005 476.946s-3.766 6.548-4.232 8.657c-.479 2.11 3.397 5.178 2.301 5.247-10.491.739-9.697-6.028-8.629-10.534 1.11-4.699 3.575-7.617 3.616-8.589.041-.959-1.15-6.055.521-8.562 1.671-2.493 9.738 4.11 9.738 4.11s-5.397 6.575-3.315 9.671z" fill="#FF911E"/><path d="M261.862 414.537s-6.629 27.259 11.026 33.095c4.903 1.616 29.296-26.822 29.995-30.794.712-3.973-5.109-13.917-5.109-13.917s-31.077-.617-35.912 11.616z" fill="#01008A"/><path d="M293.199 421.783s12.806 61.478 10.738 68.423c-2.082 6.945-18.038 6.465-35.227 3.931-17.189-2.534-36.419-5.082-36.419-5.082s-3.629-12.301 2.178-28.246c0 0 39.254 10.425 50.279 15.383 0 0-21.928-36.957-20.654-57.834 1.274-20.876 29.105 3.425 29.105 3.425z" fill="#01008A"/><path d="M261.505 307.211s1.069-13.014 6.287-17.123c7.862-6.178 20.449-4.945 25.023 1.315 4.575 6.26 9.464 33.424-12.874 36.917l-11.574 53.423s-30.118-3.082-32.433-19.219c-2.301-16.136 11.409-23.643 11.409-23.643s-6.588-13.561.329-23.123c6.917-9.533 13.833-8.547 13.833-8.547z" fill="#1533A3"/><path d="M292.816 364.511c-1.027 2.63 7.437 37.793 8.752 46.135 0 0 5.136 12.411-40.692 3.767 0 0 1.506-8.191 7.642-20.492 3.041-6.082-1.451-16.164-6.766-24.794a113.785 113.785 0 00-4.109-6.219c-4.054-5.794-7.601-9.918-7.601-9.918s7.519-23.054 20.682-24.478c10.505-1.137 10.436 3.52 20.188 6.15l15.792 4.247s-1.753 13.314 0 17.259h-10.971s-1.904 5.713-2.917 8.343z" fill="#FFD648"/><path d="M290.035 296.115s4.834 13.082 1.753 19.219c-3.068 6.15-10.533 5.274-10.533 5.274v14.054s-.767.726-2.082.808c-2.301.137-8.45-3.876-8.45-3.876v-32.493l19.312-2.986zM248.002 360.415s-6.095 34.821-3.247 36.944c2.836 2.123 32.584.918 35.584 1.397 2.999.48 15.024 3.712 21.311-1.822.808-.712-6.478-1.068-7.574-3.479-1.096-2.425-4.26-3.178-4.26-3.178l-9.108 4.027s-22.9-3.369-24.489-4.712c-1.588-1.342 5.465-29.588 5.465-29.588l-13.682.411z" fill="#6574FE"/><path d="M268.258 348.374l-1.082 20.753h-5.424a113.786 113.786 0 00-4.108-6.219c2.698-3.11 10.614-14.534 10.614-14.534z" fill="#FFD648"/><path d="M246.755 359.661s2.739-23.273 10.423-26.697c7.697-3.439 13.135 7.575 10.313 18.876-2.835 11.301-3.561 15.451-3.561 15.451s-10.793.384-17.175-7.63z" fill="#FFD648"/><path d="M290.651 294.197s-3.136 15-10.382 18.945c-7.245 3.945-1.766 13.671-8.669 20.917-3.698 3.877-10.944-2.931-10.944-2.931l7.136-35.026 22.859-1.905z" fill="#1533A3"/><path d="M446.38 397.414H292.46a6.96 6.96 0 01-6.958-6.959V332.47a6.959 6.959 0 016.958-6.958h153.92a6.958 6.958 0 016.957 6.958v57.985a6.95 6.95 0 01-6.957 6.959z" fill="#fff"/><path d="M434.19 341.429l-5.78.918 4.246 4.027-.904 5.781 5.136-2.795 5.219 2.644-1.069-5.753 4.123-4.151-5.794-.753-2.671-5.205-2.506 5.287zM413.714 341.429l-5.779.918 4.259 4.027-.904 5.781 5.136-2.795 5.219 2.644-1.082-5.753 4.136-4.151-5.807-.753-2.657-5.205-2.521 5.287zM393.238 341.429l-5.766.918 4.246 4.027-.904 5.781 5.136-2.795 5.218 2.644-1.068-5.753 4.122-4.151-5.807-.753-2.657-5.205-2.52 5.287zM371.256 346.374l-.918 5.767 4.944-2.671.192-.11 5.218 2.644-1.068-5.753 4.123-4.137-5.794-.767-2.671-5.205-2.52 5.287-5.766.932 4.26 4.013zM352.299 341.429l-5.779.918 4.259 4.027-.904 5.781 5.136-2.795 5.219 2.644-1.082-5.753 4.136-4.151-5.807-.753-2.671-5.205-2.507 5.287z" fill="#FFBC47"/><path opacity=".5" d="M346.52 362.853h75.782M346.52 370.839h90.272M346.52 378.812h90.272M346.52 386.798h90.272" stroke="#2F36AD" stroke-miterlimit="10"/><path opacity=".36" d="M331.759 376c8.023-8.024 8.023-21.034 0-29.058-8.023-8.024-21.031-8.024-29.054 0s-8.023 21.034 0 29.058c8.023 8.024 21.031 8.024 29.054 0z" fill="#6774FF"/><path d="M325.619 362.004c-.685.274-.398 2.602-.535 3.356-.123.753-.671 3.671-2.205 4.109-1.534.439-2.479.562-2.492.822 0 .124.041.658.082 1.192.041.589.096 1.192.096 1.192l-1.37 1.712-1.507.11-3.698-1.069s-.178-3.849-.328-4.438c-.096-.37-1.48-2.973-2.493-5.507-.589-1.479-1.055-2.945-1.055-3.931 0-2.685.096-5.493 1.74-6.877 1.657-1.383 12.148-6.342 12.436 1.863 0 0 1.26 4.699 1.822 5.507.548.794.191 1.699-.493 1.959z" fill="#6774FF"/><path d="M320.469 371.469c.041.589.096 1.192.096 1.192l-.398 1.918-2.492-.096-3.698-1.069s-.178-3.849-.329-4.438c-.096-.37-1.479-2.972-2.493-5.507l.137-1.589s3.027-.342 3.137-.328c.123.013 1.082 1.849 1.082 1.959 0 .095-.589 1.89-.589 1.89s-.11 2.479 0 4.383c.055 1 .739 1.863 1.712 2.137.548.151 1.164.274 1.753.274 1 0 1.712-.424 2.082-.726z" fill="#6774FF"/><path d="M314.675 361.059s-1.26 5.273 1.685 8.095c2.945 2.822 8.067 1.274 8.793.644.726-.63 3.137-5.027.904-7.054-2.233-2.028-5.177.191-5.177.191s-1.753 1.493-2.329 1.411c-.561-.096-1.849-1.986-1.41-5.342a.436.436 0 01.356-.356c.685-.096 2.273-.658 2.177-4.014a.476.476 0 01.494-.493c.958.041 2.944.123 3.369.247 0 0 .315.054.616.178a.362.362 0 01.206.219c.096.329.301 1.068.356 1.246.068.233.575 1.891.575 1.891s.52-.315.52-.918-.232-1.904-.123-2.205c.11-.302.973-.507 1.11-1.206.315-1.561.945-7.63-4.041-4.767-.657.37-1.26.863-1.794.973-.699.137-1.329-.507-2.753-.658-1.986-.219-10.834.397-9.779 9.219 1.054 8.835 5.259 10.849 5.259 10.849s-.068-7.246.986-8.15z" fill="#1530A4"/><path d="M314.675 361.059s-.137-1.507-1.287-1.302c-1.548.288-2.219 4.343 1.041 4.397-.014 0-.11-1.726.246-3.095z" fill="#6774FF"/><path d="M314.086 373.332s4.561 1.74 6.588-.63c5.616.781 7.533.74 10.848 4.699-2.794 4.958-17.71 7.246-18.244 7.068-.548-.178-7.793-4.041-7.998-4.219-.206-.178 1.397-7.205 8.806-6.918z" fill="#FFBC47"/><path d="M326.728 395.825s-3.315-4.233-5.506-4.918c-2.191-.685-4.534-.712-5.095.397-.562 1.11-1.247 6.082-.753 6.891.493.822 9.573 2.26 11.354-2.37z" fill="#6574FE"/></g><defs><clipPath id="clip0"><path fill="#fff" d="M0 0h830v501H0z"/></clipPath></defs></svg>