<svg width="830" height="501" viewBox="0 0 830 501" fill="none" xmlns="http://www.w3.org/2000/svg">
<g clip-path="url(#clip0)">
<path opacity="0.6" d="M678.286 334.237V145.448H669.109V126.339H598.107V145.448H588.985V382.798H522.352V275.308H425.314V416.359H378.431V163.694H282.844V357.812H271.627V242.267H254.342L206.131 218.665V242.267H195.584V384.976H172.164V191.707H148.496V123.914H145.25V191.707H121.583V490.329H738.098V334.237H678.286ZM166.452 315.895H127.404V311.69H166.452V315.895ZM166.452 306.17H127.404V301.964H166.452V306.17ZM166.452 296.444H127.404V292.239H166.452V296.444ZM166.452 286.718H127.404V282.513H166.452V286.718ZM166.452 277.006H127.404V272.801H166.452V277.006ZM166.452 267.267H127.404V263.061H166.452V267.267ZM166.452 257.555H127.404V253.349H166.452V257.555ZM166.452 247.829H127.404V243.623H166.452V247.829ZM166.452 238.103H127.404V233.898H166.452V238.103ZM166.452 228.391H127.404V224.186H166.452V228.391ZM166.452 218.665H127.404V214.46H166.452V218.665ZM166.452 208.94H127.404V204.734H166.452V208.94ZM166.452 199.214H127.404V195.008H166.452V199.214ZM303.416 257.089H291.788V246.322H303.416V257.089ZM303.416 239.13H291.788V228.35H303.416V239.13ZM303.416 221.172H291.788V210.405H303.416V221.172ZM303.416 203.214H291.788V192.433H303.416V203.214ZM303.416 185.242H291.788V174.461H303.416V185.242ZM325.495 257.089H313.88V246.322H325.495V257.089ZM325.495 239.13H313.88V228.35H325.495V239.13ZM325.495 221.172H313.88V210.405H325.495V221.172ZM325.495 203.214H313.88V192.433H325.495V203.214ZM325.495 185.242H313.88V174.461H325.495V185.242ZM347.6 257.089H335.972V246.322H347.6V257.089ZM347.6 239.13H335.972V228.35H347.6V239.13ZM347.6 221.172H335.972V210.405H347.6V221.172ZM347.6 203.214H335.972V192.433H347.6V203.214ZM347.6 185.242H335.972V174.461H347.6V185.242ZM369.679 257.089H358.064V246.322H369.679V257.089ZM369.679 239.13H358.064V228.35H369.679V239.13ZM369.679 221.172H358.064V210.405H369.679V221.172ZM369.679 203.214H358.064V192.433H369.679V203.214ZM687.435 423.098H675.355V411.893H687.435V423.098ZM687.435 400.674H675.355V389.469H687.435V400.674ZM687.435 378.236H675.355V367.031H687.435V378.236ZM687.435 355.812H675.355V344.607H687.435V355.812ZM709.856 423.098H697.776V411.893H709.856V423.098ZM709.856 400.674H697.776V389.469H709.856V400.674ZM709.856 378.236H697.776V367.031H709.856V378.236ZM709.856 355.812H697.776V344.607H709.856V355.812ZM732.277 423.098H720.183V411.893H732.277V423.098ZM732.277 400.674H720.183V389.469H732.277V400.674ZM732.277 378.236H720.183V367.031H732.277V378.236ZM732.277 355.812H720.183V344.607H732.277V355.812Z" fill="#E8EAEF"/>
<path d="M392.771 193.913V110.381L331.644 172.297V275.267H292.267V127.709H282.255L253.725 103.011L225.059 127.709H215.211V326.84H136.471H70.3174V490.329H488.262V193.913H392.771ZM282.241 246.856H225.223V241.459H282.241V246.856ZM282.241 236.09H225.223V230.692H282.241V236.09ZM282.241 225.309H225.223V219.926H282.241V225.309ZM282.241 214.542H225.223V209.159H282.241V214.542ZM282.241 203.775H225.223V198.378H282.241V203.775ZM282.241 193.009H225.223V187.611H282.241V193.009ZM282.241 182.228H225.223V176.845H282.241V182.228ZM282.241 171.461H225.223V166.078H282.241V171.461ZM282.241 160.681H225.223V155.297H282.241V160.681ZM282.241 149.928H225.223V144.53H282.241V149.928ZM282.241 139.147H225.223V133.764H282.241V139.147ZM385.019 401.551H379.102V136.448L385.019 130.435V401.551Z" fill="#E8EAEF"/>
<path d="M713.882 246.856H656.878V241.459H713.896V246.856H713.882ZM713.882 236.089H656.878V230.692H713.896V236.089H713.882ZM713.882 225.309H656.878V219.925H713.896V225.309H713.882ZM713.882 214.542H656.878V209.159H713.896V214.542H713.882ZM713.882 203.775H656.878V198.378H713.896V203.775H713.882ZM713.882 193.008H656.878V187.611H713.896V193.008H713.882ZM713.882 182.228H656.878V176.844H713.896V182.228H713.882ZM713.882 171.461H656.878V166.078H713.896V171.461H713.882ZM713.882 160.681H656.878V155.297H713.896V160.681H713.882ZM713.882 149.927H656.878V144.53H713.896V149.927H713.882ZM713.882 139.147H656.878V133.763H713.896V139.147H713.882ZM723.908 275.28V127.709H713.882L685.38 103.011L656.713 127.709H646.852V326.84H501.958V489.165H761.052V275.28H723.908Z" fill="#E8EAEF"/>
<path opacity="0.75" d="M440.16 315.895H401.098V311.704H440.16V315.895ZM440.16 306.17H401.098V301.978H440.16V306.17ZM440.16 296.444H401.098V292.252H440.16V296.444ZM440.16 286.718H401.098V282.527H440.16V286.718ZM440.16 277.006H401.098V272.814H440.16V277.006ZM440.16 267.28H401.098V263.089H440.16V267.28ZM440.16 257.555H401.098V253.363H440.16V257.555ZM440.16 247.843H401.098V243.651H440.16V247.843ZM440.16 238.103H401.098V233.911H440.16V238.103ZM440.16 228.391H401.098V224.199H440.16V228.391ZM440.16 218.665H401.098V214.474H440.16V218.665ZM440.16 208.94H401.098V204.748H440.16V208.94ZM440.16 199.214H401.098V195.008H440.16V199.214ZM577.11 257.089H565.482V246.308H577.11V257.089ZM577.11 239.13H565.482V228.35H577.11V239.13ZM577.11 221.172H565.482V210.392H577.11V221.172ZM577.11 203.214H565.482V192.433H577.11V203.214ZM577.11 185.255H565.482V174.461H577.11V185.255ZM599.189 257.089H587.574V246.308H599.189V257.089ZM599.189 239.13H587.574V228.35H599.189V239.13ZM599.189 221.172H587.574V210.392H599.189V221.172ZM599.189 203.214H587.574V192.433H599.189V203.214ZM599.189 185.255H587.574V174.461H599.189V185.255ZM621.295 257.089H609.653V246.308H621.295V257.089ZM621.295 239.13H609.653V228.35H621.295V239.13ZM621.295 221.172H609.653V210.392H621.295V221.172ZM621.295 203.214H609.653V192.433H621.295V203.214ZM621.295 185.255H609.653V174.461H621.295V185.255ZM643.387 257.089H631.773V246.308H643.387V257.089ZM643.387 239.13H631.773V228.35H643.387V239.13ZM643.387 221.172H631.773V210.392H643.387V221.172ZM643.387 203.214H631.773V192.433H643.387V203.214ZM698.994 275.308V416.359H652.098V163.708H556.525V357.812H545.307V242.267H528.009L479.811 218.665V242.267H469.265V384.962H445.858V191.707H422.177V123.914H418.958V191.707H395.277V489.165H761.053V275.308H698.994Z" fill="#E8EAEF"/>
<path d="M265.586 87.1209L272.01 90.5455L268.805 82.1895" fill="#296BEF"/>
<path d="M272.267 78.6113C273.473 71.204 268.447 64.2216 261.041 63.0155C253.634 61.8095 246.653 66.8366 245.447 74.2439C244.241 81.6511 249.268 88.6336 256.674 89.8396C264.08 91.0456 271.062 86.0185 272.267 78.6113Z" fill="#296BEF"/>
<path d="M264.586 72.7104C263.271 71.4227 261.175 71.4501 259.901 72.7651L259.052 73.6281L258.189 72.7651C256.888 71.4775 254.779 71.4912 253.492 72.8062C252.204 74.1076 252.218 76.2171 253.533 77.5047L256.765 80.6827C256.779 80.6964 256.779 80.6964 256.779 80.7101C257.299 81.217 257.929 81.5183 258.587 81.6142C259.614 81.7649 260.682 81.4498 261.463 80.6553L264.64 77.4088C265.914 76.0938 265.9 73.998 264.586 72.7104Z" fill="#FFBC47"/>
<path d="M495.987 20.7392L490.439 23.6021L493.288 16.479" fill="#296BEF"/>
<path d="M513.203 11.7942C513.121 18.2324 507.834 23.3692 501.41 23.287C494.973 23.2048 489.837 17.9173 489.919 11.4928C490.001 5.05465 495.288 -0.0821934 501.711 -3.89904e-06C508.135 0.0821856 513.285 5.36971 513.203 11.7942Z" fill="#296BEF"/>
<path d="M499.397 17.1913C501.93 17.2735 504.505 17.342 506.834 17.205C507.573 17.1639 508.231 15.9995 507.34 15.616C507.724 15.4242 508.107 15.2461 508.272 14.8215C508.436 14.4242 508.258 13.8763 507.833 13.7667C508.71 13.9996 509.08 12.6024 508.395 12.1503C508.765 11.849 509.066 11.438 509.148 10.9723C509.23 10.5065 509.039 9.97232 508.628 9.73945C508.354 9.58876 508.025 9.57507 507.71 9.57507C506.656 9.54767 505.601 9.53397 504.546 9.50657C504.848 7.86278 504.957 6.05461 504.149 4.6026C503.903 4.16425 503.231 3.63002 502.684 3.95878C502.177 4.27384 502.3 5.05464 502.328 5.54778C502.41 7.60252 501.204 9.65726 499.383 10.6024C499.397 10.5887 499.451 14.9585 499.397 17.1913Z" fill="#FFBC47"/>
<path d="M498.556 10.5557L494.722 10.5058L494.636 17.1077L498.471 17.1576L498.556 10.5557Z" fill="#FFBC47"/>
<path d="M265.627 186.735C265.627 188.214 264.422 189.406 262.956 189.406C261.477 189.406 260.285 188.2 260.285 186.735C260.285 185.255 261.49 184.063 262.956 184.063C264.435 184.05 265.627 185.255 265.627 186.735Z" stroke="#296BEF" stroke-miterlimit="10"/>
<path d="M243.795 11.6435C243.795 13.1229 242.589 14.3147 241.124 14.3147C239.645 14.3147 238.453 13.1092 238.453 11.6435C238.453 10.1641 239.658 8.97235 241.124 8.97235C242.589 8.97235 243.795 10.1641 243.795 11.6435Z" stroke="#296BEF" stroke-miterlimit="10"/>
<path d="M390.14 20.0405C390.14 21.52 388.935 22.7117 387.47 22.7117C386.004 22.7117 384.799 21.5063 384.799 20.0405C384.799 18.5611 386.004 17.3694 387.47 17.3694C388.935 17.3694 390.14 18.5611 390.14 20.0405Z" fill="#296BEF"/>
<path d="M129.526 98.2302C129.526 99.7096 128.321 100.901 126.855 100.901C125.376 100.901 124.185 99.6959 124.185 98.2302C124.185 96.7508 125.39 95.559 126.855 95.559C128.321 95.559 129.526 96.7508 129.526 98.2302Z" fill="#296BEF"/>
<path d="M776.802 184.776C776.802 186.255 775.597 187.447 774.132 187.447C772.653 187.447 771.461 186.241 771.461 184.776C771.461 183.31 772.666 182.105 774.132 182.105C775.611 182.105 776.802 183.296 776.802 184.776Z" fill="#296BEF"/>
<path d="M580.52 89.0387C581.995 89.0387 583.191 87.8427 583.191 86.3675C583.191 84.8922 581.995 83.6963 580.52 83.6963C579.045 83.6963 577.85 84.8922 577.85 86.3675C577.85 87.8427 579.045 89.0387 580.52 89.0387Z" stroke="#296BEF" stroke-miterlimit="10"/>
<path d="M213.251 401.003C212.868 401.003 212.553 400.688 212.553 400.304V395.386C212.553 395.003 212.868 394.688 213.251 394.688C213.635 394.688 213.95 395.003 213.95 395.386V400.304C213.95 400.688 213.635 401.003 213.251 401.003Z" fill="#296BEF"/>
<path d="M215.703 398.537H210.786C210.403 398.537 210.088 398.222 210.088 397.838C210.088 397.455 210.403 397.14 210.786 397.14H215.703C216.087 397.14 216.402 397.455 216.402 397.838C216.402 398.236 216.087 398.537 215.703 398.537Z" fill="#296BEF"/>
<path d="M85.7522 234.144C85.3687 234.144 85.0537 233.829 85.0537 233.446V228.528C85.0537 228.144 85.3687 227.829 85.7522 227.829C86.1357 227.829 86.4507 228.144 86.4507 228.528V233.446C86.4507 233.829 86.1357 234.144 85.7522 234.144Z" fill="#296BEF"/>
<path d="M88.218 231.679H83.301C82.9176 231.679 82.6025 231.364 82.6025 230.98C82.6025 230.596 82.9176 230.281 83.301 230.281H88.218C88.6015 230.281 88.9165 230.596 88.9165 230.98C88.9165 231.364 88.6015 231.679 88.218 231.679Z" fill="#296BEF"/>
<path d="M680.435 40.9304C680.051 40.9304 679.736 40.6153 679.736 40.2318V35.3141C679.736 34.9305 680.051 34.6155 680.435 34.6155C680.818 34.6155 681.133 34.9305 681.133 35.3141V40.2318C681.133 40.629 680.818 40.9304 680.435 40.9304Z" fill="#296BEF"/>
<path d="M682.901 38.4784H677.984C677.6 38.4784 677.285 38.1633 677.285 37.7798C677.285 37.3962 677.6 37.0812 677.984 37.0812H682.901C683.284 37.0812 683.599 37.3962 683.599 37.7798C683.599 38.1633 683.284 38.4784 682.901 38.4784Z" fill="#296BEF"/>
<path d="M672.135 211.145C671.751 211.145 671.437 210.83 671.437 210.446V205.529C671.437 205.145 671.751 204.83 672.135 204.83C672.518 204.83 672.833 205.145 672.833 205.529V210.446C672.82 210.83 672.518 211.145 672.135 211.145Z" fill="#296BEF"/>
<path d="M674.587 208.679H669.67C669.287 208.679 668.972 208.364 668.972 207.981C668.972 207.597 669.287 207.282 669.67 207.282H674.587C674.971 207.282 675.286 207.597 675.286 207.981C675.286 208.364 674.971 208.679 674.587 208.679Z" fill="#296BEF"/>
<path d="M830 489.165H761.052H501.958H395.277H0" stroke="#E8EAEF" stroke-miterlimit="10"/>
<path d="M694.872 444.289L701.268 488.041C701.967 492.781 705.952 496.343 710.732 496.466C715.088 496.589 721.484 496.685 730.729 496.685C740.303 496.685 746.973 496.576 751.479 496.452C756.273 496.315 760.272 492.767 760.957 488.028L767.353 444.289H694.872Z" fill="#A4D6FB"/>
<path d="M731.126 472.467C744.466 472.467 756.327 470.782 763.874 468.179L767.257 445.043H694.981L698.364 468.179C705.911 470.795 717.772 472.467 731.126 472.467Z" fill="#A4D6FB"/>
<path d="M772.407 456.22C772.407 462.275 753.917 467.179 731.113 467.179C708.308 467.179 689.818 462.275 689.818 456.22L687.832 439.755H774.393L772.407 456.22Z" fill="#78C1F4"/>
<path d="M774.393 439.755C774.393 446.097 755.013 451.248 731.113 451.248C707.212 451.248 687.832 446.111 687.832 439.755C687.832 433.413 707.212 428.262 731.113 428.262C755.026 428.276 774.393 433.413 774.393 439.755Z" fill="#A4D6FB"/>
<path d="M731.127 448.207C752.496 448.207 769.819 444.331 769.819 439.55C769.819 434.768 752.496 430.892 731.127 430.892C709.758 430.892 692.435 434.768 692.435 439.55C692.435 444.331 709.758 448.207 731.127 448.207Z" fill="#2F36AD"/>
<path opacity="0.5" d="M694.188 442.139C699.118 438.618 713.787 436.07 731.113 436.07C748.439 436.07 763.108 438.618 768.038 442.139C769.189 441.317 769.805 440.454 769.805 439.55C769.805 434.769 752.479 430.892 731.113 430.892C709.747 430.892 692.421 434.769 692.421 439.55C692.421 440.454 693.037 441.317 694.188 442.139Z" fill="#2F36AD"/>
<path d="M761.601 370.784C764.395 360.73 760.998 352.799 757.314 343.826C753.63 334.854 753 325.347 754.424 315.909C756.314 303.101 760.56 290.745 755.657 278.335C751.068 266.623 746.631 251.171 733.962 246.24C721.649 240.98 712.321 253.13 712.527 264.322C712.732 275.513 719.087 285.609 715.91 296.663C713.499 305.718 710.335 316.43 715.061 325.101C720.717 335.84 731.236 343.402 727.305 356.456C725.758 361.141 723.21 365.1 722.676 369.825C722.046 376.921 725.621 378.661 728.853 384.318C742.412 408.153 717.567 417.769 727.319 443.96C727.593 444.7 728.305 445.18 729.086 445.138C729.949 445.097 730.661 444.44 730.757 443.591C733.866 414.304 754.725 424.399 754.944 400.674C754.986 396.263 753.616 391.811 754.15 387.414C754.753 380.661 759.985 377.154 761.601 370.784Z" fill="#FFBC47"/>
<path d="M749.507 399.838C749.192 399.838 748.932 400.099 748.932 400.414C748.932 401.003 748.713 414.633 734.962 416.742C736.044 414.824 737.18 413.016 738.317 411.222C740.879 407.167 743.303 403.331 744.713 398.633C748.548 385.866 748.055 374.99 745.754 364.798C755.438 360.018 752.767 343.703 752.644 343.004C752.589 342.689 752.288 342.497 751.973 342.539C751.658 342.593 751.452 342.895 751.507 343.21C751.534 343.374 754.137 359.1 745.48 363.675C744.22 358.442 742.522 353.388 740.687 348.347C736.756 337.525 738.701 323.375 739.988 314.019C740.043 313.608 740.098 313.224 740.153 312.841C752.288 310.142 753.041 294.622 753.041 294.471C753.055 294.156 752.808 293.882 752.493 293.869C752.479 293.869 752.479 293.869 752.466 293.869C752.164 293.869 751.904 294.115 751.89 294.417C751.89 294.567 751.178 308.827 740.317 311.594C740.495 310.211 740.646 308.978 740.742 307.909C741.18 301.759 741.276 296.156 741.043 291.074C741.043 291.033 741.043 291.006 741.043 290.965C740.385 277.075 737.208 267.198 731.51 261.568C731.277 261.349 730.921 261.349 730.688 261.568C730.469 261.801 730.469 262.157 730.688 262.39C736.071 267.719 739.125 277.061 739.838 290.211C731.743 287.061 730.579 272.856 730.565 272.719C730.538 272.404 730.305 272.157 729.949 272.184C729.634 272.212 729.387 272.486 729.415 272.801C729.469 273.445 730.688 288.43 739.906 291.472C740.111 296.403 740.016 301.855 739.577 307.814C739.44 309.43 739.166 311.485 738.838 313.854C738.112 319.169 737.167 326.019 737.194 332.964C725.922 328.703 725.1 314.896 725.087 314.759C725.073 314.457 724.813 314.211 724.511 314.211C724.498 314.211 724.498 314.211 724.484 314.211C724.169 314.224 723.922 314.498 723.936 314.813C723.95 314.964 724.799 329.881 737.222 334.21C737.331 339.224 737.961 344.251 739.591 348.73C744.645 362.634 748.781 376.62 744.7 394.099C735.674 392.373 734.455 379.729 734.441 379.606C734.414 379.291 734.154 379.086 733.811 379.086C733.496 379.113 733.263 379.387 733.291 379.716C733.304 379.853 734.592 393.291 744.426 395.222C744.166 396.236 743.905 397.263 743.59 398.304C742.221 402.852 739.838 406.619 737.317 410.605C735.975 412.715 734.606 414.906 733.332 417.304C733.332 417.317 733.318 417.317 733.318 417.331C729.826 423.906 727.141 432.07 728.497 444.645C728.524 444.933 728.785 445.166 729.072 445.166C729.086 445.166 729.113 445.166 729.141 445.166C729.456 445.139 729.689 444.851 729.647 444.536C728.333 432.276 730.812 424.495 734.25 418.03C749.863 416.235 750.069 400.578 750.069 400.414C750.083 400.085 749.822 399.838 749.507 399.838Z" fill="#FFBC47"/>
<path opacity="0.2" d="M754.904 399.332C754.931 399.77 754.931 400.222 754.931 400.66C754.794 416.235 745.741 417.235 738.674 424.358C739.509 420.208 739.701 415.057 742.468 411.674C745.522 408.29 749.576 407.605 752.63 403.551C753.726 402.03 754.452 400.633 754.904 399.332ZM757.315 343.813C753.63 334.84 753 325.334 754.425 315.895C754.562 314.964 754.712 314.046 754.877 313.115C750.028 314.978 746.207 318.539 743.906 323.429C737.044 337.977 742.454 347.84 748.343 358.839C753.151 367.826 750.042 376.113 751.055 385.592C751.48 389.551 753.206 392.633 754.548 395.592C754.205 392.852 753.808 390.113 754.137 387.4C754.753 380.647 759.985 377.14 761.615 370.771C764.396 360.73 760.999 352.785 757.315 343.813ZM731.73 420.002C730.771 417.947 729.621 415.715 729.429 413.468C726.333 421.578 722.896 429.975 726.58 441.824C726.594 441.851 726.607 441.892 726.607 441.919C726.813 442.591 727.046 443.262 727.306 443.96C727.361 444.097 727.429 444.221 727.498 444.33C727.511 444.344 727.525 444.371 727.539 444.385C727.621 444.495 727.717 444.604 727.826 444.686L727.84 444.7C728.169 444.974 728.607 445.139 729.059 445.111C729.401 445.097 729.716 444.974 729.99 444.782C730.524 444.385 730.648 443.947 730.703 443.659C730.703 443.618 730.716 443.591 730.73 443.55C731.196 439.193 732.045 435.714 733.168 432.851C732.524 433.262 731.867 433.659 731.223 434.07C733.319 429.344 734.77 426.536 731.73 420.002Z" fill="black"/>
<path d="M793.499 365.565C787.404 354.388 787.418 347.004 788.076 335.087C788.747 322.895 785.021 306.635 770.133 303.923C758.957 301.896 749.863 306.43 745.713 315.238C738.851 329.786 744.261 339.648 750.15 350.648C754.958 359.634 751.849 367.921 752.862 377.401C753.876 386.88 762.34 391.291 755.232 401.112C752.177 405.181 748.123 405.852 745.069 409.235C742.015 412.961 742.083 418.797 741.001 423.125C738.276 434.043 727.579 432.495 727.14 443.563C727.113 444.385 727.77 445.207 728.359 445.18C728.935 445.152 729.4 445.262 729.811 444.522C732.318 440.07 736.454 440.755 741.097 438.7C744.535 437.18 745.603 432.92 753.876 431.933C764.682 430.632 774.53 437.687 779.954 423.125C781.981 418.043 781.31 413.646 782.323 408.564C783.337 401.797 787.747 397.729 792.143 392.989C799.937 384.195 798.923 375.387 793.499 365.565Z" fill="#6774FF"/>
<path d="M772.065 344.812C772.052 344.812 772.038 344.812 772.011 344.812C761.889 343.95 754.822 331.621 754.52 331.087C754.37 330.813 754.466 330.457 754.739 330.306C755.013 330.155 755.37 330.251 755.52 330.525C755.589 330.648 762.587 342.854 772.106 343.662C772.422 343.689 772.654 343.963 772.627 344.278C772.613 344.58 772.353 344.812 772.065 344.812Z" fill="#6774FF"/>
<path d="M769.161 397.838C769.052 397.838 768.942 397.811 768.846 397.743C761.436 392.811 761.888 370.73 761.902 369.784C761.916 369.469 762.162 369.209 762.491 369.223C762.806 369.237 763.066 369.497 763.053 369.812C763.053 370.031 762.587 392.195 769.476 396.77C769.736 396.948 769.819 397.304 769.641 397.565C769.531 397.743 769.353 397.838 769.161 397.838Z" fill="#6774FF"/>
<path d="M772.956 378.086C772.709 378.086 772.476 377.921 772.394 377.661C772.312 377.36 772.49 377.031 772.791 376.949C784.46 373.675 785.392 354.771 785.406 354.593C785.419 354.278 785.679 354.031 786.008 354.045C786.323 354.059 786.57 354.333 786.556 354.648C786.515 355.456 785.57 374.579 773.106 378.072C773.065 378.086 773.01 378.086 772.956 378.086Z" fill="#6774FF"/>
<path d="M755.849 426.988C754.63 426.988 753.342 426.879 751.986 426.646C751.671 426.591 751.466 426.29 751.521 425.975C751.575 425.66 751.849 425.454 752.192 425.509C769.244 428.427 775.434 410.386 775.503 410.194C775.599 409.893 775.927 409.729 776.229 409.824C776.53 409.92 776.694 410.249 776.599 410.55C776.53 410.742 770.942 426.988 755.849 426.988Z" fill="#6774FF"/>
<path d="M770.928 335.826C770.777 335.826 770.613 335.758 770.503 335.635C770.284 335.402 770.312 335.032 770.545 334.826C777.845 328.142 772.996 313.772 772.941 313.635C772.846 313.334 772.996 313.005 773.297 312.896C773.612 312.8 773.928 312.95 774.037 313.252C774.256 313.868 779.187 328.484 771.325 335.676C771.202 335.772 771.065 335.826 770.928 335.826Z" fill="#6774FF"/>
<path d="M728.483 444.714C728.428 444.714 728.387 444.714 728.332 444.7C728.031 444.618 727.839 444.303 727.921 443.988C729.25 439.098 734.92 436.604 738.673 434.947C739.81 434.44 740.796 434.015 741.371 433.632C771.846 413.811 780.173 376.14 766.792 318.471C766.723 318.156 766.915 317.854 767.216 317.786C767.531 317.717 767.833 317.909 767.901 318.21C781.392 376.414 772.914 414.482 741.974 434.605C741.316 435.029 740.289 435.481 739.111 436.002C735.564 437.563 730.195 439.919 729.003 444.289C728.976 444.549 728.743 444.714 728.483 444.714Z" fill="#6774FF"/>
<path opacity="0.75" d="M727.154 443.577C727.127 444.399 727.784 445.221 728.373 445.193C728.401 445.193 728.428 445.193 728.455 445.193C730.277 443.823 727.976 441.865 730.729 435.399C728.784 437.276 727.305 439.618 727.154 443.577Z" fill="#15CCBE"/>
<path d="M729.195 416.769C725.84 409.55 729.003 400.263 725.702 395.003C721.662 388.414 714.896 393.428 707.048 384.373C700.46 376.771 705.199 366.25 690.202 358.401C685.627 356.004 680.313 357.182 678.532 362.36C676.396 367.209 679.779 374.168 681.354 378.839C682.888 382.811 684.723 385.77 683.942 390.167C683.929 390.208 683.929 390.263 683.915 390.304C683.052 393.688 680.806 395.496 681.997 399.482C684.504 409.194 698.255 408.318 705.199 414.372C710.089 418.646 705.678 423.742 710.472 430.207C715.225 436.605 717.649 429.646 726.209 444.796C726.511 445.344 727.209 445.536 727.757 445.221C728.14 445.002 728.36 444.591 728.319 444.152C727.086 427.755 734.14 427.386 729.195 416.769Z" fill="#FF9422"/>
<path d="M722.593 428.605C721.552 426.947 720.607 425.413 720.045 423.632C725.346 419.235 722.401 408.77 722.264 408.304C722.168 408.003 721.853 407.824 721.552 407.907C721.251 408.003 721.073 408.318 721.155 408.619C721.182 408.715 723.867 418.221 719.717 422.358C719.566 421.55 719.484 420.673 719.511 419.715C719.566 417.742 719.566 415.824 719.388 413.975C719.388 413.948 719.402 413.934 719.402 413.907C719.402 413.865 719.388 413.838 719.374 413.797C719.018 410.482 718.046 407.4 715.608 404.633C719.155 400.126 714.183 391.743 713.964 391.373C713.8 391.099 713.444 391.017 713.17 391.181C712.896 391.345 712.814 391.702 712.978 391.976C713.033 392.058 717.649 399.852 714.813 403.797C713.731 402.742 712.43 401.729 710.828 400.77C705.431 397.537 701.24 394.236 697.967 390.4C701.501 385.784 697.268 375.14 697.077 374.661C696.953 374.373 696.625 374.223 696.323 374.346C696.036 374.469 695.885 374.798 696.008 375.099C696.049 375.209 700.049 385.25 697.227 389.469C692.255 383.236 689.503 375.565 687.818 364.565C687.777 364.25 687.503 364.031 687.16 364.086C686.845 364.141 686.626 364.428 686.681 364.743C687.517 370.154 688.599 374.757 690.064 378.812C684.462 376.25 683.709 370.168 683.682 369.894C683.654 369.579 683.353 369.36 683.052 369.387C682.736 369.428 682.504 369.702 682.545 370.017C682.558 370.099 683.476 377.729 690.612 380.25C692.201 384.25 694.214 387.688 696.789 390.77C696.803 390.798 696.803 390.825 696.83 390.852C696.844 390.866 696.857 390.866 696.871 390.866C698.35 392.633 700.021 394.277 701.898 395.866C693.981 398.085 687.585 390.893 687.517 390.825C687.311 390.578 686.941 390.565 686.708 390.77C686.476 390.976 686.448 391.345 686.654 391.578C686.722 391.647 691.858 397.469 698.83 397.469C700.145 397.469 701.528 397.249 702.966 396.756C705.13 398.482 707.541 400.126 710.266 401.756C715.745 405.03 717.635 408.893 718.21 413.386C707.541 413.77 703.733 407.646 703.569 407.386C703.404 407.112 703.048 407.03 702.774 407.181C702.5 407.345 702.418 407.701 702.569 407.961C702.733 408.249 706.609 414.564 717.21 414.564C717.566 414.564 717.95 414.55 718.32 414.537C718.457 416.167 718.443 417.879 718.388 419.673C718.265 423.797 719.826 426.29 721.634 429.194C721.894 429.605 722.155 430.029 722.415 430.454C712.704 428.605 711.567 422.728 711.513 422.468C711.458 422.153 711.17 421.92 710.855 422.002C710.54 422.057 710.335 422.345 710.376 422.66C710.431 422.961 711.704 430.002 723.168 431.769C724.839 434.755 726.332 438.522 726.524 444.728C726.538 445.043 726.784 445.289 727.099 445.289H727.113C727.428 445.276 727.674 445.015 727.674 444.7C727.4 436.303 724.73 432.029 722.593 428.605Z" fill="#FF9422"/>
<path d="M149.333 400.619C149.223 400.386 144.128 399.592 143.69 400.222C143.252 400.852 144.128 402.167 144.526 402.77C144.923 403.373 146.95 403.92 147.662 403.51C148.388 403.085 149.949 402.016 149.333 400.619Z" fill="#6774FF"/>
<path d="M154.359 396.222C154.072 396.606 153.989 397.112 154.14 397.564L156.496 404.509C156.879 405.66 155.784 406.756 154.633 406.359L147.703 404.003C147.237 403.838 146.744 403.92 146.361 404.208L140.485 408.578C139.512 409.304 138.129 408.605 138.143 407.386L138.198 403.893L138.252 400.071C138.252 399.578 138.019 399.126 137.636 398.852L131.651 394.619C130.665 393.921 130.911 392.387 132.075 392.03L139.06 389.852C139.526 389.715 139.882 389.359 140.033 388.893L141.101 385.483L142.211 381.907C142.567 380.743 144.101 380.51 144.799 381.496L149.031 387.483C149.305 387.88 149.757 388.113 150.237 388.099L157.564 388.017C158.769 388.003 159.468 389.387 158.742 390.359L154.359 396.222Z" fill="#FEC752"/>
<path d="M113.873 384.305C113.763 384.072 108.668 383.277 108.23 383.907C107.792 384.537 108.668 385.852 109.066 386.455C109.463 387.058 111.49 387.606 112.202 387.195C112.914 386.77 114.476 385.702 113.873 384.305Z" fill="#6774FF"/>
<path d="M118.886 379.907C118.598 380.291 118.516 380.798 118.68 381.25L121.022 388.195C121.406 389.346 120.31 390.428 119.16 390.044L116.982 389.304L112.229 387.688C111.777 387.524 111.27 387.606 110.887 387.894L105.011 392.263C104.039 392.989 102.655 392.291 102.669 391.071L102.779 383.743C102.779 383.264 102.546 382.811 102.162 382.538L96.177 378.305C95.1909 377.592 95.4374 376.072 96.6016 375.702L103.573 373.538H103.587C104.052 373.401 104.409 373.045 104.559 372.579L106.737 365.593C107.107 364.428 108.627 364.196 109.326 365.182L113.558 371.168C113.832 371.565 114.284 371.798 114.763 371.784L122.091 371.702C123.296 371.688 124.008 373.072 123.282 374.045L118.886 379.907Z" fill="#FEC752"/>
<path d="M85.9453 398.304C85.8357 398.071 80.7406 397.277 80.3024 397.907C79.8641 398.537 80.7406 399.852 81.1378 400.455C81.535 401.058 83.5621 401.605 84.2743 401.195C84.9865 400.77 86.5616 399.701 85.9453 398.304Z" fill="#6774FF"/>
<path d="M86.4658 391.154C86.1782 391.537 86.096 392.044 86.2466 392.496L88.5887 399.441C88.9859 400.592 87.8765 401.688 86.7397 401.29L84.9455 400.688L79.7956 398.934C79.3437 398.77 78.8369 398.852 78.4534 399.14L72.5777 403.523C71.6052 404.236 70.2356 403.537 70.2493 402.318L70.3451 395.003C70.3588 394.523 70.126 394.058 69.7288 393.784L63.7572 389.551C62.771 388.852 63.0176 387.318 64.1681 386.962L71.1669 384.798C71.6326 384.647 71.9887 384.291 72.1257 383.825L74.3171 376.839C74.6732 375.675 76.2072 375.442 76.9057 376.428L81.1242 382.414C81.3981 382.811 81.8501 383.044 82.3295 383.031H82.3432L89.657 382.948C90.876 382.935 91.5745 384.318 90.8486 385.291L86.4658 391.154Z" fill="#FEC752"/>
<path d="M136.402 401.866L145.223 402.921L137.868 394.852" fill="white"/>
<path opacity="0.2" d="M138.197 403.893L138.251 400.071C138.251 399.578 138.019 399.126 137.635 398.852L131.65 394.619C130.664 393.921 130.91 392.387 132.074 392.03L139.059 389.852C139.525 389.715 139.881 389.359 140.032 388.893L141.1 385.483C141.265 385.825 141.415 386.181 141.552 386.537C143.949 392.674 142.429 399.386 138.197 403.893Z" fill="#020202"/>
<path opacity="0.2" d="M106.969 398.771C110.297 407.291 119.899 411.51 128.418 408.181C136.937 404.853 141.155 395.25 137.827 386.73C134.499 378.21 124.898 373.991 116.379 377.319C107.846 380.648 103.641 390.25 106.969 398.771Z" fill="#020202"/>
<path d="M109.023 398.578C112.351 407.098 121.953 411.318 130.472 407.989C138.991 404.66 143.209 395.058 139.881 386.537C136.553 378.017 126.952 373.798 118.433 377.127C109.913 380.455 105.695 390.058 109.023 398.578Z" fill="white"/>
<path d="M130.088 398.866C126.746 400.236 123.363 401.605 120.186 402.605C119.186 402.92 117.734 401.688 118.72 400.742C118.118 400.688 117.515 400.633 117.077 400.153C116.666 399.701 116.625 398.88 117.132 398.537C116.077 399.277 114.899 397.606 115.57 396.66C114.926 396.441 114.31 396.058 113.968 395.469C113.625 394.88 113.598 394.085 114.036 393.565C114.324 393.222 114.748 393.044 115.173 392.88C116.57 392.318 117.967 391.77 119.35 391.208C118.118 389.167 117.077 386.825 117.433 384.469C117.542 383.757 118.172 382.716 119.063 382.88C119.898 383.031 120.117 384.14 120.337 384.811C121.254 387.592 123.87 389.715 126.774 390.072C126.801 390.072 128.897 395.921 130.088 398.866Z" fill="#296BEF"/>
<path d="M131.306 398.397L136.385 396.416L132.975 387.675L127.897 389.656L131.306 398.397Z" fill="#296BEF"/>
<path d="M91.5469 403.112L83.877 407.592L87.4106 397.263" fill="white"/>
<path opacity="0.2" d="M116.981 389.181V389.304L112.228 387.688C111.776 387.524 111.269 387.606 110.886 387.894L105.01 392.263C104.038 392.989 102.654 392.291 102.668 391.071L102.778 383.743C102.778 383.264 102.545 382.811 102.161 382.537L96.1761 378.305C95.1899 377.592 95.4365 376.072 96.6007 375.702L103.572 373.538C110.968 374.962 116.693 381.332 116.981 389.181Z" fill="#020202"/>
<path opacity="0.2" d="M86.4655 391.154C86.1778 391.537 86.0957 392.044 86.2463 392.496L88.5884 399.441C88.9856 400.592 87.8762 401.688 86.7394 401.29L84.9452 400.688C82.562 397.934 81.0554 394.373 80.9047 390.441C80.7952 387.811 81.3293 385.291 82.3292 383.031H82.3428L89.6567 382.948C90.8757 382.935 91.5742 384.318 90.8483 385.291L86.4655 391.154Z" fill="#020202"/>
<path d="M115.351 389.181C115.694 398.318 108.572 406.016 99.4361 406.359C90.3006 406.701 82.6033 399.578 82.2609 390.441C81.9185 381.305 89.0406 373.606 98.1761 373.264C107.312 372.908 114.995 380.031 115.351 389.181Z" fill="white"/>
<path d="M96.1483 397.838C99.7505 397.756 103.407 397.674 106.722 397.318C107.763 397.208 108.612 395.496 107.325 395.03C107.845 394.729 108.379 394.455 108.598 393.839C108.804 393.263 108.502 392.496 107.9 392.373C109.16 392.633 109.585 390.633 108.585 390.03C109.078 389.565 109.489 388.976 109.571 388.304C109.653 387.633 109.352 386.88 108.749 386.578C108.352 386.387 107.886 386.387 107.434 386.4C105.928 386.441 104.435 386.496 102.928 386.537C103.243 384.181 103.27 381.606 101.997 379.592C101.613 378.99 100.627 378.277 99.8738 378.784C99.1752 379.264 99.4081 380.359 99.4766 381.072C99.7368 383.989 98.1891 386.989 95.6553 388.455C95.6553 388.455 96.0525 394.674 96.1483 397.838Z" fill="#296BEF"/>
<path d="M94.46 388.519L89.0127 388.726L89.3692 398.103L94.8165 397.896L94.46 388.519Z" fill="#296BEF"/>
<path d="M162.028 398.441L162.11 472.275L86.7666 472.371V398.523L162.028 398.441Z" fill="#EACA9B"/>
<path d="M86.7668 398.441V472.275L69.2218 472.302L69.1533 398.455L86.7668 398.441Z" fill="#E2B17D"/>
<path d="M171.657 417.126H96.313L86.7666 398.441H162.11L171.657 417.126Z" fill="#E2B17D"/>
<path d="M64.3595 475.603H178.026C181.696 475.603 184.682 472.617 184.682 468.946V354.675C184.682 353.771 185.422 353.031 186.326 353.031H205.816C206.761 353.031 207.528 352.264 207.528 351.319C207.528 350.374 206.761 349.607 205.816 349.607H186.326C183.532 349.607 181.258 351.881 181.258 354.675V468.946C181.258 470.727 179.806 472.179 178.026 472.179H64.3595C63.4145 472.179 62.6475 472.946 62.6475 473.891C62.6475 474.836 63.4145 475.603 64.3595 475.603Z" fill="#6774FF"/>
<path d="M163.069 501.014C169.884 501.014 175.409 495.488 175.409 488.672C175.409 481.855 169.884 476.329 163.069 476.329C156.254 476.329 150.729 481.855 150.729 488.672C150.729 495.488 156.254 501.014 163.069 501.014Z" fill="#296BEF"/>
<path d="M163.069 495C166.564 495 169.397 492.167 169.397 488.672C169.397 485.176 166.564 482.343 163.069 482.343C159.574 482.343 156.741 485.176 156.741 488.672C156.741 492.167 159.574 495 163.069 495Z" fill="white"/>
<path d="M83.4664 501.014C90.2818 501.014 95.8068 495.488 95.8068 488.672C95.8068 481.855 90.2818 476.329 83.4664 476.329C76.651 476.329 71.126 481.855 71.126 488.672C71.126 495.488 76.651 501.014 83.4664 501.014Z" fill="#296BEF"/>
<path d="M77.1387 488.672C77.1387 492.165 79.9738 495 83.4664 495C86.959 495 89.7941 492.165 89.7941 488.672C89.7941 485.179 86.959 482.343 83.4664 482.343C79.9738 482.343 77.1387 485.179 77.1387 488.672Z" fill="white"/>
<path d="M524.489 84.0388V459.166C524.489 461.316 524.27 463.426 523.859 465.453C523.654 466.467 523.393 467.453 523.092 468.425C522.928 468.919 522.763 469.412 522.599 469.891C521.558 472.754 520.093 475.412 518.298 477.809C517.394 479.014 516.408 480.151 515.354 481.206C514.299 482.261 513.162 483.233 511.971 484.137C511.176 484.726 510.341 485.288 509.492 485.822H509.478C508.629 486.343 507.752 486.822 506.848 487.261H506.834C505.479 487.918 504.054 488.48 502.602 488.932H502.589C501.616 489.233 500.63 489.493 499.617 489.699C497.576 490.11 495.467 490.329 493.316 490.329H339.465C337.191 490.329 334.972 490.082 332.836 489.617C332.48 489.535 332.137 489.466 331.781 489.37C331.398 489.274 331.001 489.165 330.617 489.055C329.001 488.576 327.453 487.973 325.96 487.261C325.207 486.891 324.481 486.507 323.783 486.096C323.454 485.904 323.125 485.713 322.81 485.507C322.125 485.083 321.468 484.617 320.824 484.137C318.824 482.644 317.017 480.905 315.428 478.987C314.798 478.22 314.195 477.425 313.634 476.59C312.798 475.343 312.045 474.042 311.387 472.672C310.497 470.85 309.799 468.946 309.292 466.96V466.946C308.648 464.453 308.306 461.85 308.306 459.166V84.0388C308.306 66.8475 322.262 52.8753 339.479 52.8753H493.33C510.546 52.8753 524.489 66.8475 524.489 84.0388Z" fill="#2F36AD"/>
<path d="M517.64 84.0388V459.166C517.64 460.823 517.476 462.481 517.147 464.097C517.01 464.823 516.819 465.549 516.572 466.344L516.12 467.672C515.381 469.727 514.257 471.795 512.819 473.713C512.121 474.645 511.34 475.549 510.505 476.371C509.738 477.151 508.834 477.932 507.834 478.686C507.368 479.028 506.807 479.412 506.163 479.823L505.903 479.987C505.368 480.316 504.821 480.631 504.245 480.918L503.848 481.096C502.903 481.562 501.917 481.959 500.903 482.288L500.561 482.398C499.753 482.644 499 482.836 498.26 483.001C496.63 483.316 494.973 483.48 493.316 483.48H339.464C337.725 483.48 335.985 483.302 334.301 482.932C333.726 482.809 333.15 482.672 332.602 482.507C331.342 482.138 330.11 481.658 328.904 481.083C328.329 480.795 327.754 480.494 327.261 480.192C326.973 480.028 326.754 479.905 326.562 479.781L326.412 479.686C325.987 479.425 325.508 479.097 324.919 478.658C323.399 477.508 321.974 476.151 320.7 474.617C320.18 473.987 319.728 473.384 319.317 472.782C318.646 471.782 318.057 470.741 317.564 469.713C316.92 468.385 316.4 467.028 316.016 465.617L315.92 465.248C315.414 463.261 315.153 461.22 315.153 459.166V84.0388C315.153 70.6419 326.069 59.7244 339.478 59.7244H493.329C503.561 59.7244 512.34 66.0941 515.915 75.0664C517.024 77.8335 517.64 80.8745 517.64 84.0388Z" fill="#A4D6FB"/>
<path opacity="0.2" d="M494.85 189.406H332.877C329.042 189.406 325.919 186.296 325.919 182.447V121.024C325.919 117.189 329.028 114.065 332.877 114.065H494.85C498.685 114.065 501.808 117.175 501.808 121.024V182.447C501.794 186.296 498.685 189.406 494.85 189.406Z" fill="#020202"/>
<path d="M497.384 186.735H335.425C331.59 186.735 328.467 183.625 328.467 179.776V118.353C328.467 114.517 331.576 111.394 335.425 111.394H497.398C501.233 111.394 504.356 114.504 504.356 118.353V179.776C504.342 183.625 501.233 186.735 497.384 186.735Z" fill="white"/>
<path opacity="0.3" d="M484.276 128.065L478.223 129.024L482.674 133.243L481.729 139.298L487.112 136.366L492.576 139.147L491.453 133.12L495.781 128.777L489.7 127.983L486.906 122.517L484.276 128.065Z" fill="#FFBC47"/>
<path d="M462.828 128.065L456.774 129.024L461.226 133.243L460.281 139.298L465.663 136.366L471.128 139.147L470.005 133.12L474.333 128.777L468.252 127.983L465.458 122.517L462.828 128.065Z" fill="#FFBC47"/>
<path d="M441.366 128.065L435.312 129.024L439.778 133.243L438.819 139.298L444.201 136.366L449.68 139.147L448.543 133.12L452.871 128.777L446.804 127.983L444.01 122.517L441.366 128.065Z" fill="#FFBC47"/>
<path d="M418.328 133.243L417.37 139.298L422.547 136.489L422.752 136.38L428.217 139.147L427.108 133.12L431.422 128.777L425.355 127.983L422.547 122.517L419.903 128.051L413.863 129.038L418.328 133.243Z" fill="#FFBC47"/>
<path d="M398.469 128.065L392.415 129.024L396.866 133.243L395.921 139.298L401.304 136.366L406.769 139.147L405.646 133.12L409.974 128.777L403.893 127.983L401.099 122.517L398.469 128.065Z" fill="#FFBC47"/>
<g opacity="0.5">
<path opacity="0.5" d="M392.415 150.516H471.813" stroke="#2F36AD" stroke-miterlimit="10"/>
</g>
<g opacity="0.5">
<path opacity="0.5" d="M392.415 158.872H487.002" stroke="#2F36AD" stroke-miterlimit="10"/>
</g>
<g opacity="0.5">
<path opacity="0.5" d="M392.415 167.242H487.002" stroke="#2F36AD" stroke-miterlimit="10"/>
</g>
<g opacity="0.5">
<path opacity="0.5" d="M392.415 175.612H487.002" stroke="#2F36AD" stroke-miterlimit="10"/>
</g>
<path opacity="0.36" d="M360.379 165.845C371.725 165.845 380.923 156.645 380.923 145.297C380.923 133.949 371.725 124.75 360.379 124.75C349.032 124.75 339.834 133.949 339.834 145.297C339.834 156.645 349.032 165.845 360.379 165.845Z" fill="#6774FF"/>
<path d="M369.199 140.736C370.788 143.489 369.418 147.256 371.02 149.996C371.664 151.092 372.76 151.955 373.061 153.188C373.321 154.229 372.924 155.393 372.075 156.064C371.226 156.722 369.993 156.831 369.048 156.338C368.843 156.229 368.651 156.092 368.432 156.037C367.637 155.804 366.911 156.516 366.227 156.982C365.391 157.557 364.295 157.818 363.337 157.489C362.104 157.078 361.337 155.831 360.926 154.599C359.776 151.147 360.597 147.366 361.652 143.873C362.186 142.133 362.967 140.202 364.679 139.572" fill="#1530A4"/>
<path d="M362.556 153.023C362.556 153.023 362.488 156.188 362.981 156.393C363.939 156.804 365.022 157.023 365.022 157.023C365.022 157.023 362.789 159.53 361.077 159.448C358.68 159.338 356.585 156.585 356.612 156.229C356.667 155.612 356.27 152.105 356.27 152.105" fill="#6774FF"/>
<path d="M368.884 140.106C368.884 140.106 369.39 146.229 368.336 149.434C367.569 151.804 364.391 154.023 361.734 153.996C354.434 153.996 353.119 144.078 353.16 143.599C353.201 143.119 363.925 138.955 363.925 138.955L368.884 140.106Z" fill="#6774FF"/>
<path d="M358.515 156.448C358.515 156.448 361.843 160.146 362.98 156.393C365.856 157.201 368.952 157.777 370.198 160.393C374.184 172.146 361.186 173.173 357.515 173.173C352.324 173.173 343.778 170.31 348.078 160.612C349.407 157.626 351.407 155.777 358.515 156.448Z" fill="#FFBC47"/>
<path d="M349.366 158.256C349.202 158.174 349.037 158.078 348.887 157.982C348.051 157.489 347.284 156.955 346.928 156.009C346.421 154.64 346.175 152.53 346.887 151.201C347.367 150.297 348.27 149.708 348.887 148.9C349.736 147.777 349.996 146.311 350.065 144.9C350.133 143.489 350.051 142.065 350.352 140.681C350.859 138.325 351.53 136.078 353.352 134.558C356.255 132.12 362.09 130.681 365.268 133.394C365.843 133.887 365.952 134.284 366.733 134.353C367.774 134.448 368.459 134.585 369.39 135.133C370.431 135.736 371.691 136.585 371.541 137.955C371.445 138.9 370.363 140.393 369.555 140.845C369.212 141.037 368.815 141.092 368.432 141.092C367.199 141.119 366.172 140.311 364.953 140.448C364.364 140.517 363.802 140.832 363.432 141.298C362.994 141.832 363.049 142.585 362.542 143.092C361.72 143.9 360.46 143.832 359.488 144.366C359.323 144.448 359.159 144.558 359.063 144.708C358.967 144.859 358.967 145.051 358.954 145.229C358.94 145.736 358.913 146.256 358.899 146.763C358.419 146.558 358.365 145.873 357.967 145.517C357.584 145.188 356.954 145.27 356.57 145.612C356.187 145.941 355.995 146.448 355.899 146.941C355.776 147.544 355.981 148.174 356.173 148.777C356.488 149.818 357.379 150.749 358.104 150.064C358.625 150.832 358.05 152.119 358.036 152.982C358.022 153.667 358.036 155.037 358.68 155.489C359.269 155.9 360.214 155.585 360.241 156.667C360.268 157.653 359.296 158.42 358.31 158.544C357.337 158.667 356.365 158.324 355.434 158.037C354.489 157.763 353.461 157.544 352.544 157.9C351.982 158.119 351.503 158.53 350.928 158.626C350.393 158.722 349.859 158.516 349.366 158.256Z" fill="#1530A4"/>
<path opacity="0.2" d="M494.741 288.554H332.781C328.946 288.554 325.823 285.444 325.823 281.595V220.172C325.823 216.337 328.932 213.213 332.781 213.213H494.754C498.589 213.213 501.712 216.323 501.712 220.172V281.595C501.698 285.431 498.589 288.554 494.741 288.554Z" fill="#020202"/>
<path d="M497.384 285.828H335.425C331.59 285.828 328.467 282.718 328.467 278.869V217.446C328.467 213.611 331.576 210.487 335.425 210.487H497.398C501.233 210.487 504.355 213.597 504.355 217.446V278.869C504.342 282.705 501.233 285.828 497.384 285.828Z" fill="white"/>
<path opacity="0.3" d="M484.276 227.144L478.223 228.117L482.674 232.336L481.729 238.391L487.112 235.459L492.577 238.226L491.453 232.199L495.781 227.857L489.7 227.076L486.906 221.61L484.276 227.144Z" fill="#FFBC47"/>
<path opacity="0.3" d="M462.828 227.144L456.774 228.117L461.226 232.336L460.281 238.391L465.663 235.459L471.128 238.226L470.005 232.199L474.333 227.857L468.252 227.076L465.458 221.61L462.828 227.144Z" fill="#FFBC47"/>
<path opacity="0.3" d="M441.366 227.144L435.312 228.117L439.778 232.336L438.819 238.391L444.201 235.459L449.68 238.226L448.543 232.199L452.871 227.857L446.804 227.076L444.01 221.61L441.366 227.144Z" fill="#FFBC47"/>
<path d="M418.328 232.336L417.37 238.377L422.547 235.583L422.752 235.473L428.217 238.24L427.108 232.199L431.422 227.87L425.355 227.076L422.547 221.61L419.903 227.144L413.863 228.131L418.328 232.336Z" fill="#FFBC47"/>
<path d="M398.469 227.144L392.415 228.117L396.866 232.336L395.921 238.391L401.304 235.459L406.769 238.226L405.646 232.199L409.974 227.857L403.893 227.076L401.099 221.61L398.469 227.144Z" fill="#FFBC47"/>
<g opacity="0.5">
<path opacity="0.5" d="M392.415 249.596H471.813" stroke="#2F36AD" stroke-miterlimit="10"/>
</g>
<g opacity="0.5">
<path opacity="0.5" d="M392.415 257.966H487.002" stroke="#2F36AD" stroke-miterlimit="10"/>
</g>
<g opacity="0.5">
<path opacity="0.5" d="M392.415 266.335H487.002" stroke="#2F36AD" stroke-miterlimit="10"/>
</g>
<g opacity="0.5">
<path opacity="0.5" d="M392.415 274.691H487.002" stroke="#2F36AD" stroke-miterlimit="10"/>
</g>
<path opacity="0.36" d="M374.901 258.921C382.925 250.897 382.925 237.887 374.901 229.863C366.878 221.839 353.87 221.839 345.847 229.863C337.824 237.887 337.824 250.897 345.847 258.921C353.87 266.945 366.878 266.945 374.901 258.921Z" fill="#6774FF"/>
<path d="M368.761 244.925C368.076 245.199 368.364 247.527 368.227 248.281C368.104 249.034 367.556 251.952 366.022 252.39C364.488 252.829 363.543 252.952 363.529 253.212C363.529 253.336 363.57 253.87 363.611 254.404C363.652 254.993 363.707 255.596 363.707 255.596L362.337 257.308L360.831 257.418L357.133 256.349C357.133 256.349 356.955 252.5 356.804 251.911C356.708 251.541 355.325 248.938 354.311 246.404C353.722 244.925 353.257 243.459 353.257 242.473C353.257 239.788 353.353 236.98 354.996 235.596C356.654 234.213 367.145 229.254 367.433 237.459C367.433 237.459 368.693 242.158 369.254 242.966C369.816 243.774 369.446 244.665 368.761 244.925Z" fill="#6774FF"/>
<path d="M363.611 254.404C363.653 254.993 363.707 255.596 363.707 255.596L363.31 257.514L360.817 257.418L357.119 256.349C357.119 256.349 356.941 252.5 356.791 251.911C356.695 251.541 355.311 248.938 354.298 246.404L354.435 244.815C354.435 244.815 357.462 244.473 357.571 244.486C357.695 244.5 358.653 246.336 358.653 246.445C358.653 246.541 358.064 248.336 358.064 248.336C358.064 248.336 357.955 250.815 358.064 252.719C358.119 253.719 358.804 254.582 359.776 254.856C360.324 255.007 360.941 255.13 361.53 255.13C362.529 255.13 363.242 254.692 363.611 254.404Z" fill="#6774FF"/>
<path d="M357.818 243.98C357.818 243.98 356.558 249.253 359.503 252.075C362.447 254.897 367.57 253.349 368.296 252.719C369.021 252.089 371.432 247.692 369.2 245.664C366.967 243.637 364.022 245.856 364.022 245.856C364.022 245.856 362.269 247.349 361.694 247.267C361.132 247.171 359.845 245.281 360.283 241.925C360.311 241.747 360.461 241.596 360.639 241.582C361.324 241.487 362.913 240.925 362.817 237.569C362.803 237.295 363.036 237.062 363.31 237.076C364.269 237.117 366.255 237.199 366.679 237.322C366.679 237.322 366.994 237.377 367.296 237.5C367.392 237.541 367.474 237.624 367.501 237.719C367.597 238.048 367.802 238.788 367.857 238.966C367.926 239.199 368.433 240.856 368.433 240.856C368.433 240.856 368.953 240.541 368.953 239.939C368.953 239.336 368.72 238.035 368.83 237.733C368.939 237.432 369.802 237.226 369.939 236.528C370.254 234.966 370.884 228.898 365.899 231.761C365.241 232.131 364.639 232.624 364.104 232.733C363.406 232.87 362.776 232.227 361.351 232.076C359.366 231.857 350.518 232.473 351.572 241.295C352.627 250.13 356.832 252.144 356.832 252.144C356.832 252.144 356.763 244.884 357.818 243.98Z" fill="#1530A4"/>
<path d="M357.818 243.98C357.818 243.98 357.681 242.473 356.53 242.678C354.982 242.966 354.311 247.021 357.571 247.075C357.557 247.075 357.461 245.349 357.818 243.98Z" fill="#6774FF"/>
<path d="M357.229 256.253C357.229 256.253 361.79 257.993 363.817 255.623C369.432 256.404 371.35 256.363 374.664 260.322C371.87 265.28 356.955 267.568 356.421 267.39C355.873 267.212 348.628 263.349 348.422 263.171C348.217 262.993 349.819 255.966 357.229 256.253Z" fill="#1530A4"/>
<path opacity="0.2" d="M523.832 355.182C523.996 353.785 524.215 352.127 524.503 350.251V379.825C522.914 375.154 521.832 371.716 521.64 370.456C521.161 367.374 522.448 360.853 523.832 355.182Z" fill="#020202"/>
<path d="M524.502 179.036V134.736C527.953 134.736 530.747 137.53 530.747 140.982V172.776C530.747 176.228 527.953 179.036 524.502 179.036Z" fill="#2F36AD"/>
<path d="M308.415 156.886H311.442V134.736H308.415C306.634 134.736 305.183 136.188 305.183 137.969V153.653C305.183 155.434 306.634 156.886 308.415 156.886Z" fill="#2F36AD"/>
<path d="M308.415 183.598H311.442V161.448H308.415C306.634 161.448 305.183 162.9 305.183 164.68V180.365C305.183 182.146 306.634 183.598 308.415 183.598Z" fill="#2F36AD"/>
<path opacity="0.3" d="M468.813 59.7244L315.153 295.033V179.338L393.264 59.7244H468.813Z" fill="white"/>
<path opacity="0.3" d="M515.915 75.0664L315.153 382.483V328.881L490.919 59.7244H493.329C503.561 59.7244 512.34 66.0941 515.915 75.0664Z" fill="white"/>
<path opacity="0.3" d="M517.64 211.885L340.3 483.48H375.308L517.64 265.5V211.885Z" fill="white"/>
<path d="M439.311 69.1077H393.565C385.868 69.1077 379.636 62.8613 379.636 55.1766H453.254C453.254 62.8613 447.008 69.1077 439.311 69.1077Z" fill="#2F36AD"/>
<path d="M706.13 165.667H614.707C612.104 165.667 609.995 163.557 609.995 160.955V120.887C609.995 118.284 612.104 116.175 614.707 116.175H706.13C708.732 116.175 710.842 118.284 710.842 120.887V160.941C710.842 163.557 708.732 165.667 706.13 165.667Z" fill="#FEC752"/>
<path d="M624.171 122.832L625.061 124.654L627.075 124.942L625.623 126.353L625.965 128.353L624.171 127.407L622.377 128.353L622.719 126.353L621.268 124.942L623.267 124.654L624.171 122.832Z" fill="#FFF0B0"/>
<path d="M632.937 122.832L633.827 124.654L635.84 124.942L634.389 126.353L634.731 128.353L632.937 127.407L631.143 128.353L631.485 126.353L630.02 124.942L632.033 124.654L632.937 122.832Z" fill="#FFF0B0"/>
<path d="M641.689 122.832L642.593 124.654L644.606 124.942L643.141 126.353L643.497 128.353L641.689 127.407L639.895 128.353L640.237 126.353L638.785 124.942L640.798 124.654L641.689 122.832Z" fill="#FFF0B0"/>
<path d="M650.454 122.832L651.358 124.654L653.358 124.942L651.906 126.353L652.249 128.353L650.454 127.407L648.66 128.353L649.003 126.353L647.551 124.942L649.564 124.654L650.454 122.832Z" fill="#FFF0B0"/>
<path d="M659.22 122.832L660.124 124.654L662.124 124.942L660.672 126.353L661.014 128.353L659.22 127.407L657.426 128.353L657.768 126.353L656.316 124.942L658.33 124.654L659.22 122.832Z" fill="#FFF0B0"/>
<g opacity="0.66">
<path opacity="0.66" d="M699.2 155.557H678.244" stroke="#EAA221" stroke-width="1.9087" stroke-miterlimit="10" stroke-linecap="round" stroke-linejoin="round"/>
<path opacity="0.66" d="M636.402 148.092H622.227" stroke="#EAA221" stroke-width="1.9087" stroke-miterlimit="10" stroke-linecap="round" stroke-linejoin="round"/>
<path opacity="0.66" d="M699.2 148.092H642.552" stroke="#EAA221" stroke-width="1.9087" stroke-miterlimit="10" stroke-linecap="round" stroke-linejoin="round"/>
<path opacity="0.66" d="M699.2 140.626H622.227" stroke="#EAA221" stroke-width="1.9087" stroke-miterlimit="10" stroke-linecap="round" stroke-linejoin="round"/>
<path opacity="0.66" d="M645.962 133.161H622.227" stroke="#EAA221" stroke-width="1.9087" stroke-miterlimit="10" stroke-linecap="round" stroke-linejoin="round"/>
<path opacity="0.66" d="M699.2 133.161H651.865" stroke="#EAA221" stroke-width="1.9087" stroke-miterlimit="10" stroke-linecap="round" stroke-linejoin="round"/>
<path opacity="0.66" d="M672.136 155.557H622.227" stroke="#EAA221" stroke-width="1.9087" stroke-miterlimit="10" stroke-linecap="round" stroke-linejoin="round"/>
</g>
<path d="M626.814 165.667L617.638 176.844V165.667H626.814Z" fill="#FEC752"/>
<path opacity="0.2" d="M524.489 245.445V239.952C524.229 241.254 524.16 242.514 524.16 244.007C524.16 244.5 524.229 245.048 524.489 245.445ZM517.641 214.022C509.464 208.926 501.452 203.748 500.643 202.515C499.726 201.118 498.822 200.173 498.233 198.844L505.903 198.762C507.711 198.734 508.724 196.652 507.601 195.228L500.849 186.625C500.411 186.05 500.274 185.31 500.479 184.625L503.753 174.187C504.287 172.461 502.616 170.858 500.917 171.475L490.645 175.242C489.974 175.488 489.221 175.392 488.632 174.968L479.702 168.639C478.236 167.598 476.195 168.694 476.264 170.502L476.661 181.433C476.688 182.146 476.36 182.844 475.785 183.269L467.005 189.789C465.553 190.872 465.978 193.159 467.717 193.652L478.236 196.638C478.921 196.844 479.483 197.364 479.702 198.049L483.208 208.405C483.783 210.131 486.071 210.433 487.084 208.926L491.672 202.09C492.535 202.323 493.247 202.447 493.247 202.447C494.412 203.173 495.439 203.57 495.439 203.57C495.439 203.57 508.245 220.857 517.641 230.528C519.271 232.213 520.791 233.651 522.133 234.747C522.941 235.405 523.722 236.007 524.489 236.583V218.268C522.297 216.926 519.969 215.487 517.641 214.022Z" fill="#020202"/>
<path d="M643.894 483.288C643.661 484.562 646.071 487.932 642.839 490.767C639.607 493.589 632.265 496.575 637.128 496.685C641.99 496.795 646.66 495.671 649.139 494.452C651.618 493.233 649.632 491.302 652.7 490.343C656.741 489.069 656.7 488.809 654.741 484.398C652.07 478.329 644.619 479.165 643.894 483.288Z" fill="#0A1828"/>
<path d="M612.009 278.896C610.325 283.28 609.914 288.061 610.941 292.65C612.968 301.773 610.667 302.375 610.667 302.375C610.667 302.375 598.313 310.224 588.041 313.43C580.672 315.717 574.399 315.334 574.577 307.197V307.087C574.591 306.594 574.605 306.115 574.618 305.663C574.961 287.389 571.153 286.458 570.222 265.993C569.249 244.993 574.865 233.281 580.426 228.213C585.986 223.145 593.588 222.953 607.887 226.336C618.625 228.87 622.158 231.72 622.076 239.665C622.049 242.308 621.624 245.514 620.926 249.445C619.118 259.431 614.886 271.431 612.009 278.896Z" fill="#01008A"/>
<path d="M586.082 233.925C586.082 233.925 574.947 270.431 577.18 287.924L581.288 295.389L585.781 287.252C585.781 287.252 582.138 252.281 589.123 234.542L586.082 233.925Z" fill="#FF911E"/>
<path d="M612.009 278.897C610.325 283.28 609.914 288.061 610.941 292.65C612.968 301.773 610.667 302.375 610.667 302.375C610.667 302.375 598.313 310.224 588.041 313.43L578.44 312.526L574.591 309.498L574.577 307.088C574.591 306.594 574.605 306.115 574.618 305.663C576.81 305.868 581.795 306.129 589.123 305.279C594.779 304.636 599.915 303.019 603.34 301.718C605.832 300.773 607.298 298.197 606.832 295.554C606.216 291.965 605.476 286.8 605.504 282.8C605.531 278.773 607.394 271.979 608.914 267.075C610.078 263.308 610.475 259.376 610.188 255.445C609.708 248.651 610.201 242.185 610.201 242.185L617.817 238.062L622.063 239.637C622.035 242.281 621.611 245.486 620.912 249.418C619.118 259.431 614.886 271.431 612.009 278.897Z" fill="#07076B"/>
<path d="M612.174 317.676C613.05 317.813 615.296 313.868 615.296 313.868L614.351 312.622C613.817 311.909 613.078 311.389 612.228 311.128L612.078 311.087C611.325 310.855 610.489 311.128 610.037 311.786C609.393 312.745 608.393 313.841 607.243 313.8H607.229C607.188 313.813 607.147 313.813 607.106 313.813C606.079 313.841 611.297 317.539 612.174 317.676Z" fill="#F4D5B5"/>
<path d="M577.494 190.639C577.494 190.639 576.535 193.296 577.987 195.419L583.877 187.447L579.768 187.406L577.494 190.639Z" fill="#1530A4"/>
<path d="M609.489 201.186C609.229 211.474 600.353 217.432 600.353 217.432L600.942 226.802L594.957 230.679L590.848 233.336L588.492 228.405L588.164 222.364C588.081 220.953 587.082 219.789 585.698 219.487C584.164 219.158 582.041 218.268 579.864 215.953C579.74 215.816 579.603 215.665 579.494 215.487C579.48 215.474 579.48 215.474 579.48 215.474C575.59 210.172 574.111 189.872 587.438 184.105C601.189 178.187 609.763 190.885 609.489 201.186Z" fill="#6774FF"/>
<path d="M594.56 225.076L594.957 230.692L590.848 233.35L588.493 228.418L588.164 222.377C588.082 220.967 587.082 219.802 585.699 219.501C584.165 219.172 582.042 218.282 579.864 215.967C579.741 215.83 579.604 215.679 579.494 215.501C579.768 215.665 582.987 217.542 587.876 218.09C591.478 218.515 594.3 221.446 594.56 225.076Z" fill="#5866E3"/>
<path d="M595.121 204.364C595.642 204.583 596.135 203.775 596.135 203.775C596.135 203.775 599.025 197.296 600.011 196.296C601.791 194.502 605.969 194.666 606.311 200.227C606.571 204.529 601.476 213.72 599.915 216.419C599.682 216.843 599.778 217.419 600.175 217.72C600.34 217.843 600.559 217.912 600.737 217.939H600.805C601.038 217.939 601.285 217.871 601.463 217.706C604.75 214.816 619.24 200.926 607.735 187.858C607.735 187.858 598.6 188.447 597.203 192.858C595.806 197.282 594.806 203.255 594.806 203.255C594.806 203.255 594.587 204.131 595.121 204.364Z" fill="#1530A4"/>
<path d="M577.494 190.639C577.494 190.639 585.493 184.406 597.628 191.995L607.571 189.461C607.571 189.461 607.996 189.324 607.763 187.83C607.544 186.337 606.448 171.721 589.026 175.009C579.014 176.899 572.878 183.844 577.494 190.639Z" fill="#1530A4"/>
<path d="M585.314 230.816L585.369 231.295C585.479 232.199 585.725 233.09 586.081 233.925L589.095 234.542L591.724 232.583L588.711 229.076L588.245 229.199C587.163 229.473 586.177 230.021 585.356 230.775L585.314 230.816Z" fill="#FF911E"/>
<path d="M600.874 222.446C600.874 222.446 602.326 223.254 603.764 225.418C603.764 225.418 601.792 226.309 600.066 227.35C598.491 228.309 590.944 233.651 590.944 233.651L588.726 229.09C588.712 229.076 596.601 223.638 600.874 222.446Z" fill="#07076B"/>
<path d="M588.712 229.076C588.712 229.076 586.068 229.98 585.26 231.953C585.26 231.953 583.904 229.364 585.63 224.747C585.63 224.747 587.082 223.377 588.191 222.884L588.712 229.076Z" fill="#07076B"/>
<path d="M609.735 311.238C609.735 311.238 608.325 313.005 607.914 313.238C607.503 313.471 607.421 312.978 607.585 312.635C607.736 312.279 609.667 310.759 609.735 311.238Z" fill="#E5BB98"/>
<path d="M600.764 217.926H600.832C601.065 217.926 601.312 217.857 601.49 217.693C604.777 214.802 619.268 200.912 607.763 187.844C607.763 187.844 608.324 190.118 608.091 192.008C608.091 192.008 615.433 203.871 600.764 217.926Z" fill="#1530A4"/>
<path d="M626.499 354.333C626.499 354.333 635.114 325.84 610.666 302.362C610.666 302.362 597.559 308.224 587.068 308.937C578.809 309.498 574.604 308.635 574.604 308.635C574.604 308.635 573.905 333.95 573.878 347.593L626.499 354.333Z" fill="#1631A4"/>
<path d="M571.659 401.66C571.125 388.921 580.562 390.291 586.082 399.564C603.764 429.249 586.013 466.48 584.109 487.959C582.028 484.507 578.083 483.329 577.152 483.411C575.645 483.521 574.837 484.713 574.837 484.713C575.138 458.357 572.235 415.29 571.659 401.66Z" fill="#1631A4"/>
<path d="M585.602 403.044C584.013 408.249 570.331 414.263 571.769 395.332C572.399 386.935 574.097 340.566 574.412 336.087C574.741 331.621 575.481 325.087 577.645 324.265C588.451 320.183 603.599 333.772 600.764 350.552C598.86 361.785 588.903 392.263 585.602 403.044Z" fill="#1631A4"/>
<path d="M574.878 485.083C574.316 486.179 571.604 488.74 567.838 490.411C564.085 492.082 556.114 492.877 560.538 494.356C564.962 495.836 570.125 494.945 572.741 494.521C575.357 494.096 577.891 494.041 580.973 494.028C585.04 494 585.068 493.754 584.52 489.165C583.753 482.85 576.699 481.521 574.878 485.083Z" fill="#0A1828"/>
<path d="M616.98 404.564C612.721 392.551 622.13 391.072 630.143 398.304C655.782 421.468 649.797 462.261 654.303 483.343C651.742 485.096 647.688 485.726 646.263 485.644C644.757 485.562 644.072 484.521 644.072 484.521C636.607 459.275 621.541 417.413 616.98 404.564Z" fill="#1631A4"/>
<path d="M630.896 401.126C631.375 406.537 620.966 417.263 615.172 399.181C612.611 391.154 596.764 347.552 595.381 343.278C594.011 339.004 592.244 332.676 593.943 331.114C602.421 323.279 621.568 330.169 625.239 346.799C627.691 357.908 629.896 389.893 630.896 401.126Z" fill="#1631A4"/>
<path d="M606.38 310.567C606.38 310.567 608.283 317.306 616.775 321.183C624.103 324.525 605.051 326.429 604.626 325.69C604.202 324.95 600.545 312.649 600.545 312.649L606.38 310.567Z" fill="#3A3A3A"/>
<path d="M680.751 327.334H545.541C541.706 327.334 538.583 324.224 538.583 320.375V270.417C538.583 266.582 541.692 263.459 545.541 263.459H680.751C684.586 263.459 687.709 266.568 687.709 270.417V320.375C687.695 324.21 684.586 327.334 680.751 327.334Z" fill="white"/>
<path opacity="0.3" d="M670.684 277.581L665.548 278.403L669.328 281.979L668.52 287.115L673.095 284.622L677.724 286.978L676.765 281.869L680.436 278.184L675.286 277.513L672.917 272.883L670.684 277.581Z" fill="#FFBC47"/>
<path opacity="0.3" d="M652.496 277.581L647.359 278.403L651.14 281.979L650.332 287.115L654.906 284.622L659.536 286.978L658.59 281.869L662.247 278.184L657.098 277.513L654.728 272.883L652.496 277.581Z" fill="#FFBC47"/>
<path d="M634.306 277.581L629.17 278.403L632.95 281.979L632.142 287.115L636.717 284.622L641.346 286.978L640.401 281.869L644.058 278.184L638.908 277.513L636.539 272.883L634.306 277.581Z" fill="#2F36AD"/>
<path opacity="0.3" d="M614.762 281.979L613.954 287.102L618.35 284.732L618.528 284.636L623.158 286.978L622.213 281.869L625.869 278.184L620.733 277.513L618.35 272.883L616.118 277.581L610.981 278.403L614.762 281.979Z" fill="#FFBC47"/>
<path d="M597.929 277.581L592.793 278.403L596.573 281.979L595.765 287.115L600.34 284.622L604.969 286.978L604.024 281.869L607.681 278.184L602.531 277.513L600.162 272.883L597.929 277.581Z" fill="#FFBC47"/>
<path d="M592.793 296.622H660.124" stroke="#A4D6FB" stroke-width="0.8478" stroke-miterlimit="10"/>
<path d="M592.793 303.704H672.999" stroke="#A4D6FB" stroke-width="0.8478" stroke-miterlimit="10"/>
<path d="M592.793 310.8H672.999" stroke="#A4D6FB" stroke-width="0.8478" stroke-miterlimit="10"/>
<path d="M592.793 317.895H672.999" stroke="#A4D6FB" stroke-width="0.8478" stroke-miterlimit="10"/>
<path opacity="0.36" d="M565.647 309.622C575.269 309.622 583.069 301.821 583.069 292.197C583.069 282.574 575.269 274.773 565.647 274.773C556.026 274.773 548.226 282.574 548.226 292.197C548.226 301.821 556.026 309.622 565.647 309.622Z" fill="#6774FF"/>
<path d="M573.125 288.335C574.481 290.663 573.303 293.855 574.673 296.184C575.22 297.115 576.138 297.841 576.412 298.896C576.631 299.773 576.289 300.773 575.576 301.334C574.864 301.896 573.81 301.992 573.015 301.567C572.837 301.471 572.673 301.362 572.495 301.307C571.824 301.115 571.207 301.704 570.632 302.101C569.92 302.581 568.989 302.814 568.181 302.54C567.14 302.184 566.482 301.129 566.14 300.088C565.167 297.156 565.852 293.951 566.756 290.992C567.208 289.513 567.866 287.883 569.317 287.348" fill="#1530A4"/>
<path d="M567.496 298.745C567.496 298.745 567.441 301.43 567.852 301.608C568.674 301.951 569.591 302.142 569.591 302.142C569.591 302.142 567.701 304.266 566.249 304.197C564.222 304.101 562.442 301.773 562.469 301.471C562.51 300.937 562.182 297.978 562.182 297.978" fill="#6774FF"/>
<path d="M572.852 287.787C572.852 287.787 573.276 292.978 572.386 295.691C571.729 297.704 569.044 299.581 566.798 299.553C560.607 299.553 559.498 291.143 559.525 290.732C559.552 290.321 568.66 286.787 568.66 286.787L572.852 287.787Z" fill="#6774FF"/>
<path d="M564.058 301.649C564.058 301.649 566.88 304.786 567.852 301.608C570.29 302.293 572.92 302.786 573.975 304.992C577.344 314.964 566.332 315.827 563.223 315.827C558.813 315.827 551.581 313.402 555.224 305.183C556.347 302.649 558.032 301.074 564.058 301.649Z" fill="#FFBC47"/>
<path d="M556.306 303.184C556.169 303.115 556.032 303.033 555.895 302.951C555.183 302.526 554.539 302.088 554.238 301.279C553.814 300.115 553.608 298.334 554.197 297.211C554.608 296.444 555.375 295.951 555.895 295.266C556.621 294.321 556.84 293.074 556.895 291.882C556.95 290.691 556.882 289.485 557.142 288.307C557.566 286.307 558.142 284.403 559.676 283.116C562.141 281.047 567.085 279.828 569.77 282.129C570.263 282.554 570.359 282.883 571.016 282.951C571.906 283.033 572.482 283.157 573.276 283.609C574.153 284.116 575.235 284.842 575.098 285.992C575.015 286.8 574.098 288.061 573.413 288.444C573.125 288.609 572.797 288.65 572.468 288.663C571.413 288.677 570.55 288.006 569.523 288.115C569.016 288.17 568.551 288.444 568.236 288.828C567.866 289.28 567.921 289.924 567.482 290.348C566.784 291.033 565.716 290.978 564.894 291.417C564.757 291.485 564.62 291.581 564.538 291.704C564.456 291.841 564.456 291.992 564.442 292.143C564.428 292.581 564.414 293.006 564.401 293.444C563.99 293.266 563.949 292.677 563.62 292.389C563.291 292.102 562.771 292.184 562.442 292.471C562.114 292.745 561.963 293.184 561.867 293.608C561.757 294.115 561.935 294.649 562.1 295.156C562.374 296.033 563.127 296.828 563.73 296.252C564.168 296.91 563.689 297.992 563.675 298.732C563.661 299.321 563.675 300.471 564.223 300.855C564.73 301.211 565.524 300.937 565.551 301.855C565.579 302.69 564.743 303.334 563.921 303.444C563.1 303.54 562.278 303.252 561.484 303.019C560.689 302.786 559.813 302.594 559.032 302.896C558.566 303.074 558.155 303.43 557.662 303.512C557.183 303.581 556.731 303.416 556.306 303.184Z" fill="#1530A4"/>
<path d="M610.064 256.281C610.064 256.281 626.445 269.349 631.335 285.294C631.335 285.294 645.374 284.403 648.647 273.499C648.647 273.499 626.705 236.624 618.625 231.185C610.571 225.747 605.531 244.418 610.064 256.281Z" fill="#01008A"/>
<path d="M632.321 287.047C632.321 287.047 621.35 320.909 619.268 322.799C617.186 324.69 616.625 326.772 611.324 327.334C611.324 327.334 613.023 331.306 616.625 330.923C620.213 330.539 621.829 326.95 621.829 326.95C621.829 326.95 638.799 306.827 643.524 297.334C650.016 284.266 649.77 276.253 649.77 276.253L632.321 287.047Z" fill="#6674FF"/>
<path d="M540.213 220.925C540.213 220.925 506.643 200.816 504.931 198.227C503.082 195.419 501.301 194.419 501.972 188.584C501.972 188.584 494.645 189.077 494.179 193.036C493.713 196.995 499.712 199.282 499.712 199.282C499.712 199.282 517.34 223.076 526.42 230.459C538.898 240.61 547.581 242.281 547.581 242.281L540.213 220.925Z" fill="#6774FF"/>
<path d="M631.348 286.828C631.376 286.184 631.882 286.896 631.526 286.348C631.348 286.061 631.02 285.869 630.924 285.54C630.732 284.869 631.595 284.431 632.266 284.294C636.827 283.362 640.1 281.088 643.606 278.02C644.976 276.814 644.839 276.034 645.88 274.54C646.537 273.595 647.619 272.664 648.66 273.143C650.838 274.143 649.194 276.129 650.153 277.486C650.345 277.76 650.633 277.965 650.77 278.266C650.989 278.773 650.728 279.349 650.413 279.814C649.4 281.307 648.523 282.376 647.072 283.431C645.702 284.444 644.141 285.033 642.62 285.814C640.922 286.718 631.225 290.28 631.348 286.828Z" fill="#07076B"/>
<path d="M584.109 225.61C584.109 225.61 555.621 228.638 543.677 221.282L529.2 238.336C529.2 238.336 557.716 251.377 573.878 248.541L584.109 225.61Z" fill="#01008A"/>
<path d="M543.048 219.254C543.472 219.939 542.459 219.556 543.198 219.871C543.582 220.035 544.047 220.008 544.376 220.268C545.034 220.816 544.472 221.871 543.869 222.487C539.856 226.624 538.09 231.24 536.651 236.815C536.09 239.007 536.775 239.706 536.761 241.966C536.747 243.391 536.186 243.103 534.789 243.336C531.871 243.843 532.255 242.651 530.337 241.925C529.954 241.774 529.516 241.774 529.16 241.555C528.584 241.199 528.447 240.418 528.447 239.733C528.447 237.5 528.598 235.802 529.338 233.706C530.036 231.72 531.228 230.021 532.214 228.158C533.337 226.062 540.76 215.638 543.048 219.254Z" fill="#07076B"/>
<path d="M492.467 193.036C492.371 192.666 497.726 187.104 498.808 187.461C499.89 187.803 500.041 190.159 500.11 191.241C500.192 192.31 498.274 194.803 497.055 194.954C495.836 195.104 493.015 195.255 492.467 193.036Z" fill="#6774FF"/>
<path d="M505.205 167.201L494.932 170.968C494.261 171.214 493.508 171.119 492.919 170.694L484.003 164.365C482.524 163.324 480.483 164.42 480.551 166.228L480.948 177.16C480.976 177.872 480.647 178.557 480.072 178.995L471.292 185.529C469.841 186.611 470.252 188.885 472.005 189.378L482.523 192.378C483.208 192.57 483.77 193.104 483.989 193.776L487.482 204.145C488.057 205.857 490.358 206.172 491.358 204.666L497.453 195.584C497.85 194.981 498.521 194.625 499.247 194.611L510.176 194.488C511.984 194.474 512.984 192.378 511.875 190.954L505.123 182.351C504.684 181.79 504.547 181.036 504.753 180.351L508.012 169.913C508.574 168.173 506.903 166.571 505.205 167.201Z" fill="#FF9422"/>
<path d="M497.549 198.159C497.549 198.159 493.029 197.392 492.892 195.967C492.864 194.488 498.658 195.995 498.658 195.995L497.549 198.159Z" fill="#6774FF"/>
<path d="M251.315 290.513H131.568C128.966 290.513 126.856 288.403 126.856 285.8V231.829C126.856 229.227 128.966 227.117 131.568 227.117H251.329C253.931 227.117 256.041 229.227 256.041 231.829V285.8C256.041 288.403 253.931 290.513 251.315 290.513Z" fill="#FEC752"/>
<path d="M145.004 235.637L146.154 237.966L148.729 238.336L146.866 240.158L147.305 242.719L145.004 241.5L142.703 242.719L143.141 240.158L141.278 238.336L143.853 237.966L145.004 235.637Z" fill="#FFF0B0"/>
<path d="M156.235 235.637L157.386 237.966L159.961 238.336L158.098 240.158L158.536 242.719L156.235 241.5L153.934 242.719L154.372 240.158L152.51 238.336L155.085 237.966L156.235 235.637Z" fill="#FFF0B0"/>
<path d="M167.452 235.637L168.602 237.966L171.177 238.336L169.315 240.158L169.753 242.719L167.452 241.5L165.151 242.719L165.603 240.158L163.74 238.336L166.301 237.966L167.452 235.637Z" fill="#FFF0B0"/>
<path d="M178.683 235.637L179.834 237.966L182.409 238.336L180.546 240.158L180.984 242.719L178.683 241.5L176.382 242.719L176.821 240.158L174.958 238.336L177.533 237.966L178.683 235.637Z" fill="#FFF0B0"/>
<path d="M189.914 235.637L191.064 237.966L193.626 238.336L191.763 240.158L192.215 242.719L189.914 241.5L187.613 242.719L188.051 240.158L186.188 238.336L188.763 237.966L189.914 235.637Z" fill="#FFF0B0"/>
<g opacity="0.66">
<path opacity="0.66" d="M241.111 277.554H214.28" stroke="#EAA221" stroke-width="2.445" stroke-miterlimit="10" stroke-linecap="round" stroke-linejoin="round"/>
<path opacity="0.66" d="M160.686 267.993H142.524" stroke="#EAA221" stroke-width="2.445" stroke-miterlimit="10" stroke-linecap="round" stroke-linejoin="round"/>
<path opacity="0.66" d="M241.111 267.993H168.548" stroke="#EAA221" stroke-width="2.445" stroke-miterlimit="10" stroke-linecap="round" stroke-linejoin="round"/>
<path opacity="0.66" d="M241.111 258.431H142.524" stroke="#EAA221" stroke-width="2.445" stroke-miterlimit="10" stroke-linecap="round" stroke-linejoin="round"/>
<path opacity="0.66" d="M172.917 248.87H142.524" stroke="#EAA221" stroke-width="2.445" stroke-miterlimit="10" stroke-linecap="round" stroke-linejoin="round"/>
<path opacity="0.66" d="M241.11 248.87H180.49" stroke="#EAA221" stroke-width="2.445" stroke-miterlimit="10" stroke-linecap="round" stroke-linejoin="round"/>
<path opacity="0.66" d="M206.445 277.554H142.524" stroke="#EAA221" stroke-width="2.445" stroke-miterlimit="10" stroke-linecap="round" stroke-linejoin="round"/>
</g>
<path d="M230.895 290.513L242.66 304.827V290.513H230.895Z" fill="#FEC752"/>
<path opacity="0.2" d="M357.708 405.263C352.915 403.852 325.18 409.66 308.306 413.427V438.536C325.947 433.07 343.149 424.81 343.766 424.523C338.862 435.591 328.631 474.864 328.631 474.864C331.74 475.987 334.699 476.74 337.465 477.234C337.191 479.165 336.726 481.891 335.959 484.179C335.739 484.603 335.561 484.973 335.424 485.316C334.959 485 334.671 484.795 334.671 484.795C334.671 484.795 333.028 487.014 331.781 489.37C332.137 489.466 332.48 489.535 332.836 489.617C334.972 490.082 337.191 490.329 339.465 490.329H351.545C347.957 489 344.464 487.631 344.464 487.631C344.437 487.658 344.396 487.672 344.368 487.685C343.779 485.795 343.478 482.685 344.724 478.042C352.134 478.343 356.887 476.918 356.887 476.918C356.887 476.918 359.338 457.672 361.79 440.481C364.255 423.276 364.666 407.318 357.708 405.263ZM449.748 328.881H308.306V400.784H318.578C318.605 401.14 318.646 401.414 318.729 401.564C319.153 402.263 325.933 403.414 328.946 400.784H449.748C453.583 400.784 456.692 397.66 456.692 393.825V335.84C456.692 332.005 453.583 328.881 449.748 328.881Z" fill="#020202"/>
<path d="M334.398 471.453C334.398 471.453 333.932 476.836 332.603 480.822C331.22 483.453 331.48 484.425 331.48 484.425L342.314 486.809C342.314 486.809 338.356 483.069 342.081 472.275C345.807 461.481 334.398 471.453 334.398 471.453Z" fill="#6774FF"/>
<path d="M341.109 484.261C341.109 484.261 353.408 489.069 355.531 489.452C357.654 489.836 359.16 490.713 358.763 491.74C358.366 492.767 349.587 495.028 344.985 494.671C340.383 494.302 337.205 491.466 336.233 491.466C335.274 491.466 330.234 492.904 327.659 491.343C325.084 489.795 331.302 481.425 331.302 481.425C331.302 481.425 338.123 486.494 341.109 484.261Z" fill="#FF911E"/>
<path d="M291.843 413.057C291.843 413.057 347.382 399.852 354.34 401.893C361.297 403.934 360.887 419.906 358.435 437.111C355.983 454.303 353.518 473.549 353.518 473.549C353.518 473.549 341.232 477.234 325.276 471.508C325.276 471.508 335.507 432.207 340.424 421.139C340.424 421.139 299.28 441.043 278.393 439.865C257.52 438.7 291.843 413.057 291.843 413.057Z" fill="#01008A"/>
<path d="M235.126 470.836C235.126 470.836 229.77 470.124 225.853 468.604C223.292 467.111 222.306 467.316 222.306 467.316L219.402 478.028C219.402 478.028 223.333 474.261 233.934 478.48C244.549 482.713 235.126 470.836 235.126 470.836Z" fill="#6774FF"/>
<path d="M222.005 476.946C222.005 476.946 218.239 483.494 217.773 485.603C217.294 487.713 221.17 490.781 220.074 490.85C209.583 491.589 210.377 484.822 211.445 480.316C212.555 475.617 215.02 472.699 215.061 471.727C215.102 470.768 213.911 465.672 215.582 463.165C217.253 460.672 225.32 467.275 225.32 467.275C225.32 467.275 219.923 473.85 222.005 476.946Z" fill="#FF911E"/>
<path d="M261.862 414.537C261.862 414.537 255.233 441.796 272.888 447.632C277.791 449.248 302.184 420.81 302.883 416.838C303.595 412.865 297.774 402.921 297.774 402.921C297.774 402.921 266.697 402.304 261.862 414.537Z" fill="#01008A"/>
<path d="M293.199 421.783C293.199 421.783 306.005 483.261 303.937 490.206C301.855 497.151 285.899 496.671 268.71 494.137C251.521 491.603 232.291 489.055 232.291 489.055C232.291 489.055 228.662 476.754 234.469 460.809C234.469 460.809 273.723 471.234 284.748 476.192C284.748 476.192 262.82 439.235 264.094 418.358C265.368 397.482 293.199 421.783 293.199 421.783Z" fill="#01008A"/>
<path d="M261.505 307.211C261.505 307.211 262.574 294.197 267.792 290.088C275.654 283.91 288.241 285.143 292.815 291.403C297.39 297.663 302.279 324.827 279.941 328.32L268.367 381.743C268.367 381.743 238.249 378.661 235.934 362.524C233.633 346.388 247.343 338.881 247.343 338.881C247.343 338.881 240.755 325.32 247.672 315.758C254.589 306.225 261.505 307.211 261.505 307.211Z" fill="#1533A3"/>
<path d="M292.816 364.511C291.789 367.141 300.253 402.304 301.568 410.646C301.568 410.646 306.704 423.057 260.876 414.413C260.876 414.413 262.382 406.222 268.518 393.921C271.559 387.839 267.067 377.757 261.752 369.127C260.41 366.935 258.999 364.826 257.643 362.908C253.589 357.114 250.042 352.99 250.042 352.99C250.042 352.99 257.561 329.936 270.724 328.512C281.229 327.375 281.16 332.032 290.912 334.662L306.704 338.909C306.704 338.909 304.951 352.223 306.704 356.168H295.733C295.733 356.168 293.829 361.881 292.816 364.511Z" fill="#FFD648"/>
<path d="M290.035 296.115C290.035 296.115 294.869 309.197 291.788 315.334C288.72 321.484 281.255 320.608 281.255 320.608V334.662C281.255 334.662 280.488 335.388 279.173 335.47C276.872 335.607 270.723 331.594 270.723 331.594V299.101L290.035 296.115Z" fill="#6574FE"/>
<path d="M248.002 360.415C248.002 360.415 241.907 395.236 244.755 397.359C247.591 399.482 277.339 398.277 280.339 398.756C283.338 399.236 295.363 402.468 301.65 396.934C302.458 396.222 295.172 395.866 294.076 393.455C292.98 391.03 289.816 390.277 289.816 390.277L280.708 394.304C280.708 394.304 257.808 390.935 256.219 389.592C254.631 388.25 261.684 360.004 261.684 360.004L248.002 360.415Z" fill="#6574FE"/>
<path d="M268.258 348.374L267.176 369.127H261.752C260.41 366.935 259 364.826 257.644 362.908C260.342 359.798 268.258 348.374 268.258 348.374Z" fill="#FFD648"/>
<path d="M246.755 359.661C246.755 359.661 249.494 336.388 257.178 332.964C264.875 329.525 270.313 340.539 267.491 351.84C264.656 363.141 263.93 367.291 263.93 367.291C263.93 367.291 253.137 367.675 246.755 359.661Z" fill="#FFD648"/>
<path d="M290.651 294.197C290.651 294.197 287.515 309.197 280.269 313.142C273.024 317.087 278.503 326.813 271.6 334.059C267.902 337.936 260.656 331.128 260.656 331.128L267.792 296.102L290.651 294.197Z" fill="#1533A3"/>
<path d="M446.38 397.414H292.46C288.625 397.414 285.502 394.304 285.502 390.455V332.47C285.502 328.635 288.611 325.512 292.46 325.512H446.38C450.215 325.512 453.337 328.621 453.337 332.47V390.455C453.337 394.304 450.228 397.414 446.38 397.414Z" fill="white"/>
<path d="M434.19 341.429L428.41 342.347L432.656 346.374L431.752 352.155L436.888 349.36L442.107 352.004L441.038 346.251L445.161 342.1L439.367 341.347L436.696 336.142L434.19 341.429Z" fill="#FFBC47"/>
<path d="M413.714 341.429L407.935 342.347L412.194 346.374L411.29 352.155L416.426 349.36L421.645 352.004L420.563 346.251L424.699 342.1L418.892 341.347L416.235 336.142L413.714 341.429Z" fill="#FFBC47"/>
<path d="M393.238 341.429L387.472 342.347L391.718 346.374L390.814 352.155L395.95 349.36L401.168 352.004L400.1 346.251L404.222 342.1L398.415 341.347L395.758 336.142L393.238 341.429Z" fill="#FFBC47"/>
<path d="M371.256 346.374L370.338 352.141L375.282 349.47L375.474 349.36L380.692 352.004L379.624 346.251L383.747 342.114L377.953 341.347L375.282 336.142L372.762 341.429L366.996 342.361L371.256 346.374Z" fill="#FFBC47"/>
<path d="M352.299 341.429L346.52 342.347L350.779 346.374L349.875 352.155L355.011 349.36L360.23 352.004L359.148 346.251L363.284 342.1L357.477 341.347L354.806 336.142L352.299 341.429Z" fill="#FFBC47"/>
<g opacity="0.5">
<path opacity="0.5" d="M346.52 362.853H422.302" stroke="#2F36AD" stroke-miterlimit="10"/>
</g>
<g opacity="0.5">
<path opacity="0.5" d="M346.52 370.839H436.792" stroke="#2F36AD" stroke-miterlimit="10"/>
</g>
<g opacity="0.5">
<path opacity="0.5" d="M346.52 378.812H436.792" stroke="#2F36AD" stroke-miterlimit="10"/>
</g>
<g opacity="0.5">
<path opacity="0.5" d="M346.52 386.798H436.792" stroke="#2F36AD" stroke-miterlimit="10"/>
</g>
<path opacity="0.36" d="M331.759 376C339.782 367.976 339.782 354.966 331.759 346.942C323.736 338.918 310.728 338.918 302.705 346.942C294.682 354.966 294.682 367.976 302.705 376C310.728 384.024 323.736 384.024 331.759 376Z" fill="#6774FF"/>
<path d="M325.619 362.004C324.934 362.278 325.221 364.606 325.084 365.36C324.961 366.113 324.413 369.031 322.879 369.469C321.345 369.908 320.4 370.031 320.387 370.291C320.387 370.415 320.428 370.949 320.469 371.483C320.51 372.072 320.565 372.675 320.565 372.675L319.195 374.387L317.688 374.497L313.99 373.428C313.99 373.428 313.812 369.579 313.662 368.99C313.566 368.62 312.182 366.017 311.169 363.483C310.58 362.004 310.114 360.538 310.114 359.552C310.114 356.867 310.21 354.059 311.854 352.675C313.511 351.292 324.002 346.333 324.29 354.538C324.29 354.538 325.55 359.237 326.112 360.045C326.66 360.839 326.303 361.744 325.619 362.004Z" fill="#6774FF"/>
<path d="M320.469 371.469C320.51 372.058 320.565 372.661 320.565 372.661L320.167 374.579L317.675 374.483L313.977 373.414C313.977 373.414 313.799 369.565 313.648 368.976C313.552 368.606 312.169 366.004 311.155 363.469L311.292 361.88C311.292 361.88 314.319 361.538 314.429 361.552C314.552 361.565 315.511 363.401 315.511 363.511C315.511 363.606 314.922 365.401 314.922 365.401C314.922 365.401 314.812 367.88 314.922 369.784C314.977 370.784 315.661 371.647 316.634 371.921C317.182 372.072 317.798 372.195 318.387 372.195C319.387 372.195 320.099 371.771 320.469 371.469Z" fill="#6774FF"/>
<path d="M314.675 361.059C314.675 361.059 313.415 366.332 316.36 369.154C319.305 371.976 324.427 370.428 325.153 369.798C325.879 369.168 328.29 364.771 326.057 362.744C323.824 360.716 320.88 362.935 320.88 362.935C320.88 362.935 319.127 364.428 318.551 364.346C317.99 364.25 316.702 362.36 317.141 359.004C317.168 358.826 317.319 358.675 317.497 358.648C318.182 358.552 319.77 357.99 319.674 354.634C319.661 354.36 319.894 354.127 320.168 354.141C321.126 354.182 323.112 354.264 323.537 354.388C323.537 354.388 323.852 354.442 324.153 354.566C324.249 354.607 324.331 354.689 324.359 354.785C324.455 355.114 324.66 355.853 324.715 356.031C324.783 356.264 325.29 357.922 325.29 357.922C325.29 357.922 325.81 357.607 325.81 357.004C325.81 356.401 325.578 355.1 325.687 354.799C325.797 354.497 326.66 354.292 326.797 353.593C327.112 352.032 327.742 345.963 322.756 348.826C322.099 349.196 321.496 349.689 320.962 349.799C320.263 349.936 319.633 349.292 318.209 349.141C316.223 348.922 307.375 349.538 308.43 358.36C309.484 367.195 313.689 369.209 313.689 369.209C313.689 369.209 313.621 361.963 314.675 361.059Z" fill="#1530A4"/>
<path d="M314.675 361.059C314.675 361.059 314.538 359.552 313.388 359.757C311.84 360.045 311.169 364.1 314.429 364.154C314.415 364.154 314.319 362.428 314.675 361.059Z" fill="#6774FF"/>
<path d="M314.086 373.332C314.086 373.332 318.647 375.072 320.674 372.702C326.29 373.483 328.207 373.442 331.522 377.401C328.728 382.359 313.812 384.647 313.278 384.469C312.73 384.291 305.485 380.428 305.28 380.25C305.074 380.072 306.677 373.045 314.086 373.332Z" fill="#FFBC47"/>
<path d="M326.728 395.825C326.728 395.825 323.413 391.592 321.222 390.907C319.031 390.222 316.688 390.195 316.127 391.304C315.565 392.414 314.88 397.386 315.374 398.195C315.867 399.017 324.947 400.455 326.728 395.825Z" fill="#6574FE"/>
</g>
<defs>
<clipPath id="clip0">
<rect width="830" height="501" fill="white"/>
</clipPath>
</defs>
</svg>
