<svg width="131" height="131" fill="none" xmlns="http://www.w3.org/2000/svg"><path d="M9.034 0h63.242a9.036 9.036 0 019.034 9.034v112.932A9.036 9.036 0 0172.276 131H9.034A9.036 9.036 0 010 121.966V9.034A9.036 9.036 0 019.034 0z" fill="#fff"/><path d="M126.482 18.069h-49.69a4.53 4.53 0 00-4.517 4.517V49.69a4.53 4.53 0 004.518 4.517h13.551v13.552l13.552-13.552h22.586A4.532 4.532 0 00131 49.69V22.586a4.531 4.531 0 00-4.518-4.517zM63.242 58.724v29.362a2.258 2.258 0 01-2.259 2.259H20.328a2.258 2.258 0 01-2.259-2.259V58.724h45.173zM47.43 49.69h15.811v9.034h-15.81V49.69zM56.466 40.655l6.776 9.035H18.07l6.775-9.035h31.62zM58.724 0v6.776a2.258 2.258 0 01-2.259 2.258h-31.62a2.258 2.258 0 01-2.26-2.258V0h36.139z" fill="#FDD762"/><path d="M47.43 58.724v9.035l-6.775-4.518-6.776 4.518V49.69H47.43v9.034z" fill="#FDD762"/><path d="M18.07 49.69h15.81v9.034H18.07V49.69z" fill="#FDD762"/><path d="M58.273 39.3a2.261 2.261 0 00-1.807-.903H24.845c-.711 0-1.38.336-1.807.903l-6.776 9.035c-.293.39-.452.866-.452 1.355v38.396a4.516 4.516 0 004.518 4.517h40.655a4.516 4.516 0 004.517-4.517V49.69c0-.489-.158-.966-.451-1.355L58.273 39.3zm-32.299 3.614h29.362l3.388 4.517H22.586l3.388-4.517zm5.647 13.552H20.328v-4.518H31.62v4.518zm4.517-4.518h9.035v11.59l-3.264-2.174a2.262 2.262 0 00-2.507 0l-3.264 2.174v-11.59zm13.552 0h11.293v4.518H49.69v-4.518zM20.328 88.086V60.983H31.62v6.776a2.258 2.258 0 003.512 1.877l5.522-3.684 5.523 3.681a2.258 2.258 0 003.512-1.874v-6.776h11.293v27.103H20.328z" fill="#B48728"/><path d="M29.362 103.897h4.518v4.517h-4.518v-4.517zM38.397 103.897h4.517v4.517h-4.517v-4.517zM47.43 103.897h4.518v4.517H47.43v-4.517z" fill="#FDD762"/></svg>