<svg width="131" height="131" fill="none" xmlns="http://www.w3.org/2000/svg"><path d="M92.603 131H38.397c0-5.359 4.045-9.704 9.034-9.704h36.138c4.989 0 9.034 4.345 9.034 9.704z" fill="#F2F2F2"/><path d="M81.31 121.296H49.69l4.516-19.407h22.588l4.516 19.407z" fill="#C6C6C7"/><path d="M131 82.482H0V8.492C0 3.8 3.539 0 7.906 0h115.188C127.461 0 131 3.8 131 8.492v73.99z" fill="#fff"/><path d="M123.094 101.889H7.906c-4.365 0-7.906-3.8-7.906-8.492V82.482h131v10.915c0 4.691-3.539 8.492-7.906 8.492z" fill="#F2F2F2"/><path d="M110.672 72.778H76.793c-1.248 0-2.259-1.085-2.259-2.426 0-1.339 1.01-2.427 2.26-2.427h33.878c1.248 0 2.259 1.086 2.259 2.427 0 1.338-1.011 2.426-2.259 2.426zM42.912 58.222H20.328c-1.249 0-2.26-1.089-2.26-2.427s1.011-2.427 2.26-2.427h22.587c1.248 0 2.26 1.089 2.26 2.427s-1.011 2.427-2.263 2.427zM99.378 58.222H65.499c-1.248 0-2.259-1.089-2.259-2.427s1.01-2.427 2.26-2.427h33.878c1.248 0 2.259 1.089 2.259 2.427 0 1.341-1.008 2.427-2.26 2.427zM54.206 58.222c-.294 0-.586-.072-.857-.196a2.31 2.31 0 01-.745-.508 2.59 2.59 0 010-3.446c.225-.217.453-.388.745-.508a2.191 2.191 0 012.461.508c.407.462.655 1.091.655 1.723 0 .63-.248 1.261-.655 1.723-.43.437-1.016.704-1.604.704zM65.5 72.778H31.62c-1.248 0-2.259-1.085-2.259-2.426 0-1.339 1.01-2.427 2.26-2.427H65.5c1.249 0 2.26 1.086 2.26 2.427 0 1.34-1.011 2.426-2.26 2.426zM20.328 72.778c-.294 0-.586-.074-.857-.195a2.589 2.589 0 01-.745-.508 2.59 2.59 0 01-.655-1.723c0-.316.067-.632.182-.92.113-.317.271-.559.473-.8a2.23 2.23 0 012.032-.655c.161.025.294.075.432.146.133.05.271.12.384.217.133.096.248.195.36.291.203.242.361.487.474.8.113.291.182.607.182.92 0 .655-.248 1.262-.655 1.724-.113.096-.228.195-.361.291-.113.096-.25.17-.384.217-.138.074-.271.121-.432.146-.136.025-.294.05-.43.05zM110.672 58.222c-.138 0-.294-.025-.43-.05a1.276 1.276 0 01-.43-.145 1.798 1.798 0 01-.409-.218c-.11-.096-.223-.195-.338-.29a2.64 2.64 0 01-.655-1.724c0-.63.246-1.261.655-1.723l.338-.291c.138-.096.274-.17.409-.217.136-.072.271-.121.43-.146.724-.17 1.512.096 2.034.654.09.12.182.242.271.387.09.121.156.267.203.413.069.145.112.291.133.461.025.146.046.316.046.462 0 .146-.023.316-.046.486a1.623 1.623 0 01-.133.437 1.99 1.99 0 01-.203.437c-.089.121-.181.242-.271.363l-.338.291a1.66 1.66 0 01-.406.218c-.139.07-.272.12-.433.145a2.47 2.47 0 01-.427.05zM110.672 29.111H76.793c-1.248 0-2.259-1.088-2.259-2.427 0-1.338 1.01-2.426 2.26-2.426h33.878c1.248 0 2.259 1.088 2.259 2.426 0 1.339-1.011 2.427-2.259 2.427zM110.672 43.668H88.084c-1.248 0-2.259-1.089-2.259-2.427s1.01-2.426 2.26-2.426h22.587c1.248 0 2.259 1.088 2.259 2.426s-1.011 2.427-2.259 2.427zM70.015 43.668H65.5c-1.248 0-2.259-1.089-2.259-2.427s1.01-2.426 2.26-2.426h4.515c1.249 0 2.26 1.088 2.26 2.426s-1.008 2.427-2.26 2.427zM99.378 14.557H65.499c-1.248 0-2.259-1.088-2.259-2.426s1.01-2.427 2.26-2.427h33.878c1.248 0 2.259 1.089 2.259 2.427s-1.008 2.426-2.26 2.426zM110.672 14.557c-.138 0-.294-.025-.43-.05a1.278 1.278 0 01-.43-.145 1.798 1.798 0 01-.409-.217c-.11-.097-.223-.195-.338-.292a2.64 2.64 0 01-.655-1.723c0-.632.246-1.261.655-1.723l.338-.291c.138-.096.274-.17.409-.217a1.34 1.34 0 01.43-.146c.724-.17 1.512.096 2.034.654.09.121.182.242.271.388.09.12.156.266.203.412.069.145.112.291.133.462.025.145.046.316.046.461 0 .146-.023.316-.046.487a1.622 1.622 0 01-.133.437 1.99 1.99 0 01-.203.437l-.271.362c-.112.097-.228.195-.338.292a1.66 1.66 0 01-.406.217c-.139.071-.272.12-.433.145a2.48 2.48 0 01-.427.05zM67.76 29.11c-.59 0-1.178-.266-1.605-.703a2.832 2.832 0 01-.473-.8 2.583 2.583 0 01-.182-.923c0-.316.07-.63.182-.92.112-.292.27-.558.473-.8.52-.558 1.31-.8 2.031-.654.162.025.295.071.433.146.133.049.271.12.384.217.133.096.248.195.338.29.225.243.383.51.496.8.112.292.181.608.181.921 0 .316-.069.63-.181.92a2.45 2.45 0 01-.496.8c-.09.097-.205.196-.338.292-.113.096-.251.17-.384.217-.138.071-.271.12-.433.146a2.242 2.242 0 01-.427.052zM79.052 43.668c-.611 0-1.177-.267-1.604-.704a2.639 2.639 0 01-.655-1.723c0-.63.246-1.261.655-1.723.837-.899 2.372-.899 3.208 0 .407.462.655 1.091.655 1.723 0 .17-.023.316-.046.486-.02.146-.066.292-.133.437a1.96 1.96 0 01-.202.437l-.271.363c-.432.437-.998.704-1.607.704zM20.328 43.668h31.62V9.704h-31.62v33.964z" fill="#FDD762"/></svg>