<svg width="152" height="131" viewBox="0 0 152 131" fill="none" xmlns="http://www.w3.org/2000/svg">
<g clip-path="url(#clip0)">
<path d="M152 0H0V105.915H152V0Z" fill="white"/>
<path d="M36.585 44.5957H28.9325C27.4388 44.5957 26.207 43.2857 26.207 41.697V33.5583C26.207 31.9695 27.4388 30.6595 28.9325 30.6595H36.585C38.0788 30.6595 39.3105 31.9695 39.3105 33.5583V41.697C39.3105 43.2857 38.0788 44.5957 36.585 44.5957Z" fill="#FDD762"/>
<path d="M65.4121 44.5957H57.7597C56.2659 44.5957 55.0342 43.2857 55.0342 41.697V33.5583C55.0342 31.9695 56.2659 30.6595 57.7597 30.6595H65.4121C66.9059 30.6595 68.1376 31.9695 68.1376 33.5583V41.697C68.1376 43.2857 66.9059 44.5957 65.4121 44.5957Z" fill="#FDD762"/>
<path d="M94.2403 44.5957H86.5878C85.094 44.5957 83.8623 43.2857 83.8623 41.697V33.5583C83.8623 31.9695 85.094 30.6595 86.5878 30.6595H94.2403C95.734 30.6595 96.9658 31.9695 96.9658 33.5583V41.697C96.9658 43.2857 95.734 44.5957 94.2403 44.5957Z" fill="#FDD762"/>
<path d="M123.067 44.5957H115.415C113.921 44.5957 112.689 43.2857 112.689 41.697V33.5583C112.689 31.9695 113.921 30.6595 115.415 30.6595H123.067C124.561 30.6595 125.793 31.9695 125.793 33.5583V41.697C125.793 43.2857 124.561 44.5957 123.067 44.5957Z" fill="#FDD762"/>
<path d="M36.585 75.2552H28.9325C27.4388 75.2552 26.207 73.9452 26.207 72.3565V64.2178C26.207 62.6291 27.4388 61.3191 28.9325 61.3191H36.585C38.0788 61.3191 39.3105 62.6291 39.3105 64.2178V72.3565C39.3105 73.9452 38.0788 75.2552 36.585 75.2552Z" fill="#FDD762"/>
<path d="M65.4121 75.2552H57.7597C56.2659 75.2552 55.0342 73.9452 55.0342 72.3565V64.2178C55.0342 62.6291 56.2659 61.3191 57.7597 61.3191H65.4121C66.9059 61.3191 68.1376 62.6291 68.1376 64.2178V72.3565C68.1376 73.9452 66.9059 75.2552 65.4121 75.2552Z" fill="#FDD762"/>
<path d="M94.2403 75.2552H86.5878C85.094 75.2552 83.8623 73.9452 83.8623 72.3565V64.2178C83.8623 62.6291 85.094 61.3191 86.5878 61.3191H94.2403C95.734 61.3191 96.9658 62.6291 96.9658 64.2178V72.3565C96.9658 73.9452 95.734 75.2552 94.2403 75.2552Z" fill="#FDD762"/>
<path d="M123.067 75.2552H115.415C113.921 75.2552 112.689 73.9452 112.689 72.3565V64.2178C112.689 62.6291 113.921 61.3191 115.415 61.3191H123.067C124.561 61.3191 125.793 62.6291 125.793 64.2178V72.3565C125.793 73.9452 124.561 75.2552 123.067 75.2552Z" fill="#FDD762"/>
<path d="M78.6209 122.638V105.915H73.3795V122.638H39.3105V131H112.69V122.638H78.6209Z" fill="#FDD762"/>
</g>
<defs>
<clipPath id="clip0">
<rect width="152" height="131" fill="white"/>
</clipPath>
</defs>
</svg>
