<svg width="732" height="693" viewBox="0 0 732 693" fill="none" xmlns="http://www.w3.org/2000/svg">
<path d="M408.68 213.2H404.8V217.32H402.79V213.2H398.93V211.37H402.79V207.27H404.8V211.37H408.68V213.2Z" fill="white"/>
<path d="M521.68 522.2H517.8V526.32H515.79V522.2H511.93V520.37H515.79V516.27H517.8V520.37H521.68V522.2Z" fill="#1631A4"/>
<path d="M608.68 293.2H604.8V297.32H602.79V293.2H598.93V291.37H602.79V287.27H604.8V291.37H608.68V293.2Z" fill="#1631A4"/>
<path d="M287.68 285.2H283.8V289.32H281.79V285.2H277.93V283.37H281.79V279.27H283.8V283.37H287.68V285.2Z" fill="#D3008D"/>
<path d="M272.04 168.6H260.4V180.96H254.37V168.6H242.79V163.11H254.37V150.81H260.4V163.11H272.04V168.6Z" fill="#1631A4"/>
<path d="M726.904 185.249H717.592V195.137H712.768V185.249H703.504V180.857H712.768V171.017H717.592V180.857H726.904V185.249Z" fill="#D3008D"/>
<path d="M262.088 436.72H255.88V443.312H252.664V436.72H246.488V433.792H252.664V427.232H255.88V433.792H262.088V436.72Z" fill="#1631A4"/>
<path d="M678.04 565.6H666.4V577.96H660.37V565.6H648.79V560.11H660.37V547.81H666.4V560.11H678.04V565.6Z" fill="white"/>
<path d="M660.04 382.6H648.4V394.96H642.37V382.6H630.79V377.11H642.37V364.81H648.4V377.11H660.04V382.6Z" fill="#B48728"/>
<path d="M198.04 340.6H186.4V352.96H180.37V340.6H168.79V335.11H180.37V322.81H186.4V335.11H198.04V340.6Z" fill="white"/>
<path d="M524.088 184.72H517.88V191.312H514.664V184.72H508.488V181.792H514.664V175.232H517.88V181.792H524.088V184.72Z" fill="#B48728"/>
<path d="M420.088 568.72H413.88V575.312H410.664V568.72H404.488V565.792H410.664V559.232H413.88V565.792H420.088V568.72Z" fill="#B48728"/>
<path d="M272.04 576.6H260.4V588.96H254.37V576.6H242.79V571.11H254.37V558.81H260.4V571.11H272.04V576.6Z" fill="#D3008D"/>
<path d="M372.384 405.8H377.064V427.04H390.24V431H372.384V405.8ZM393.503 411.776H398.003V431H393.503V411.776ZM395.771 408.608C394.955 408.608 394.271 408.356 393.719 407.852C393.167 407.324 392.891 406.676 392.891 405.908C392.891 405.14 393.167 404.504 393.719 404C394.271 403.472 394.955 403.208 395.771 403.208C396.587 403.208 397.271 403.46 397.823 403.964C398.375 404.444 398.651 405.056 398.651 405.8C398.651 406.592 398.375 407.264 397.823 407.816C397.295 408.344 396.611 408.608 395.771 408.608ZM412.549 431.252C410.605 431.252 408.853 430.832 407.293 429.992C405.733 429.152 404.509 427.988 403.621 426.5C402.757 424.988 402.325 423.284 402.325 421.388C402.325 419.492 402.757 417.8 403.621 416.312C404.509 414.824 405.733 413.66 407.293 412.82C408.853 411.98 410.605 411.56 412.549 411.56C414.517 411.56 416.281 411.98 417.841 412.82C419.401 413.66 420.613 414.824 421.477 416.312C422.365 417.8 422.809 419.492 422.809 421.388C422.809 423.284 422.365 424.988 421.477 426.5C420.613 427.988 419.401 429.152 417.841 429.992C416.281 430.832 414.517 431.252 412.549 431.252ZM412.549 427.4C414.205 427.4 415.573 426.848 416.653 425.744C417.733 424.64 418.273 423.188 418.273 421.388C418.273 419.588 417.733 418.136 416.653 417.032C415.573 415.928 414.205 415.376 412.549 415.376C410.893 415.376 409.525 415.928 408.445 417.032C407.389 418.136 406.861 419.588 406.861 421.388C406.861 423.188 407.389 424.64 408.445 425.744C409.525 426.848 410.893 427.4 412.549 427.4ZM438.02 411.56C440.444 411.56 442.388 412.268 443.852 413.684C445.316 415.1 446.048 417.2 446.048 419.984V431H441.548V420.56C441.548 418.88 441.152 417.62 440.36 416.78C439.568 415.916 438.44 415.484 436.976 415.484C435.32 415.484 434.012 415.988 433.052 416.996C432.092 417.98 431.612 419.408 431.612 421.28V431H427.112V411.776H431.396V414.26C432.14 413.372 433.076 412.7 434.204 412.244C435.332 411.788 436.604 411.56 438.02 411.56ZM457.697 431.252C456.137 431.252 454.613 431.048 453.125 430.64C451.637 430.232 450.449 429.716 449.561 429.092L451.289 425.672C452.153 426.248 453.185 426.716 454.385 427.076C455.609 427.412 456.809 427.58 457.985 427.58C460.673 427.58 462.017 426.872 462.017 425.456C462.017 424.784 461.669 424.316 460.973 424.052C460.301 423.788 459.209 423.536 457.697 423.296C456.113 423.056 454.817 422.78 453.809 422.468C452.825 422.156 451.961 421.616 451.217 420.848C450.497 420.056 450.137 418.964 450.137 417.572C450.137 415.748 450.893 414.296 452.405 413.216C453.941 412.112 456.005 411.56 458.597 411.56C459.917 411.56 461.237 411.716 462.557 412.028C463.877 412.316 464.957 412.712 465.797 413.216L464.069 416.636C462.437 415.676 460.601 415.196 458.561 415.196C457.241 415.196 456.233 415.4 455.537 415.808C454.865 416.192 454.529 416.708 454.529 417.356C454.529 418.076 454.889 418.592 455.609 418.904C456.353 419.192 457.493 419.468 459.029 419.732C460.565 419.972 461.825 420.248 462.809 420.56C463.793 420.872 464.633 421.4 465.329 422.144C466.049 422.888 466.409 423.944 466.409 425.312C466.409 427.112 465.629 428.552 464.069 429.632C462.509 430.712 460.385 431.252 457.697 431.252ZM497.873 418.112H502.301V428.156C501.005 429.188 499.493 429.98 497.765 430.532C496.037 431.084 494.261 431.36 492.437 431.36C489.869 431.36 487.553 430.808 485.489 429.704C483.425 428.576 481.805 427.028 480.629 425.06C479.453 423.092 478.865 420.872 478.865 418.4C478.865 415.928 479.453 413.708 480.629 411.74C481.805 409.772 483.425 408.236 485.489 407.132C487.577 406.004 489.917 405.44 492.509 405.44C494.621 405.44 496.541 405.788 498.269 406.484C499.997 407.18 501.449 408.2 502.625 409.544L499.673 412.424C497.753 410.504 495.437 409.544 492.725 409.544C490.949 409.544 489.365 409.916 487.973 410.66C486.605 411.404 485.525 412.448 484.733 413.792C483.965 415.136 483.581 416.672 483.581 418.4C483.581 420.08 483.965 421.592 484.733 422.936C485.525 424.28 486.605 425.336 487.973 426.104C489.365 426.872 490.937 427.256 492.689 427.256C494.657 427.256 496.385 426.824 497.873 425.96V418.112ZM512.326 414.584C513.622 412.568 515.902 411.56 519.166 411.56V415.844C518.782 415.772 518.434 415.736 518.122 415.736C516.37 415.736 515.002 416.252 514.018 417.284C513.034 418.292 512.542 419.756 512.542 421.676V431H508.042V411.776H512.326V414.584ZM531.447 431.252C529.503 431.252 527.751 430.832 526.191 429.992C524.631 429.152 523.407 427.988 522.519 426.5C521.655 424.988 521.223 423.284 521.223 421.388C521.223 419.492 521.655 417.8 522.519 416.312C523.407 414.824 524.631 413.66 526.191 412.82C527.751 411.98 529.503 411.56 531.447 411.56C533.415 411.56 535.179 411.98 536.739 412.82C538.299 413.66 539.511 414.824 540.375 416.312C541.263 417.8 541.707 419.492 541.707 421.388C541.707 423.284 541.263 424.988 540.375 426.5C539.511 427.988 538.299 429.152 536.739 429.992C535.179 430.832 533.415 431.252 531.447 431.252ZM531.447 427.4C533.103 427.4 534.471 426.848 535.551 425.744C536.631 424.64 537.171 423.188 537.171 421.388C537.171 419.588 536.631 418.136 535.551 417.032C534.471 415.928 533.103 415.376 531.447 415.376C529.791 415.376 528.423 415.928 527.343 417.032C526.287 418.136 525.759 419.588 525.759 421.388C525.759 423.188 526.287 424.64 527.343 425.744C528.423 426.848 529.791 427.4 531.447 427.4ZM564.623 411.776V431H560.339V428.552C559.619 429.416 558.719 430.088 557.639 430.568C556.559 431.024 555.395 431.252 554.147 431.252C551.579 431.252 549.551 430.544 548.063 429.128C546.599 427.688 545.867 425.564 545.867 422.756V411.776H550.367V422.144C550.367 423.872 550.751 425.168 551.519 426.032C552.311 426.872 553.427 427.292 554.867 427.292C556.475 427.292 557.747 426.8 558.683 425.816C559.643 424.808 560.123 423.368 560.123 421.496V411.776H564.623ZM581.171 411.56C583.043 411.56 584.711 411.968 586.175 412.784C587.663 413.6 588.827 414.752 589.667 416.24C590.507 417.728 590.927 419.444 590.927 421.388C590.927 423.332 590.507 425.06 589.667 426.572C588.827 428.06 587.663 429.212 586.175 430.028C584.711 430.844 583.043 431.252 581.171 431.252C578.579 431.252 576.527 430.388 575.015 428.66V437.984H570.515V411.776H574.799V414.296C575.543 413.384 576.455 412.7 577.535 412.244C578.639 411.788 579.851 411.56 581.171 411.56ZM580.667 427.4C582.323 427.4 583.679 426.848 584.735 425.744C585.815 424.64 586.355 423.188 586.355 421.388C586.355 419.588 585.815 418.136 584.735 417.032C583.679 415.928 582.323 415.376 580.667 415.376C579.587 415.376 578.615 415.628 577.751 416.132C576.887 416.612 576.203 417.308 575.699 418.22C575.195 419.132 574.943 420.188 574.943 421.388C574.943 422.588 575.195 423.644 575.699 424.556C576.203 425.468 576.887 426.176 577.751 426.68C578.615 427.16 579.587 427.4 580.667 427.4Z" fill="#F5F5F5"/>
<path d="M450.28 448H455.98C457.46 448 458.767 448.3 459.9 448.9C461.033 449.487 461.913 450.313 462.54 451.38C463.167 452.433 463.48 453.64 463.48 455C463.48 456.36 463.167 457.573 462.54 458.64C461.913 459.693 461.033 460.52 459.9 461.12C458.767 461.707 457.46 462 455.98 462H450.28V448ZM455.9 460.72C457.127 460.72 458.2 460.48 459.12 460C460.04 459.507 460.753 458.833 461.26 457.98C461.767 457.113 462.02 456.12 462.02 455C462.02 453.88 461.767 452.893 461.26 452.04C460.753 451.173 460.04 450.5 459.12 450.02C458.2 449.527 457.127 449.28 455.9 449.28H451.76V460.72H455.9ZM466.503 451.48H467.923V462H466.503V451.48ZM467.223 449.18C466.93 449.18 466.683 449.08 466.483 448.88C466.283 448.68 466.183 448.44 466.183 448.16C466.183 447.893 466.283 447.66 466.483 447.46C466.683 447.26 466.93 447.16 467.223 447.16C467.517 447.16 467.763 447.26 467.963 447.46C468.163 447.647 468.263 447.873 468.263 448.14C468.263 448.433 468.163 448.68 467.963 448.88C467.763 449.08 467.517 449.18 467.223 449.18ZM481.615 451.48V460.72C481.615 462.507 481.175 463.827 480.295 464.68C479.428 465.547 478.115 465.98 476.355 465.98C475.381 465.98 474.455 465.833 473.575 465.54C472.708 465.26 472.001 464.867 471.455 464.36L472.175 463.28C472.681 463.733 473.295 464.087 474.015 464.34C474.748 464.593 475.515 464.72 476.315 464.72C477.648 464.72 478.628 464.407 479.255 463.78C479.881 463.167 480.195 462.207 480.195 460.9V459.56C479.755 460.227 479.175 460.733 478.455 461.08C477.748 461.427 476.961 461.6 476.095 461.6C475.108 461.6 474.208 461.387 473.395 460.96C472.595 460.52 471.961 459.913 471.495 459.14C471.041 458.353 470.815 457.467 470.815 456.48C470.815 455.493 471.041 454.613 471.495 453.84C471.961 453.067 472.595 452.467 473.395 452.04C474.195 451.613 475.095 451.4 476.095 451.4C476.988 451.4 477.795 451.58 478.515 451.94C479.235 452.3 479.815 452.82 480.255 453.5V451.48H481.615ZM476.235 460.34C476.995 460.34 477.681 460.18 478.295 459.86C478.908 459.527 479.381 459.067 479.715 458.48C480.061 457.893 480.235 457.227 480.235 456.48C480.235 455.733 480.061 455.073 479.715 454.5C479.381 453.913 478.908 453.46 478.295 453.14C477.695 452.807 477.008 452.64 476.235 452.64C475.475 452.64 474.788 452.8 474.175 453.12C473.575 453.44 473.101 453.893 472.755 454.48C472.421 455.067 472.255 455.733 472.255 456.48C472.255 457.227 472.421 457.893 472.755 458.48C473.101 459.067 473.575 459.527 474.175 459.86C474.788 460.18 475.475 460.34 476.235 460.34ZM485.585 451.48H487.005V462H485.585V451.48ZM486.305 449.18C486.012 449.18 485.765 449.08 485.565 448.88C485.365 448.68 485.265 448.44 485.265 448.16C485.265 447.893 485.365 447.66 485.565 447.46C485.765 447.26 486.012 447.16 486.305 447.16C486.599 447.16 486.845 447.26 487.045 447.46C487.245 447.647 487.345 447.873 487.345 448.14C487.345 448.433 487.245 448.68 487.045 448.88C486.845 449.08 486.599 449.18 486.305 449.18ZM496.497 461.36C496.23 461.6 495.897 461.787 495.497 461.92C495.11 462.04 494.703 462.1 494.277 462.1C493.29 462.1 492.53 461.833 491.997 461.3C491.463 460.767 491.197 460.013 491.197 459.04V452.68H489.317V451.48H491.197V449.18H492.617V451.48H495.817V452.68H492.617V458.96C492.617 459.587 492.77 460.067 493.077 460.4C493.397 460.72 493.85 460.88 494.437 460.88C494.73 460.88 495.01 460.833 495.277 460.74C495.557 460.647 495.797 460.513 495.997 460.34L496.497 461.36ZM502.762 451.4C504.135 451.4 505.188 451.747 505.922 452.44C506.655 453.12 507.022 454.133 507.022 455.48V462H505.662V460.36C505.342 460.907 504.868 461.333 504.242 461.64C503.628 461.947 502.895 462.1 502.042 462.1C500.868 462.1 499.935 461.82 499.242 461.26C498.548 460.7 498.202 459.96 498.202 459.04C498.202 458.147 498.522 457.427 499.162 456.88C499.815 456.333 500.848 456.06 502.262 456.06H505.602V455.42C505.602 454.513 505.348 453.827 504.842 453.36C504.335 452.88 503.595 452.64 502.622 452.64C501.955 452.64 501.315 452.753 500.702 452.98C500.088 453.193 499.562 453.493 499.122 453.88L498.482 452.82C499.015 452.367 499.655 452.02 500.402 451.78C501.148 451.527 501.935 451.4 502.762 451.4ZM502.262 460.98C503.062 460.98 503.748 460.8 504.322 460.44C504.895 460.067 505.322 459.533 505.602 458.84V457.12H502.302C500.502 457.12 499.602 457.747 499.602 459C499.602 459.613 499.835 460.1 500.302 460.46C500.768 460.807 501.422 460.98 502.262 460.98ZM510.878 447.16H512.298V462H510.878V447.16ZM525.164 451.4C526.537 451.4 527.591 451.747 528.324 452.44C529.057 453.12 529.424 454.133 529.424 455.48V462H528.064V460.36C527.744 460.907 527.271 461.333 526.644 461.64C526.031 461.947 525.297 462.1 524.444 462.1C523.271 462.1 522.337 461.82 521.644 461.26C520.951 460.7 520.604 459.96 520.604 459.04C520.604 458.147 520.924 457.427 521.564 456.88C522.217 456.333 523.251 456.06 524.664 456.06H528.004V455.42C528.004 454.513 527.751 453.827 527.244 453.36C526.737 452.88 525.997 452.64 525.024 452.64C524.357 452.64 523.717 452.753 523.104 452.98C522.491 453.193 521.964 453.493 521.524 453.88L520.884 452.82C521.417 452.367 522.057 452.02 522.804 451.78C523.551 451.527 524.337 451.4 525.164 451.4ZM524.664 460.98C525.464 460.98 526.151 460.8 526.724 460.44C527.297 460.067 527.724 459.533 528.004 458.84V457.12H524.704C522.904 457.12 522.004 457.747 522.004 459C522.004 459.613 522.237 460.1 522.704 460.46C523.171 460.807 523.824 460.98 524.664 460.98ZM543.06 451.48V460.72C543.06 462.507 542.62 463.827 541.74 464.68C540.873 465.547 539.56 465.98 537.8 465.98C536.827 465.98 535.9 465.833 535.02 465.54C534.153 465.26 533.447 464.867 532.9 464.36L533.62 463.28C534.127 463.733 534.74 464.087 535.46 464.34C536.193 464.593 536.96 464.72 537.76 464.72C539.093 464.72 540.073 464.407 540.7 463.78C541.327 463.167 541.64 462.207 541.64 460.9V459.56C541.2 460.227 540.62 460.733 539.9 461.08C539.193 461.427 538.407 461.6 537.54 461.6C536.553 461.6 535.653 461.387 534.84 460.96C534.04 460.52 533.407 459.913 532.94 459.14C532.487 458.353 532.26 457.467 532.26 456.48C532.26 455.493 532.487 454.613 532.94 453.84C533.407 453.067 534.04 452.467 534.84 452.04C535.64 451.613 536.54 451.4 537.54 451.4C538.433 451.4 539.24 451.58 539.96 451.94C540.68 452.3 541.26 452.82 541.7 453.5V451.48H543.06ZM537.68 460.34C538.44 460.34 539.127 460.18 539.74 459.86C540.353 459.527 540.827 459.067 541.16 458.48C541.507 457.893 541.68 457.227 541.68 456.48C541.68 455.733 541.507 455.073 541.16 454.5C540.827 453.913 540.353 453.46 539.74 453.14C539.14 452.807 538.453 452.64 537.68 452.64C536.92 452.64 536.233 452.8 535.62 453.12C535.02 453.44 534.547 453.893 534.2 454.48C533.867 455.067 533.7 455.733 533.7 456.48C533.7 457.227 533.867 457.893 534.2 458.48C534.547 459.067 535.02 459.527 535.62 459.86C536.233 460.18 536.92 460.34 537.68 460.34ZM556.191 457.18H547.391C547.471 458.273 547.891 459.16 548.651 459.84C549.411 460.507 550.371 460.84 551.531 460.84C552.184 460.84 552.784 460.727 553.331 460.5C553.877 460.26 554.351 459.913 554.751 459.46L555.551 460.38C555.084 460.94 554.497 461.367 553.791 461.66C553.097 461.953 552.331 462.1 551.491 462.1C550.411 462.1 549.451 461.873 548.611 461.42C547.784 460.953 547.137 460.313 546.671 459.5C546.204 458.687 545.971 457.767 545.971 456.74C545.971 455.713 546.191 454.793 546.631 453.98C547.084 453.167 547.697 452.533 548.471 452.08C549.257 451.627 550.137 451.4 551.111 451.4C552.084 451.4 552.957 451.627 553.731 452.08C554.504 452.533 555.111 453.167 555.551 453.98C555.991 454.78 556.211 455.7 556.211 456.74L556.191 457.18ZM551.111 452.62C550.097 452.62 549.244 452.947 548.551 453.6C547.871 454.24 547.484 455.08 547.391 456.12H554.851C554.757 455.08 554.364 454.24 553.671 453.6C552.991 452.947 552.137 452.62 551.111 452.62ZM564.461 451.4C565.781 451.4 566.828 451.787 567.601 452.56C568.388 453.32 568.781 454.433 568.781 455.9V462H567.361V456.04C567.361 454.947 567.088 454.113 566.541 453.54C565.994 452.967 565.214 452.68 564.201 452.68C563.068 452.68 562.168 453.02 561.501 453.7C560.848 454.367 560.521 455.293 560.521 456.48V462H559.101V451.48H560.461V453.42C560.848 452.78 561.381 452.287 562.061 451.94C562.754 451.58 563.554 451.4 564.461 451.4ZM577.035 462.1C575.995 462.1 575.062 461.873 574.235 461.42C573.422 460.967 572.782 460.333 572.315 459.52C571.849 458.693 571.615 457.767 571.615 456.74C571.615 455.713 571.849 454.793 572.315 453.98C572.782 453.167 573.422 452.533 574.235 452.08C575.062 451.627 575.995 451.4 577.035 451.4C577.942 451.4 578.749 451.58 579.455 451.94C580.175 452.287 580.742 452.8 581.155 453.48L580.095 454.2C579.749 453.68 579.309 453.293 578.775 453.04C578.242 452.773 577.662 452.64 577.035 452.64C576.275 452.64 575.589 452.813 574.975 453.16C574.375 453.493 573.902 453.973 573.555 454.6C573.222 455.227 573.055 455.94 573.055 456.74C573.055 457.553 573.222 458.273 573.555 458.9C573.902 459.513 574.375 459.993 574.975 460.34C575.589 460.673 576.275 460.84 577.035 460.84C577.662 460.84 578.242 460.713 578.775 460.46C579.309 460.207 579.749 459.82 580.095 459.3L581.155 460.02C580.742 460.7 580.175 461.22 579.455 461.58C578.735 461.927 577.929 462.1 577.035 462.1ZM592.629 451.48L587.369 463.26C586.942 464.247 586.449 464.947 585.889 465.36C585.329 465.773 584.655 465.98 583.869 465.98C583.362 465.98 582.889 465.9 582.449 465.74C582.009 465.58 581.629 465.34 581.309 465.02L581.969 463.96C582.502 464.493 583.142 464.76 583.889 464.76C584.369 464.76 584.775 464.627 585.109 464.36C585.455 464.093 585.775 463.64 586.069 463L586.529 461.98L581.829 451.48H583.309L587.269 460.42L591.229 451.48H592.629Z" fill="#B48728"/>
<mask id="mask0" mask-type="alpha" maskUnits="userSpaceOnUse" x="160" y="215" width="404" height="384">
<path d="M160.856 215.35L563.311 225.412L284.7 598.408L160.856 215.35Z" fill="#C4C4C4"/>
</mask>
<g mask="url(#mask0)">
<rect x="267.572" y="303.829" width="180.193" height="178.919" stroke="#F5F5F5" stroke-width="25"/>
</g>
</svg>
