<svg width="673" height="606" viewBox="0 0 673 606" fill="none" xmlns="http://www.w3.org/2000/svg">
<g clip-path="url(#clip0)">
<path d="M506.445 537.708L505.442 536.017L534.787 518.816C538.403 516.693 542.904 516.713 546.521 518.875L570.775 533.363L569.773 535.054L545.518 520.566C542.531 518.777 538.797 518.757 535.789 520.527L506.445 537.708Z" fill="#D4ECFF"/>
<path d="M593.751 532.951L592.749 531.26L668.872 486.263C669.599 485.83 670.032 485.063 670.032 484.218C670.032 483.373 669.599 482.606 668.892 482.174L643.616 466.644L644.638 464.973L669.894 480.483C671.211 481.269 671.997 482.665 671.997 484.218C671.997 485.771 671.191 487.147 669.874 487.934L593.751 532.951Z" fill="#D4ECFF"/>
<path d="M510.848 470.988L509.865 469.278L584.062 426.561C584.829 426.109 585.281 425.322 585.281 424.438C585.281 423.553 584.829 422.747 584.042 422.315L544.772 399.767C539.387 396.681 536.045 390.901 536.045 384.709V255.496C536.045 250.149 538.679 245.156 543.121 242.148L549.018 238.138L550.118 239.77L544.222 243.78C540.33 246.434 538.011 250.818 538.011 255.516V384.729C538.011 390.233 540.979 395.344 545.735 398.076L585.006 420.624C586.401 421.43 587.227 422.846 587.227 424.458C587.227 426.05 586.401 427.485 585.025 428.291L510.848 470.988Z" fill="#D4ECFF"/>
<path d="M505.934 511.779C505.266 511.779 504.597 511.425 504.243 510.816C503.693 509.872 504.008 508.673 504.951 508.122L534.296 490.922C538.227 488.602 543.101 488.641 547.032 490.981L571.286 505.469C572.21 506.019 572.524 507.238 571.974 508.162C571.424 509.086 570.205 509.4 569.281 508.85L545.027 494.362C542.334 492.75 538.993 492.75 536.3 494.322L506.956 511.523C506.622 511.7 506.288 511.779 505.934 511.779Z" fill="#FF2C9C"/>
<path d="M464.325 603.779L301.033 509.498C295.352 506.216 296.06 500.495 302.625 496.701C309.17 492.907 319.095 492.514 324.776 495.777L488.068 590.057C493.748 593.34 493.04 599.061 486.476 602.855C479.911 606.649 470.005 607.062 464.325 603.779Z" fill="#D4ECFF"/>
<path d="M620.501 354.317C619.283 353.61 617.966 353 616.61 352.45H616.649L609.161 349.128L609.731 350.445C604.05 349.305 597.879 349.246 592.139 350.248L592.493 348.793L583.668 352.705H583.727C582.587 353.197 581.467 353.708 580.425 354.317C569.36 360.706 569.36 371.066 580.425 377.475C591.491 383.864 609.436 383.864 620.521 377.475C631.567 371.066 631.567 360.706 620.501 354.317Z" fill="#D4ECFF"/>
<path d="M609.849 360.352C604.66 363.34 596.247 363.34 591.059 360.352C585.87 357.364 585.87 352.509 591.059 349.501C596.247 346.513 604.66 346.513 609.849 349.501C615.037 352.489 615.037 357.345 609.849 360.352Z" fill="#5793CE"/>
<path d="M600.453 356.991C597.957 356.991 595.933 354.966 595.933 352.469V295.382H604.954V352.469C604.974 354.966 602.949 356.991 600.453 356.991Z" fill="#5793CE"/>
<path d="M603.637 297.446C601.829 298.488 598.92 298.488 597.112 297.446C595.304 296.405 595.304 294.714 597.112 293.692C598.92 292.65 601.829 292.65 603.637 293.692C605.426 294.734 605.426 296.424 603.637 297.446Z" fill="#5793CE"/>
<path d="M600.454 297.348C598.429 297.348 596.798 295.717 596.798 293.692V240.025H604.109V293.692C604.109 295.697 602.478 297.348 600.454 297.348Z" fill="#D4ECFF"/>
<path d="M653.089 268.136V266.033L656.057 265.6L659.378 263.104C659.909 262.711 660.951 262.671 661.56 263.025L664.017 264.441L666.454 264.087V266.21H666.434C666.415 266.446 666.238 266.682 665.884 266.858L658.14 270.299C657.531 270.574 656.666 270.535 656.116 270.22L653.541 268.726C653.246 268.588 653.109 268.352 653.089 268.136Z" fill="#396CAA"/>
<path d="M653.403 265.463L659.378 261C659.909 260.607 660.95 260.568 661.56 260.922L666.021 263.497C666.65 263.851 666.572 264.46 665.884 264.755L658.14 268.195C657.531 268.47 656.666 268.431 656.115 268.117L653.541 266.623C652.99 266.328 652.931 265.817 653.403 265.463Z" fill="#5793CE"/>
<path d="M643.34 275.606C644.185 275.606 645.05 275.41 645.738 275.017L655.015 269.65C655.526 269.355 655.703 268.706 655.408 268.195C655.113 267.684 654.465 267.507 653.954 267.802L644.676 273.169C643.989 273.562 642.731 273.562 642.043 273.169L626.614 264.244C626.103 263.949 625.454 264.126 625.159 264.637C624.865 265.148 625.041 265.797 625.552 266.092L640.981 275.017C641.63 275.41 642.475 275.606 643.34 275.606Z" fill="#D4ECFF"/>
<path d="M554.107 255.968L569.006 247.318L560.672 243.544L553.518 248.596L554.107 255.968Z" fill="url(#paint0_radial)"/>
<path d="M649.786 243.112C648.961 242.679 648.116 242.168 647.271 241.559L615.528 218.283C609.789 214.077 603.893 212.995 599.333 215.315C599.215 215.374 599.116 215.453 598.999 215.531L598.959 215.512L555.109 240.949L559.06 242.266L574.41 249.225L595.303 264.047L611.794 272.795L612.541 272.953C616.393 269.709 620.697 266.937 623.056 262.219C627.144 255.083 638.505 253.019 645.187 247.24C645.856 247.672 646.543 248.065 647.212 248.419C648.588 247.063 648.961 245.136 649.786 243.112Z" fill="#5793CE"/>
<path d="M663.722 232.614C663.034 232.614 662.425 232.85 661.914 233.243L619.007 258.091L620.58 264.5L622.191 263.733C619.735 267.566 615.961 270.083 612.561 272.972L617.415 273.994L659.437 249.54C659.634 249.461 659.83 249.382 660.027 249.284C660.597 248.989 661.147 248.635 661.639 248.262L661.717 248.223H661.697C664.901 245.746 666.709 241.46 666.709 236.094V235.583C666.67 233.931 665.353 232.614 663.722 232.614Z" fill="#396CAA"/>
<path d="M604.955 214.116C607.628 214.214 610.498 215.138 613.387 216.848C610.517 215.138 607.648 214.214 604.955 214.116Z" fill="#EAEAEA"/>
<path d="M624.511 260.077V259.565C624.511 257.934 623.194 256.617 621.563 256.617C619.932 256.617 618.615 257.934 618.615 259.565V260.077C618.615 264.028 617.357 266.918 615.175 268.018C612.699 269.276 608.945 268.353 605.132 265.541L573.389 242.266C568.495 238.688 563.503 237.391 559.297 238.512L585.516 223.296L555.13 240.93L559.061 242.247L574.411 249.206L595.304 264.028L611.795 272.776L612.541 272.933C616.394 269.689 620.698 266.918 623.057 262.2C623.47 261.492 623.961 260.843 624.492 260.214C624.492 260.194 624.511 260.135 624.511 260.077Z" fill="#5793CE"/>
<path d="M611.775 275.43C608.296 275.43 604.483 274.014 600.729 271.262L568.986 247.987C565.173 245.195 561.419 244.271 558.942 245.51C556.761 246.611 555.503 249.52 555.503 253.452C555.503 255.083 554.186 256.4 552.555 256.4C550.923 256.4 549.606 255.083 549.606 253.452C549.606 247.2 552.044 242.384 556.269 240.241C560.829 237.922 566.745 239.003 572.465 243.21L604.207 266.485C608.02 269.277 611.775 270.2 614.251 268.962C616.433 267.861 617.691 264.952 617.691 261.02V260.509C617.691 258.877 619.007 257.56 620.639 257.56C622.27 257.56 623.587 258.877 623.587 260.509V261.02C623.587 267.271 621.15 272.088 616.924 274.23C615.352 275.036 613.622 275.43 611.775 275.43Z" fill="#D4ECFF"/>
<path d="M586.833 327.464C586.833 327.464 580.858 324.457 577.182 328.939C573.507 333.421 568.259 344.036 568.102 351.192C567.945 358.347 573.762 357.876 577.241 356.185C580.7 354.494 590.842 339.79 591.452 336.92C592.061 334.05 590.724 330.158 589.761 329.391C588.759 328.624 586.833 327.464 586.833 327.464Z" fill="#173D7A"/>
<path d="M588.13 326.029L588.405 332.222C588.464 333.539 587.796 334.797 586.656 335.446C585.614 336.035 584.101 336.488 582.037 336.153C577.536 335.426 577.123 334.148 576.809 327.956C576.495 321.764 588.13 326.029 588.13 326.029Z" fill="#5793CE"/>
<path d="M564.937 315.552C564.937 315.552 558.962 312.544 555.287 317.026C551.611 321.508 546.363 332.123 546.206 339.279C546.049 346.434 551.867 345.963 555.346 344.272C558.805 342.581 568.947 327.877 569.556 325.007C570.165 322.137 568.829 318.245 567.866 317.478C566.863 316.711 564.937 315.552 564.937 315.552Z" fill="#173D7A"/>
<path d="M566.235 314.117L566.51 320.309C566.569 321.626 565.9 322.884 564.761 323.533C563.719 324.123 562.205 324.575 560.142 324.241C555.641 323.513 555.228 322.235 554.913 316.043C554.599 309.851 566.235 314.117 566.235 314.117Z" fill="#5793CE"/>
<path d="M619.598 200.336C617.829 171.537 588.405 204.582 588.405 204.582L568.279 224.318L550.157 244.232C546.619 248.124 544.968 253.373 545.656 258.583L552.987 314.431C553.341 317.183 555.7 319.228 558.491 319.208C559.277 319.208 560.181 319.129 561.203 318.972C567.748 317.95 567.257 311.738 567.257 311.738L565.92 259.487L603.992 236.526C603.992 236.546 621.366 229.154 619.598 200.336Z" fill="#FDD762"/>
<path d="M641.493 211.324C639.724 182.525 610.301 215.571 610.301 215.571L590.174 235.307L572.053 255.221C568.515 259.113 566.864 264.362 567.552 269.571L574.883 325.42C575.237 328.172 577.595 330.217 580.386 330.197C581.172 330.197 582.077 330.118 583.099 329.961C589.644 328.939 589.152 322.727 589.152 322.727L587.816 270.476L625.887 247.515C625.887 247.515 643.262 240.124 641.493 211.324Z" fill="#FDD762"/>
<path d="M624.079 118.853C646.387 128.092 645.935 141.283 645.935 141.283C645.935 141.283 641.572 189.622 643.066 221.901C643.695 235.406 571.365 236.428 582.155 200.414C594.872 157.953 590.096 123.59 596.051 118.401C602.007 113.25 618.32 116.474 624.079 118.853Z" fill="#FF2C9C"/>
<path d="M631.234 130.531C632.401 125.999 628.361 121.042 622.212 119.458C616.062 117.874 610.131 120.263 608.964 124.795C607.797 129.326 611.837 134.284 617.986 135.868C624.136 137.452 630.067 135.062 631.234 130.531Z" fill="#FFC2B0"/>
<path d="M621.818 137.43C620.482 137.43 619.106 137.253 617.75 136.899C614.546 136.073 611.775 134.383 609.927 132.102C608.001 129.743 607.293 127.05 607.962 124.514C609.278 119.423 615.804 116.69 622.506 118.42C625.69 119.246 628.481 120.937 630.329 123.217C632.255 125.576 632.962 128.269 632.294 130.805C631.646 133.341 629.739 135.346 626.909 136.486C625.356 137.115 623.607 137.43 621.818 137.43ZM618.418 120.052C614.271 120.052 610.811 121.978 610.025 125.084C609.554 126.932 610.104 128.957 611.598 130.785C613.15 132.692 615.529 134.147 618.3 134.854C621.052 135.562 623.843 135.444 626.123 134.52C628.304 133.636 629.759 132.142 630.25 130.294C630.722 128.446 630.171 126.421 628.697 124.593C627.145 122.686 624.766 121.231 621.995 120.524C620.757 120.209 619.558 120.052 618.418 120.052Z" fill="white"/>
<path d="M615.156 117.85C615.156 117.85 615.352 118.755 614.959 125.812C614.841 128.033 622.625 130.117 624.629 128.092C626.634 126.087 625.828 123.984 626.32 116.435C626.791 108.866 615.156 117.85 615.156 117.85Z" fill="#FFC2B0"/>
<path d="M626.32 116.435C626.32 116.435 624.413 123.453 614.959 126.146L615.097 119.777L626.32 116.435Z" fill="#EA9C92"/>
<path d="M632.294 98.6246C634.673 107.805 629.15 117.182 619.971 119.541C610.792 121.9 601.417 116.396 599.058 107.215C596.68 98.0349 602.203 88.658 611.382 86.299C620.561 83.9203 629.916 89.4443 632.294 98.6246Z" fill="#FFC2B0"/>
<path d="M619.617 103.539C619.617 103.539 610.163 107.589 603.618 107.628C597.073 107.667 598.508 102.202 598.508 102.202L617.927 99.3913L619.617 103.539Z" fill="#EA9C92"/>
<path d="M601.672 104.62C601.672 104.62 609.908 101.121 617.121 102.576C618.811 102.91 620.384 103.834 621.484 105.171C621.838 105.603 622.29 106.016 622.801 106.134C624.079 106.429 626.182 101.102 628.678 100.984C631.174 100.866 632.825 102.635 630.781 105.898C628.737 109.161 629.425 112.818 630.368 113.349C631.312 113.879 641.277 106.232 632.491 88.8349C623.705 71.4178 601.377 80.7947 597.899 84.3332C597.899 84.3332 594.243 87.5178 591.275 84.687C591.275 84.6674 587.933 109.653 601.672 104.62Z" fill="#FDD762"/>
<path d="M633.434 176.608V189.661C633.434 191.155 632.805 192.59 631.705 193.593L604.876 218.067L607.922 222.726L643.36 197.033C645.011 195.834 646.072 193.986 646.289 191.961L648.687 169.178L633.434 176.608Z" fill="#FFC2B0"/>
<path d="M644.048 134.756C644.048 134.756 652.185 147.003 655.212 179.223C655.212 179.223 641.316 183.725 633.415 181.169C625.513 178.613 644.048 134.756 644.048 134.756Z" fill="#FF2C9C"/>
<path d="M631.941 150.247C631.941 150.247 628.757 167.31 628.58 175.311C628.521 177.513 629.877 179.498 631.941 180.245V150.247Z" fill="#D3008D"/>
<path d="M624.983 235.052L619.047 234.265L580.759 212.17C579.541 211.462 577.398 211.541 575.964 212.366L548.84 228.014L545.263 227.542V231.12C545.243 231.592 545.499 232.044 546.088 232.378L589.466 257.423C590.685 258.13 592.827 258.052 594.262 257.226L623.803 240.183C624.609 239.73 625.002 239.121 624.983 238.571V235.052Z" fill="#173D7A"/>
<path d="M596.227 221.095L593.515 219.522H563.62L548.879 228.034L545.302 227.562V231.14C545.282 231.612 545.538 232.064 546.127 232.398L589.505 257.442C590.154 257.816 591.058 257.973 591.982 257.914L596.227 221.095Z" fill="#396CAA"/>
<path d="M546.874 227.759L545.282 227.542V231.12C545.263 231.592 545.518 232.044 546.108 232.378L546.874 232.811V227.759Z" fill="#5793CE"/>
<path d="M589.918 257.639C591.078 258.071 592.748 257.993 593.986 257.383V251.309H589.918V257.639Z" fill="#274F89"/>
<path d="M589.487 253.865L546.109 228.82C544.89 228.112 545.028 226.874 546.443 226.048L575.984 209.005C577.399 208.179 579.542 208.101 580.78 208.808L624.158 233.853C625.377 234.56 625.239 235.799 623.824 236.624L594.283 253.668C592.868 254.474 590.706 254.572 589.487 253.865Z" fill="white"/>
<path d="M588.758 250.071L552.692 229.233C551.67 228.643 551.807 227.621 552.987 226.933L568.809 218.028C569.988 217.34 571.777 217.281 572.799 217.871L608.865 238.708C609.887 239.298 609.75 240.32 608.57 241.008L592.748 249.913C591.549 250.582 589.78 250.66 588.758 250.071Z" fill="#D4ECFF"/>
<path d="M577.674 208.179L577.222 211.167C576.848 213.723 576.907 216.318 577.418 218.834L577.949 221.468C578.244 222.962 579.423 224.102 580.917 224.377C582.077 224.594 583.177 223.768 583.315 222.589L584.022 216.18C584.022 216.18 585.654 218.323 586.46 218.323C587.246 218.323 585.575 211.914 583.786 208.277C581.998 204.68 577.674 208.179 577.674 208.179Z" fill="#FFC2B0"/>
<path d="M592.375 160.587L587.717 169.807C586.617 171.989 585.968 174.367 585.811 176.805L583.786 208.317L577.654 208.179L574.883 172.795C574.804 171.694 574.843 170.593 575.04 169.531L578.224 151.584L592.375 160.587Z" fill="#FFC2B0"/>
<path d="M588.012 256.263L584.376 251.506L546.128 229.351C544.909 228.643 543.907 226.736 543.907 225.105L543.946 193.789L541.745 190.919L543.809 189.72C544.202 189.465 544.733 189.465 545.303 189.799L588.661 214.902C589.88 215.61 590.882 217.517 590.882 219.148L590.843 253.255C590.843 254.179 590.528 254.808 590.037 255.083L588.012 256.263Z" fill="#173D7A"/>
<path d="M561.557 238.315L558.845 236.742L543.927 210.833L543.946 193.809L541.745 190.939L543.809 189.74C544.202 189.484 544.733 189.484 545.303 189.819L588.661 214.922C589.31 215.295 589.899 216.003 590.292 216.829L561.557 238.315Z" fill="#396CAA"/>
<path d="M542.728 192.197L541.745 190.919L543.809 189.72C544.202 189.465 544.733 189.465 545.303 189.799L546.069 190.231L542.728 192.197Z" fill="#5793CE"/>
<path d="M589.053 215.197C590.017 215.983 590.763 217.477 590.862 218.854L586.616 221.291L584.592 217.772L589.053 215.197Z" fill="#274F89"/>
<path d="M586.597 216.121L543.258 191.018C542.04 190.31 541.037 191.057 541.037 192.689L540.998 226.795C540.998 228.427 541.981 230.334 543.219 231.042L586.577 256.145C587.796 256.853 588.798 256.106 588.798 254.474L588.838 220.367C588.818 218.736 587.835 216.829 586.597 216.121Z" fill="#5793CE"/>
<path d="M607.922 222.726L607.235 224.161C606.429 225.812 605.171 227.208 603.618 228.171L599.314 230.825C597.977 231.651 596.287 231.71 594.911 230.924C594.872 230.904 594.813 230.865 594.773 230.825C593.398 229.96 593.28 227.995 594.4 226.854L598.901 222.235C598.901 222.235 596.365 224.181 595.658 223.395C595.147 222.824 598.115 220.033 600.395 219.935C602.675 219.836 604.876 218.048 604.876 218.048L607.922 222.726Z" fill="#FFC2B0"/>
<path d="M596.503 118.361C596.503 118.361 580.013 136.309 573.35 152.783C573.35 152.783 578.991 162.946 592.808 166.936C606.606 170.927 596.503 118.361 596.503 118.361Z" fill="#FF2C9C"/>
<path d="M589.703 165.875L592.376 140.044L586.066 164.243C587.187 164.833 588.405 165.364 589.703 165.875Z" fill="#D3008D"/>
<path d="M608.866 114.744L604.424 113.525C604.424 113.525 606.547 116.848 609.632 117.713C612.718 118.558 613.21 115.943 613.21 115.943L608.866 114.744Z" fill="white"/>
<path d="M493.886 104.286L317.956 2.6735C312.177 -0.668375 306.929 -0.747008 302.959 1.74957V1.71025L280.867 14.5077L295.667 17.2795C295.628 18.0461 295.569 18.7931 295.569 19.5991V434.64C295.569 451.114 305.593 470.261 317.936 477.397L491.409 577.574C489.837 582.528 486.476 592.947 486.476 592.947L508.057 580.425C513.069 577.85 516.253 571.382 516.253 562.084V147.023C516.273 130.549 506.249 111.422 493.886 104.286Z" fill="#FF2C9C"/>
<path d="M659.261 460.569L632.845 445.315L606.429 460.569L632.845 475.824L659.261 460.569Z" fill="#D4ECFF"/>
<path d="M632.845 461.67V444.469L664.41 426.246V443.447L632.845 461.67Z" fill="#E8A200"/>
<path d="M632.845 444.469L601.279 426.246V443.447L632.845 461.67V444.469Z" fill="#F9BF30"/>
<path d="M664.41 426.246L632.845 408.023L601.279 426.246L632.845 444.469L664.41 426.246Z" fill="#FDD762"/>
<path d="M554.894 227.719C554.894 230.412 553.007 231.513 550.649 230.157C548.31 228.801 546.403 225.518 546.403 222.824C546.403 220.131 548.29 219.03 550.649 220.387C552.988 221.743 554.894 225.026 554.894 227.719Z" fill="white"/>
<path d="M510.357 458.859C509.669 458.859 509.02 458.505 508.647 457.876C508.096 456.933 508.43 455.734 509.374 455.183L583.571 412.466C584.239 412.073 584.298 411.444 584.298 411.188C584.298 410.933 584.219 410.304 583.551 409.911L544.281 387.363C538.601 384.099 535.063 378.005 535.063 371.459V242.247C535.063 236.565 537.873 231.277 542.551 228.073L548.448 224.063C549.352 223.454 550.57 223.689 551.18 224.574C551.789 225.478 551.553 226.697 550.669 227.306L544.772 231.317C541.156 233.774 538.994 237.863 538.994 242.227V371.44C538.994 376.59 541.765 381.387 546.227 383.942L585.497 406.49C587.187 407.473 588.209 409.203 588.209 411.169C588.209 413.115 587.207 414.864 585.497 415.847L511.3 458.564C511.045 458.781 510.691 458.859 510.357 458.859Z" fill="#FF2C9C"/>
<path d="M295.589 434.621C295.589 451.094 305.613 470.241 317.956 477.377L491.429 577.555C489.857 582.509 486.496 592.927 486.496 592.927L508.077 580.405C513.089 577.83 516.273 571.362 516.273 562.064V147.023C516.273 138.432 513.521 129.114 509.178 121.153L295.609 244.488V434.621H295.589Z" fill="#D3008D"/>
<path d="M471.696 591.846L295.766 490.233C283.403 483.098 273.398 463.951 273.398 447.477V32.4359C273.398 15.9624 283.422 8.394 295.766 15.5299L471.696 117.143C484.059 124.278 494.063 143.425 494.063 159.899V574.94C494.063 591.394 484.059 598.982 471.696 591.846Z" fill="#FF2C9C"/>
<path d="M302.488 145.509L288.867 136.152L283.54 118.696L278.214 129.999L273.379 127.738V137.351L274.932 139.789L273.379 146.728V153.333L283.54 151.977L295.255 167.054L292.149 149.736L302.488 145.509Z" fill="#D3008D"/>
<path d="M468.413 578.105L299.362 480.463C290.184 475.156 282.734 460.923 282.734 448.676V39.5521C282.734 27.3051 290.184 21.6828 299.362 26.9709L468.413 124.613C477.592 129.92 485.041 144.153 485.041 156.4V565.544C485.041 577.771 477.612 583.393 468.413 578.105Z" fill="white"/>
<path d="M399.268 452.451L316.285 404.524V202.773L355.379 225.341C382.541 241.028 399.268 270.004 399.268 301.359V452.451Z" fill="#EDEDED"/>
<path d="M286.606 183.253C278.233 178.279 266.597 178.889 253.743 186.319C228.29 201.004 207.594 236.88 207.594 266.249V287.46L208.459 287.971L291.598 336.881L292.856 311.502L293.898 301.653L298.301 286.359L298.812 284.02L308.266 264.971L315.715 255.673L321.749 248.478L336.451 236.9L337.748 235.936L344.981 232.83L354.71 230.295H362.297L370.768 231.789L286.606 183.253Z" fill="#D4ECFF"/>
<path d="M297.22 379.362L299.912 377.809V281.209C298.517 283.116 297.849 285.553 297.22 288.05V379.362Z" fill="#D4ECFF"/>
<path d="M381.224 427.78L297.22 379.362L298.085 287.912L301.288 278.673L311.017 261.944L322.515 248.301L332.893 240.006L344.096 233.184L364.439 230.865L375.21 236.959L381.224 246.159L383.111 260.293L382.463 413.174L381.224 427.78Z" fill="#D4ECFF"/>
<path d="M286.626 183.272C279.609 179.105 270.332 178.869 259.954 183.233L345.551 232.654L354.73 230.275H362.316L370.787 231.769L286.626 183.272Z" fill="#5793CE"/>
<path d="M261.959 182.447C259.286 183.43 256.554 184.707 253.763 186.319C251.896 187.401 250.048 188.619 248.24 189.917L333.562 239.18L336.49 236.88L337.787 235.917L345.02 232.811L347.91 232.064L261.959 182.447Z" fill="#E9F6FF"/>
<path d="M322.496 247.889L334.112 238.748L248.81 189.484C244.938 192.197 241.223 195.382 237.705 198.92L322.496 247.889Z" fill="white"/>
<path d="M383.917 426.227L381.224 427.78V262.927C381.224 235.268 361.727 224.004 337.768 237.843C313.808 251.683 294.311 285.436 294.311 313.114V335.347L291.618 336.9V314.667C291.618 285.278 312.315 249.422 337.768 234.737C363.221 220.053 383.917 232.005 383.917 261.374V426.227Z" fill="#5793CE"/>
<path d="M233.106 250.483L228.369 269.827L230.727 301.064L224.733 297.525L217.067 280.56L223.789 259.094L233.106 250.483Z" fill="#AEDEED"/>
<path opacity="0.4" d="M370.552 374.211C370.041 374.211 369.51 374.054 368.979 373.74L307.892 338.453C306.084 337.411 304.688 334.758 304.688 332.418V284.335C304.688 282.919 305.219 281.818 306.123 281.288C306.929 280.816 307.912 280.875 308.875 281.425L369.962 316.711C371.77 317.753 373.166 320.407 373.166 322.746V370.83C373.166 372.246 372.635 373.346 371.731 373.877C371.377 374.113 370.964 374.211 370.552 374.211ZM307.303 282.958C307.224 282.958 307.165 282.978 307.086 283.017C306.87 283.135 306.634 283.568 306.634 284.374V332.458C306.634 334.109 307.656 336.094 308.855 336.802L369.942 372.088C370.1 372.167 370.493 372.364 370.748 372.226C370.945 372.108 371.2 371.676 371.2 370.87V322.786C371.2 321.135 370.178 319.149 368.979 318.441L307.892 283.155C307.774 283.096 307.519 282.958 307.303 282.958Z" fill="white"/>
<path d="M326.859 340.439L326.426 340.183C324.834 339.259 323.537 336.802 323.537 334.679V311.777C323.537 309.654 324.834 308.671 326.426 309.595L326.859 309.851C328.451 310.775 329.748 313.232 329.748 315.355V338.257C329.728 340.38 328.451 341.363 326.859 340.439Z" fill="#B2D3EA"/>
<path d="M339.143 347.535L338.711 347.28C337.118 346.356 335.821 343.899 335.821 341.776V328.369C335.821 326.246 337.118 325.263 338.711 326.187L339.143 326.442C340.735 327.366 342.032 329.823 342.032 331.946V345.353C342.013 347.476 340.735 348.459 339.143 347.535Z" fill="#B2D3EA"/>
<path d="M351.427 354.632L350.995 354.376C349.403 353.452 348.105 350.995 348.105 348.872V316.947C348.105 314.824 349.403 313.841 350.995 314.765L351.427 315.021C353.019 315.945 354.316 318.402 354.316 320.525V352.45C354.297 354.573 353.019 355.556 351.427 354.632Z" fill="#396CAA"/>
<path d="M253.035 600.85C282.062 600.85 305.592 587.261 305.592 570.497C305.592 553.734 282.062 540.145 253.035 540.145C224.009 540.145 200.479 553.734 200.479 570.497C200.479 587.261 224.009 600.85 253.035 600.85Z" fill="#D4ECFF"/>
<path d="M220.841 554.397C217.186 555.97 214.866 560.039 215.181 564.423C215.318 566.487 215.574 568.414 216.006 569.338C217.166 571.775 220.999 575.137 227.092 572.739C233.185 570.321 246.727 557.602 247.238 549.286C248.162 533.815 230.472 550.289 220.841 554.397Z" fill="#173D7A"/>
<path d="M256.652 579.992C256.652 579.992 255.197 588.917 255.905 590.549C256.613 592.18 260.858 595.679 267.128 594.913C273.398 594.146 291.421 587.934 295.431 576.061C301.661 557.641 260.622 577.437 260.622 577.437L256.652 579.992Z" fill="#173D7A"/>
<path d="M274.263 437.432L275.659 576.651C275.521 581.486 272.337 585.575 268.072 586.303C267.541 586.401 266.971 586.46 266.381 586.519C262.057 586.892 259.542 585.045 258.107 583.098C256.947 581.526 256.338 579.521 256.24 577.476L254.471 518.05L245.606 464.914L233.342 558.958C233.145 561.494 231.927 563.853 229.961 565.151C228.605 566.055 226.777 566.743 224.359 566.664C220.841 566.566 218.404 564.679 216.91 563.008C215.731 561.671 215.102 559.843 215.141 557.975L220.016 501.399L221.824 429.234L274.263 437.432Z" fill="#FDD762"/>
<path d="M256.239 312.819L254.038 325.499C254.038 325.499 253.96 329.823 258.795 331.023C263.63 332.222 265.123 329.096 265.123 329.096L267.305 314.805L256.239 312.819Z" fill="#FFC2B0"/>
<path d="M282.872 305.86C279.432 316.731 268.819 323.041 259.168 319.955C249.498 316.869 244.447 305.565 247.886 294.694C251.326 283.824 261.939 277.513 271.59 280.6C281.24 283.686 286.292 295.009 282.872 305.86Z" fill="#FFC2B0"/>
<path d="M256.809 325.735C256.475 325.597 236.309 312.603 228.86 326.206C216.713 348.361 225.597 373.779 221.254 428.94C220.526 438.179 233.675 443.801 239.886 447.34C245.409 450.505 251.601 452.431 257.969 452.49C264.278 452.549 276.346 446.946 275.914 438.69C273.889 400.789 277.25 368.864 280.336 337.864C280.356 337.864 276.484 333.696 256.809 325.735Z" fill="#983BE9"/>
<path d="M245.606 464.894L233.341 558.938C233.145 561.474 231.926 563.833 229.961 565.131C229.646 565.347 229.292 565.544 228.919 565.721C231.474 563.814 238.904 484.867 240.279 476.099C241.655 467.312 245.606 464.894 245.606 464.894Z" fill="#D8892B"/>
<path d="M322.2 337.215L339.084 303.698L333.777 300.356L316.284 325.892L322.2 337.215Z" fill="#FFC2B0"/>
<path d="M210.837 301.634L219.053 264.264L225.598 264.323L223.141 295.323L210.837 301.634Z" fill="#FFC2B0"/>
<path d="M280.355 337.864C280.355 337.864 299.243 345.314 315.459 324.85C316.893 323.041 319.822 323.258 320.667 325.184C322.121 328.546 323.949 333.598 321.728 338.375C311.921 359.428 278.468 358.681 270.41 370.496C262.351 382.271 280.355 337.864 280.355 337.864Z" fill="#983BE9"/>
<path d="M244.014 321.076C244.014 321.076 228.428 322.275 226.187 308.77C225.027 301.811 224.693 297.663 224.615 295.284C224.575 293.672 223.16 292.434 221.549 292.63C217.814 293.102 212.036 294.203 211.249 296.719C210.07 300.454 207.869 318.776 223.278 346.906C233.381 365.326 244.014 321.076 244.014 321.076Z" fill="#983BE9"/>
<path d="M219.013 264.342L219.17 260.077C219.229 258.563 219.661 257.108 220.448 255.83L224.772 248.734L225.892 247.318C226.934 246.001 228.801 245.687 230.216 246.571L231.218 247.2C232.476 248.006 233.223 249.422 233.125 250.916L230.884 256.971L233.714 256.42C234.265 256.322 234.795 256.676 234.894 257.226C234.972 257.698 234.717 258.15 234.284 258.327L229.666 260.195L225.479 266.131L219.013 264.342Z" fill="#FFC2B0"/>
<path d="M339.202 303.914L341.187 300.14C341.875 298.803 342.229 297.309 342.189 295.815L341.934 287.519L341.659 285.73C341.403 284.079 339.949 282.88 338.278 282.959L337.099 283.018C335.605 283.077 334.268 283.961 333.62 285.318L332.558 291.687L330.377 289.819C329.944 289.446 329.315 289.505 328.962 289.937C328.667 290.311 328.647 290.822 328.942 291.195L332.028 295.088L332.834 303.206L339.202 303.914Z" fill="#FFC2B0"/>
<path d="M268.032 366.25C266.381 373.74 276.267 430.198 265.28 450.839C270.784 448.617 276.208 444.253 275.914 438.67C274.479 411.562 275.776 387.52 277.761 364.677C287.156 359.92 301.858 357.07 312.236 349.462C301.111 353.59 269.506 359.586 268.032 366.25Z" fill="#721BD5"/>
<path d="M249.557 322.157L252.348 319.287C252.348 319.287 256.947 323.985 260.662 324.811C260.662 324.811 265.123 326.069 267.285 326.187L269.093 331.16C269.093 331.141 254.431 330.079 249.557 322.157Z" fill="white"/>
<path d="M269.723 306.214C270.489 306.194 271.216 305.841 271.649 305.212C272.415 304.111 271.924 299 274.282 298.174C277.978 296.857 286.724 301.476 287.648 288.168C288.139 281.248 284.778 279.42 284.778 275.626C284.778 275.626 285.073 277.533 267.285 276.334C249.498 275.154 243.719 290.959 243.287 298.469C242.874 305.998 246.51 318.363 258.657 320.073C260.681 320.348 269.133 313.547 268.917 312.642C268.701 311.758 265.497 311.797 265.969 309.202C266.362 307.04 267.698 306.253 269.723 306.214Z" fill="#173D7A"/>
<path d="M360.979 145.509L307.223 114.469C304.826 113.093 302.899 109.397 302.899 106.213V66.2281C302.899 63.0435 304.845 61.5692 307.223 62.9649L360.979 94.005C363.377 95.3811 365.303 99.0768 365.303 102.261V142.246C365.303 145.431 363.358 146.885 360.979 145.509Z" fill="#EDEDED"/>
<path d="M355.654 82.0922L301.898 51.0521C300.836 50.4427 299.873 50.423 299.127 50.8358V50.7965L293.918 53.8042C293.918 53.8042 296.218 54.6495 297.574 55.1409V94.2999C297.574 97.4845 299.52 101.18 301.898 102.556L353.275 132.22V136.82L358.543 133.793L358.523 133.773C359.408 133.223 359.978 132.043 359.978 130.333V90.3486C359.978 87.164 358.052 83.4683 355.654 82.0922Z" fill="#721BD5"/>
<path d="M350.347 136.663L296.591 105.623C294.193 104.247 292.267 100.551 292.267 97.3665V57.382C292.267 54.1973 294.212 52.723 296.591 54.1187L350.347 85.1588C352.744 86.5349 354.671 90.2306 354.671 93.4152V133.4C354.671 136.584 352.744 138.039 350.347 136.663Z" fill="#983BE9"/>
<path d="M350.346 85.1589L296.59 54.1188C295.234 53.3324 294.035 53.4897 293.249 54.335C293.819 54.2957 294.468 54.4136 295.156 54.8265L348.911 85.8666C351.309 87.2426 353.236 90.9384 353.236 94.123V134.108C353.236 135.484 352.862 136.506 352.253 137.155C353.688 137.037 354.67 135.661 354.67 133.4V93.4153C354.67 90.2307 352.744 86.535 350.346 85.1589Z" fill="white"/>
<path d="M314.673 91.8426C314.673 94.1622 313.041 95.0862 311.037 93.946C309.032 92.7862 307.4 89.9751 307.4 87.6554C307.4 85.3358 309.032 84.4118 311.037 85.552C313.041 86.7315 314.673 89.5426 314.673 91.8426Z" fill="white"/>
<path d="M325.66 98.1921C325.66 100.512 324.029 101.436 322.024 100.296C320.019 99.1357 318.388 96.3246 318.388 94.005C318.388 91.6853 320.019 90.7614 322.024 91.9015C324.029 93.0614 325.66 95.8725 325.66 98.1921Z" fill="white"/>
<path d="M336.646 104.542C336.646 106.861 335.015 107.785 333.01 106.645C331.005 105.485 329.374 102.674 329.374 100.355C329.374 98.0349 331.005 97.111 333.01 98.2511C335.015 99.411 336.646 102.222 336.646 104.542Z" fill="white"/>
<path d="M467.941 356.539L414.185 325.499C411.787 324.123 409.861 320.427 409.861 317.242V227.267C409.861 224.083 411.807 222.608 414.185 224.004L467.941 255.044C470.339 256.42 472.265 260.116 472.265 263.301V353.276C472.265 356.441 470.339 357.915 467.941 356.539Z" fill="#EDEDED"/>
<path d="M462.616 243.112L408.86 212.071C407.798 211.462 406.835 211.442 406.088 211.855V211.816L400.88 214.824C400.88 214.824 403.179 215.669 404.536 216.16V305.31C404.536 308.494 406.481 312.19 408.86 313.566L460.237 343.23V347.83L465.505 344.803L465.485 344.783C466.37 344.233 466.94 343.053 466.94 341.343V251.368C466.94 248.203 465.013 244.507 462.616 243.112Z" fill="#5793CE"/>
<path d="M457.308 347.693L403.553 316.653C401.155 315.276 399.229 311.581 399.229 308.396V218.421C399.229 215.236 401.174 213.762 403.553 215.158L457.308 246.198C459.706 247.574 461.632 251.27 461.632 254.454V344.429C461.632 347.594 459.706 349.069 457.308 347.693Z" fill="#D4ECFF"/>
<path d="M457.308 246.178L403.552 215.138C402.196 214.352 400.997 214.509 400.211 215.354C400.781 215.315 401.43 215.433 402.117 215.846L455.873 246.886C458.271 248.262 460.197 251.958 460.197 255.142V345.117C460.197 346.494 459.824 347.516 459.215 348.164C460.649 348.047 461.632 346.67 461.632 344.41V254.435C461.632 251.27 459.706 247.554 457.308 246.178Z" fill="white"/>
<path d="M467.941 478.085L414.185 447.045C411.787 445.669 409.861 441.973 409.861 438.788V348.813C409.861 345.629 411.807 344.154 414.185 345.55L467.941 376.59C470.339 377.966 472.265 381.662 472.265 384.847V474.822C472.265 478.006 470.339 479.461 467.941 478.085Z" fill="#EDEDED"/>
<path d="M462.616 364.677L408.86 333.637C407.798 333.028 406.835 333.008 406.088 333.421V333.382L400.88 336.389C400.88 336.389 403.179 337.235 404.536 337.726V426.875C404.536 430.06 406.481 433.756 408.86 435.132L460.237 464.796V469.396L465.505 466.369L465.485 466.349C466.37 465.799 466.94 464.619 466.94 462.909V372.934C466.94 369.749 465.013 366.053 462.616 364.677Z" fill="#D3008D"/>
<path d="M457.308 469.239L403.553 438.199C401.155 436.823 399.229 433.127 399.229 429.942V339.967C399.229 336.782 401.174 335.308 403.553 336.704L457.308 367.744C459.706 369.12 461.632 372.816 461.632 376V465.975C461.632 469.16 459.706 470.615 457.308 469.239Z" fill="#FF2C9C"/>
<path d="M457.308 367.744L403.552 336.704C402.196 335.918 400.997 336.075 400.211 336.92C400.781 336.881 401.43 336.999 402.117 337.412L455.873 368.452C458.271 369.828 460.197 373.523 460.197 376.708V466.683C460.197 468.059 459.824 469.081 459.215 469.73C460.649 469.612 461.632 468.236 461.632 465.975V376C461.632 372.816 459.706 369.12 457.308 367.744Z" fill="white"/>
<path d="M107.217 517.165L154.467 490.548C156.57 489.369 160.206 489.545 162.604 490.98L192.656 508.751C195.054 510.167 195.29 512.27 193.187 513.45L145.937 540.067C143.834 541.246 140.198 541.069 137.8 539.654L107.748 521.883C105.369 520.468 105.134 518.345 107.217 517.165Z" fill="#D4ECFF"/>
<path d="M145.269 526.699L199.339 496.229C200.4 495.62 200.911 494.814 200.951 493.949L200.97 493.969L201.029 487.953C201.029 487.953 199.123 489.506 198.002 490.43L164.314 470.497C161.582 468.885 157.396 468.649 154.998 470.005L103.306 499.139L99.355 496.799L99.2764 502.874L99.296 502.854C99.3157 503.896 100.043 504.997 101.517 505.862L135.913 526.208C138.704 527.839 142.871 528.056 145.269 526.699Z" fill="#F9BF30"/>
<path d="M101.005 494.342L155.076 463.872C157.474 462.516 161.64 462.732 164.392 464.363L198.788 484.71C201.52 486.322 201.795 488.74 199.397 490.096L145.327 520.566C142.929 521.922 138.762 521.706 136.011 520.075L101.615 499.728C98.8827 498.116 98.6075 495.698 101.005 494.342Z" fill="#FDD762"/>
<path d="M145.347 520.566L199.418 490.096C200.794 489.329 201.246 488.209 200.931 487.108C200.676 487.639 200.243 488.11 199.536 488.504L145.465 518.974C143.068 520.33 138.901 520.114 136.149 518.482L101.753 498.136C100.574 497.428 99.8663 496.583 99.6304 495.738C99.0014 497.035 99.6894 498.569 101.635 499.728L136.031 520.075C138.763 521.706 142.93 521.922 145.347 520.566Z" fill="white"/>
<path d="M157.73 486.44C155.744 485.26 155.764 483.393 157.769 482.252C159.793 481.112 163.036 481.152 165.022 482.331C167.007 483.51 166.987 485.378 164.982 486.518C162.977 487.658 159.734 487.619 157.73 486.44Z" fill="white"/>
<path d="M146.684 492.671C144.699 491.492 144.718 489.624 146.723 488.484C148.747 487.344 151.99 487.383 153.976 488.563C155.961 489.742 155.941 491.61 153.936 492.75C151.932 493.89 148.669 493.851 146.684 492.671Z" fill="white"/>
<path d="M135.638 498.903C133.653 497.723 133.672 495.856 135.677 494.716C137.702 493.575 140.945 493.615 142.93 494.794C144.915 495.974 144.895 497.841 142.89 498.981C140.886 500.122 137.623 500.082 135.638 498.903Z" fill="white"/>
<path d="M62.0901 474.802C82.9644 474.802 99.8863 465.032 99.8863 452.981C99.8863 440.93 82.9644 431.161 62.0901 431.161C41.2159 431.161 24.2939 440.93 24.2939 452.981C24.2939 465.032 41.2159 474.802 62.0901 474.802Z" fill="#D4ECFF"/>
<path d="M40.7246 189.091C40.7246 189.091 41.6877 209.123 43.2208 222.608C44.7538 236.074 77.1843 212.268 77.1843 212.268V196.935L40.7246 189.091Z" fill="#6614CF"/>
<path d="M58.0014 438.434C58.4928 439.653 66.8854 449.875 75.2977 452.451C78.9534 453.571 81.4103 453.709 83.022 453.512C84.6337 453.316 85.6361 451.664 85.0857 450.131C83.6313 446.062 79.5038 437.589 68.9688 432.36C54.6994 425.283 58.0014 438.434 58.0014 438.434Z" fill="#173D7A"/>
<path d="M55.1915 442.366C55.1915 442.366 58.356 449.797 59.3387 456.009C59.9283 459.803 57.8449 464.717 56.135 467.981C55.0736 470.005 52.3809 470.458 50.6906 468.924C47.9389 466.428 44.4404 462.103 43.8704 455.891C42.8876 445.413 43.8704 443.585 43.8704 443.585L55.1915 442.366Z" fill="#173D7A"/>
<path d="M34.9472 315.768C34.9472 315.768 33.8465 328.978 34.9472 343.604C36.0479 358.229 39.9592 426.581 40.706 443.015C40.706 443.015 40.3326 447.988 49.9831 446.887C59.614 445.787 58.8474 440.263 58.8474 440.263C58.8474 440.263 72.3896 440.086 72.8023 432.105C73.2347 424.123 86.659 336.841 86.659 305.448L34.9472 315.768Z" fill="#FDD762"/>
<path d="M91.6504 247.436L98.2741 257.698L121.074 285.239C121.074 285.239 120.287 287.795 117.457 288.463C115.236 288.994 96.0727 270.692 87.7981 262.671C85.5967 260.548 85.2233 257.148 86.9333 254.592L91.6504 247.436Z" fill="#FFC2B0"/>
<path d="M78.7178 205.27C78.7178 205.27 89.2527 204.995 92.9085 220.23C96.584 235.445 99.4339 254.513 96.2499 256.106C86.678 260.863 80.6243 255.3 80.6243 255.3L78.7178 205.27Z" fill="#8A2AE3"/>
<path d="M81.8819 205.919C80.0933 205.172 78.0689 205.073 76.2017 205.604C67.2194 208.179 33.4918 218.087 27.9295 222.844C21.5024 228.329 37.5603 259.192 37.3245 269.316C37.0886 279.44 35.9487 291.372 35.0642 302.361C34.1797 313.37 32.9611 319.385 41.963 324.064C50.9649 328.742 66.3153 328.959 77.8134 320.191C89.3114 311.424 87.228 305.428 86.7367 299.078C86.2649 292.709 82.334 265.207 82.6878 257.403C82.6878 257.403 86.7367 254.415 89.7438 249.304C92.751 244.193 87.4442 234.777 85.2429 228.663C83.0416 222.549 86.4811 215.551 85.7932 210.558C85.4394 207.983 83.7884 206.725 81.8819 205.919Z" fill="#983BE9"/>
<path d="M71.0921 216.455C71.7997 222.019 66.7091 227.248 59.712 228.152C52.7149 229.056 46.4647 225.262 45.7571 219.719C45.0495 214.175 50.1401 208.926 57.1372 208.022C64.1147 207.118 70.3845 210.892 71.0921 216.455Z" fill="white"/>
<path d="M67.4753 216.907C67.9863 220.878 64.3305 224.613 59.3382 225.262C54.3262 225.911 49.8646 223.198 49.3536 219.227C48.8425 215.256 52.4787 211.521 57.4906 210.872C62.5026 210.224 66.9643 212.936 67.4753 216.907Z" fill="#FFC2B0"/>
<path d="M62.5029 203.874C62.5029 203.874 56.4099 198.861 55.211 201.397C54.012 203.933 53.0293 214.824 53.0293 214.824L65.117 218.067L63.2891 207.039C63.2891 207.039 65.7066 204.995 62.5029 203.874Z" fill="#FFC2B0"/>
<path d="M81.3964 191.822C81.9192 181.858 74.2673 173.357 64.3054 172.834C54.3436 172.312 45.8442 179.965 45.3215 189.928C44.7988 199.892 52.4506 208.393 62.4125 208.915C72.3743 209.438 80.8737 201.785 81.3964 191.822Z" fill="#FFC2B0"/>
<path d="M54.3653 204.542C54.267 205.113 54.1491 205.722 54.0508 206.351C55.2694 212.642 64.6644 215.394 64.6644 215.394L63.2689 207.039C63.2689 207.039 64.4089 206.076 64.0944 205.113C60.3993 203.933 55.7018 202.891 54.3653 204.542Z" fill="#EA9C92"/>
<path d="M81.3964 191.822C81.9192 181.858 74.2673 173.357 64.3054 172.834C54.3436 172.312 45.8442 179.965 45.3215 189.928C44.7988 199.892 52.4506 208.393 62.4125 208.915C72.3743 209.438 80.8737 201.785 81.3964 191.822Z" fill="#FFC2B0"/>
<path d="M18.8887 267.33L20.8935 315.65L27.9692 316.397L32.5684 272.874L18.8887 267.33Z" fill="#FFC2B0"/>
<path d="M42.101 263.281C41.7276 261.59 38.6221 260.214 38.1504 258.012C35.7329 246.748 35.1432 230.157 35.1432 230.157L33.1777 252.842C35.4577 259.565 37.4035 265.738 37.3249 269.316C37.1873 275.253 36.7353 281.818 36.2046 288.443V288.463C36.2046 288.483 44.4399 273.601 42.101 263.281Z" fill="#8A2AE3"/>
<path d="M29.2665 221.861C29.2665 221.861 23.6255 224.024 20.4218 241.382C17.2181 258.74 14.8398 276.118 20.5397 278.359C26.2396 280.6 30.9961 282.29 32.6864 277.651C34.3571 273.012 35.3988 250.641 35.615 242.601C35.8115 234.541 36.1063 223.454 29.2665 221.861Z" fill="#B45EF4"/>
<path d="M119.383 283.234C119.383 283.234 122.45 284.354 124.651 286.772C126.459 288.758 127.462 290.429 128.248 291.608C130.017 294.242 131.491 299.904 130.41 300.612C129.329 301.319 123.196 291.117 122.214 293.476C121.231 295.854 122.214 298.036 120.956 298.076C119.678 298.115 115.276 287.814 111.816 284.629C108.357 281.445 119.383 283.234 119.383 283.234Z" fill="#FFC2B0"/>
<path d="M58.8271 440.263C58.8271 440.263 60.4978 440.243 62.6991 439.87L65.3525 333.618L58.8271 440.263Z" fill="#D8892B"/>
<path d="M48.6064 382.861L44.8523 377.947L5.30686 355.064C4.04895 354.337 3.00725 352.371 3.00725 350.681L3.04656 318.304L0.766602 315.335L2.90897 314.097C3.32173 313.841 3.85241 313.841 4.4617 314.195L49.255 340.144C50.5129 340.871 51.5546 342.837 51.5546 344.528L51.5153 379.775C51.5153 380.718 51.1812 381.387 50.6701 381.662L48.6064 382.861Z" fill="#983BE9"/>
<path d="M21.2664 364.304L18.4558 362.672L3.04643 335.898L3.06609 318.304L0.786133 315.335L2.92851 314.097C3.34126 313.841 3.87194 313.841 4.48124 314.195L49.2745 340.144C49.9428 340.537 50.5521 341.264 50.9648 342.11L21.2664 364.304Z" fill="#D29FFF"/>
<path d="M1.78853 316.653L0.786133 315.335L2.92851 314.097C3.34126 313.841 3.87194 313.841 4.48124 314.195L5.26743 314.647L1.78853 316.653Z" fill="#D29FFF"/>
<path d="M49.6872 340.419C50.6896 341.225 51.4562 342.778 51.5544 344.194L47.1714 346.729L45.0684 343.093L49.6872 340.419Z" fill="#983BE9"/>
<path d="M47.1322 341.363L2.33892 315.414C1.08101 314.687 0.0393096 315.453 0.0393096 317.144L0 352.411C0 354.101 1.02205 356.067 2.29961 356.794L47.0929 382.743C48.3508 383.47 49.3925 382.704 49.3925 381.013L49.4318 345.766C49.4318 344.076 48.4098 342.11 47.1322 341.363Z" fill="#B45EF4"/>
<path d="M37.9342 366.663L35.8115 365.424V347.083L37.9342 348.322V366.663Z" fill="white"/>
<path d="M32.9411 363.773L30.8184 362.554V344.213L32.9411 345.452V363.773Z" fill="white"/>
<path d="M27.9685 360.903L25.8262 359.664V341.323L27.9685 342.562V360.903Z" fill="white"/>
<path d="M20.9517 315.257C20.9517 315.257 19.0845 326.541 19.3597 330.158C19.6349 333.775 21.5807 339.731 23.0352 339.613C24.5093 339.495 23.0745 325.086 25.6689 326.521C28.2437 327.956 28.5188 330.413 29.6785 329.548C30.8381 328.683 27.6344 316.358 28.4992 311.03C29.364 305.664 20.9517 315.257 20.9517 315.257Z" fill="#FFC2B0"/>
<path d="M70.3055 192.453C79.3664 195.677 81.1353 193.711 81.214 193.593C81.2926 193.042 81.3712 192.492 81.3908 191.922C81.5088 189.917 81.2926 187.99 80.7815 186.142L57.2744 182.978C57.2941 182.997 61.0088 189.15 70.3055 192.453Z" fill="#EA9C92"/>
<path d="M82.0585 173.935C79.9162 172.107 72.2115 163.064 58.4138 165.187C49.7853 166.524 42.5131 172.401 40.9014 185.828C39.8204 194.871 43.142 203.776 49.2547 210.361C49.5888 210.204 49.9229 210.066 50.2374 209.87C53.6967 207.589 54.0701 206.351 54.0701 206.331L54.8366 199.49C54.817 198.527 54.0898 197.662 53.107 197.584C52.3601 197.544 51.4364 197.171 50.5715 196.05C48.5864 193.455 49.5102 189.406 53.4608 189.268C55.5246 189.19 56.3304 188.069 56.6252 187.007C56.8807 186.084 57.8438 185.592 58.7479 185.907C63.2489 187.538 74.3735 191.057 81.5279 189.032C90.687 186.457 84.1813 175.763 82.0585 173.935Z" fill="#6614CF"/>
<path d="M71.7596 200.611L77.2826 199.097C77.2826 199.097 74.6488 203.245 70.7965 204.307C66.9441 205.368 66.3545 202.105 66.3545 202.105L71.7596 200.611Z" fill="white"/>
<path d="M30.3469 329.175L25.6494 326.482L27.4183 329.371L29.7966 330.256L30.3469 329.175Z" fill="#D29FFF"/>
<path d="M134.243 336.881L188.195 306.175C189.257 305.565 189.768 304.74 189.787 303.894L189.807 303.914L189.846 297.899C189.846 297.899 187.959 299.471 186.839 300.376L153.052 280.6C150.301 278.988 146.134 278.791 143.736 280.148L92.1815 309.497L88.2112 307.177L88.1719 313.252L88.1915 313.232C88.2112 314.274 88.9581 315.375 90.4322 316.24L124.926 336.448C127.678 338.041 131.845 338.257 134.243 336.881Z" fill="#D3008D"/>
<path d="M89.8416 304.72L143.794 274.014C146.192 272.658 150.359 272.854 153.11 274.466L187.605 294.675C190.356 296.287 190.631 298.705 188.234 300.061L134.281 330.767C131.883 332.123 127.716 331.927 124.965 330.315L90.4706 310.106C87.7385 308.494 87.4437 306.096 89.8416 304.72Z" fill="#FF2C9C"/>
<path d="M134.282 330.747L188.235 300.042C189.591 299.275 190.062 298.154 189.728 297.034C189.473 297.565 189.04 298.036 188.352 298.43L134.4 329.135C132.002 330.492 127.835 330.295 125.084 328.683L90.5895 308.475C89.4103 307.787 88.7027 306.942 88.4472 306.096C87.8379 307.394 88.5061 308.927 90.4716 310.087L124.966 330.295C127.717 331.927 131.884 332.124 134.282 330.747Z" fill="white"/>
<path d="M146.547 296.582C144.542 295.422 144.561 293.535 146.566 292.395C148.571 291.254 151.834 291.274 153.819 292.434C155.824 293.594 155.804 295.481 153.799 296.621C151.775 297.761 148.532 297.742 146.547 296.582Z" fill="white"/>
<path d="M135.52 302.853C133.515 301.693 133.535 299.806 135.54 298.665C137.545 297.525 140.807 297.545 142.792 298.705C144.797 299.865 144.778 301.752 142.773 302.892C140.748 304.052 137.505 304.032 135.52 302.853Z" fill="white"/>
<path d="M124.494 309.124C122.489 307.964 122.509 306.077 124.513 304.936C126.518 303.796 129.781 303.816 131.766 304.976C133.771 306.136 133.751 308.023 131.746 309.163C129.722 310.323 126.479 310.303 124.494 309.124Z" fill="white"/>
<path d="M438.282 379.932C438.282 384.925 434.764 386.97 430.44 384.453C426.116 381.957 422.598 375.863 422.598 370.87C422.598 365.876 426.116 363.832 430.44 366.348C434.764 368.845 438.282 374.919 438.282 379.932Z" fill="#D3008D"/>
<path d="M441.545 394.066C441.525 393.987 441.525 393.909 441.505 393.83C441.171 391.727 439.186 389.879 437.869 390.351C435.845 391.078 433.25 390.724 430.44 389.093C427.629 387.461 425.035 384.827 423.01 381.76C421.693 379.775 419.708 379.323 419.374 381.033C419.355 381.092 419.355 381.151 419.335 381.229L415.62 404.858L445.279 421.981L441.545 394.066Z" fill="#D3008D"/>
<path d="M438.282 379.932C438.282 384.925 434.764 386.97 430.44 384.453C426.116 381.957 422.598 375.863 422.598 370.87C422.598 365.876 426.116 363.832 430.44 366.348C434.764 368.845 438.282 374.919 438.282 379.932Z" fill="white"/>
<path d="M441.545 394.066C441.525 393.987 441.525 393.909 441.505 393.83C441.171 391.727 439.186 389.879 437.869 390.351C435.845 391.078 433.25 390.724 430.44 389.093C427.629 387.461 425.035 384.827 423.01 381.76C421.693 379.775 419.708 379.323 419.374 381.033C419.355 381.092 419.355 381.151 419.335 381.229L415.62 404.858L445.279 421.981L441.545 394.066Z" fill="white"/>
<path d="M447.363 439.968L411.355 419.17V416.575L447.363 437.373V439.968Z" fill="white"/>
<path d="M436.494 445.02L411.355 430.512V427.917L436.494 442.425V445.02Z" fill="white"/>
<path d="M433.113 437.393L411.355 424.831V422.236L433.113 434.798V437.393Z" fill="white"/>
<path d="M447.363 445.629L436.494 439.358V436.764L447.363 443.034V445.629Z" fill="white"/>
<path d="M447.441 266.505L411.434 245.706V243.112L447.441 263.91V266.505Z" fill="#5793CE"/>
<path d="M436.572 271.557L411.434 257.049V254.454L436.572 268.962V271.557Z" fill="#5793CE"/>
<path d="M433.191 263.929L411.434 251.368V248.773L433.191 261.335V263.929Z" fill="#5793CE"/>
<path d="M447.441 272.166L436.572 265.895V263.3L447.441 269.571V272.166Z" fill="#5793CE"/>
<path d="M447.441 288.404L411.434 267.606V265.011L447.441 285.809V288.404Z" fill="#5793CE"/>
<path d="M436.572 293.476L411.434 278.948V276.354L436.572 290.881V293.476Z" fill="#5793CE"/>
<path d="M433.191 285.848L411.434 273.287V270.692L433.191 283.234V285.848Z" fill="#5793CE"/>
<path d="M447.441 294.085L436.572 287.795V285.2L447.441 291.471V294.085Z" fill="#5793CE"/>
<path d="M447.441 310.303L411.434 289.524V286.93L447.441 307.708V310.303Z" fill="#5793CE"/>
<path d="M436.572 315.375L411.434 300.867V298.253L436.572 312.78V315.375Z" fill="#5793CE"/>
<path d="M433.191 307.747L411.434 295.186V292.591L433.191 305.153V307.747Z" fill="#5793CE"/>
<path d="M447.441 315.984L436.572 309.694V307.099L447.441 313.389V315.984Z" fill="#5793CE"/>
<path d="M333.974 371.754L308.285 356.912V354.514L333.974 369.356V371.754Z" fill="white"/>
<path d="M349.895 380.954L338.928 374.604V372.206L349.895 378.556V380.954Z" fill="white"/>
<path d="M334.859 377.494L323.892 371.145V368.746L334.859 375.096V377.494Z" fill="white"/>
<path d="M358.622 391.196L338.928 379.834V377.435L358.622 388.798V391.196Z" fill="white"/>
<path d="M372.085 404.21L342.977 387.382V384.984L372.085 401.811V404.21Z" fill="white"/>
<path d="M365.58 390.016L354.612 383.667V381.269L365.58 387.618V390.016Z" fill="white"/>
<path d="M319.253 368.471L308.285 362.141V359.743L319.253 366.073V368.471Z" fill="white"/>
<path d="M338.259 384.669L308.227 367.331V364.933L338.259 382.271V384.669Z" fill="white"/>
<path d="M326.702 383.215L308.58 372.757V370.358L326.702 380.816V383.215Z" fill="white"/>
<path d="M593.261 509.675C592.592 509.675 591.944 509.321 591.57 508.712C591.02 507.768 591.334 506.569 592.258 506.019L668.381 461.022C668.991 460.668 669.069 460.058 669.069 459.822C669.069 459.586 669.01 458.997 668.401 458.623L647.626 446.16C646.702 445.61 646.388 444.391 646.958 443.467C647.508 442.543 648.727 442.228 649.65 442.798L670.425 455.262C672.057 456.245 673.02 457.955 673 459.842C673 461.729 672.017 463.439 670.386 464.403L594.263 509.4C593.949 509.577 593.595 509.675 593.261 509.675Z" fill="#FDD762"/>
<path d="M608.139 544.136L581.723 528.881L555.287 544.136L581.723 559.391L608.139 544.136Z" fill="#D4ECFF"/>
<path d="M581.723 545.237V528.056L613.288 509.813V527.014L581.723 545.237Z" fill="#D3008D"/>
<path d="M581.723 528.056L550.157 509.813V527.014L581.723 545.237V528.056Z" fill="#D3008D"/>
<path d="M613.288 509.813L581.723 491.59L550.157 509.813L581.723 528.056L613.288 509.813Z" fill="#FF2C9C"/>
<path d="M326.937 143.543L332.264 161L345.884 170.377L335.546 174.584L338.652 191.902L326.937 176.825L315.243 178.378L318.348 164.637L308.01 148.497L321.631 154.847L326.937 143.543Z" fill="#EDEDED"/>
<path d="M370.355 168.391L375.682 185.848L389.283 195.225L378.964 199.431L382.05 216.75L370.355 201.692L358.641 203.225L361.747 189.484L351.408 173.345L365.029 179.695L370.355 168.391Z" fill="#EDEDED"/>
<path d="M302.487 145.509L288.867 136.152L283.54 118.696L282.734 120.406V152.095L283.54 151.977L295.254 167.054L292.149 149.736L302.487 145.509Z" fill="#EDEDED"/>
<path d="M187.586 57.5196L192.912 74.976L206.533 84.3529L196.195 88.5597L199.3 105.878L187.586 90.8204L175.891 92.3734L178.977 78.6127L168.658 62.4734L182.279 68.823L187.586 57.5196Z" fill="#E8A200"/>
<path d="M162.31 66.1299L168.658 62.4734L178.466 67.0538C178.466 67.0538 178.426 73.6589 178.466 73.8162C178.505 73.9734 174.417 74.17 174.142 74.17C173.867 74.17 162.31 66.1299 162.31 66.1299Z" fill="#F9BF30"/>
<path d="M199.3 105.878L192.951 109.535L189.846 92.2161C189.846 92.2161 192.932 88.9725 192.912 88.9725C192.892 88.9725 196.371 89.5623 196.371 89.5623L199.3 105.878Z" fill="#E8A200"/>
<path d="M181.237 61.176L186.564 78.6323L200.184 87.9896L189.846 92.2161L192.951 109.535L181.237 94.4571L169.543 96.0101L172.628 82.2691L162.31 66.1298L175.911 72.4794L181.237 61.176Z" fill="#FDD762"/>
<path d="M192.952 109.535L189.846 92.2161L200.184 88.0093L186.564 78.6323L181.237 61.176L175.911 72.4794L162.29 66.1298L163.233 67.6042L176.363 73.7178L181.041 63.7708L185.738 79.2024L198.199 87.7734L188.785 91.6067L191.694 107.923L192.952 109.535Z" fill="white"/>
<path d="M181.237 61.176L187.586 57.5196L192.912 74.976L186.564 78.6324L181.237 61.176Z" fill="#E8A200"/>
<path d="M206.533 84.3529L200.184 87.9897L186.563 78.6324L192.912 74.976L206.533 84.3529Z" fill="#F9BF30"/>
<path d="M186.878 79.0649L185.915 78.4948L192.775 74.5042L192.912 74.976L193.364 75.2905L186.878 79.0649Z" fill="white"/>
<path d="M231.003 82.3674L236.329 99.8238L249.93 109.201L239.612 113.408L242.697 130.726L231.003 115.668L219.289 117.221L222.394 103.461L212.056 87.3213L225.676 93.6905L231.003 82.3674Z" fill="#E8A200"/>
<path d="M205.707 90.9777L212.056 87.3213L221.863 91.9016C221.863 91.9016 221.824 98.5067 221.863 98.664C221.903 98.8213 217.814 99.0179 217.539 99.0179C217.284 99.0179 205.707 90.9777 205.707 90.9777Z" fill="#F9BF30"/>
<path d="M242.697 130.726L236.349 134.383L233.243 117.064C233.243 117.064 236.329 113.82 236.309 113.82C236.29 113.82 239.769 114.41 239.769 114.41L242.697 130.726Z" fill="#E8A200"/>
<path d="M224.654 86.0238L229.961 103.48L243.582 112.857L233.263 117.064L236.349 134.383L224.654 119.305L212.94 120.858L216.045 107.117L205.707 90.9776L219.328 97.3272L224.654 86.0238Z" fill="#FDD762"/>
<path d="M236.349 134.383L233.244 117.064L243.582 112.857L229.961 103.48L224.635 86.0238L219.308 97.3272L205.688 90.9776L206.631 92.452L219.76 98.5657L224.438 88.6187L229.136 104.05L241.597 112.621L232.182 116.455L235.091 132.771L236.349 134.383Z" fill="white"/>
<path d="M224.654 86.0238L231.003 82.3674L236.329 99.8238L229.961 103.48L224.654 86.0238Z" fill="#E8A200"/>
<path d="M249.93 109.201L243.582 112.857L229.961 103.48L236.329 99.8238L249.93 109.201Z" fill="#F9BF30"/>
<path d="M230.276 103.913L229.312 103.362L236.172 99.3521L236.329 99.8238L236.781 100.138L230.276 103.913Z" fill="white"/>
<path d="M274.401 107.215L279.728 124.672L293.348 134.049L283.01 138.255L286.115 155.574L274.401 140.516L262.707 142.069L265.792 128.328L255.474 112.169L269.094 118.538L274.401 107.215Z" fill="#E8A200"/>
<path d="M249.105 115.826L255.454 112.169L265.262 116.749C265.262 116.749 265.222 123.355 265.262 123.512C265.301 123.669 261.213 123.866 260.938 123.866C260.682 123.866 249.105 115.826 249.105 115.826Z" fill="#F9BF30"/>
<path d="M286.115 155.574L279.747 159.231L276.642 141.912C276.642 141.912 279.727 138.668 279.708 138.668C279.688 138.668 283.167 139.258 283.167 139.258L286.115 155.574Z" fill="#E8A200"/>
<path d="M268.053 110.872L273.379 128.328L286.98 137.705L276.662 141.912L279.747 159.231L268.053 144.153L256.338 145.706L259.444 131.965L249.105 115.825L262.726 122.175L268.053 110.872Z" fill="#FDD762"/>
<path d="M279.747 159.231L276.642 141.912L286.98 137.705L273.36 128.328L268.033 110.872L262.707 122.175L249.086 115.825L250.029 117.3L263.159 123.413L267.837 113.467L272.534 128.898L284.995 137.469L275.581 141.302L278.49 157.619L279.747 159.231Z" fill="white"/>
<path d="M268.053 110.872L274.401 107.215L279.728 124.672L273.379 128.328L268.053 110.872Z" fill="#E8A200"/>
<path d="M293.349 134.049L286.981 137.705L273.38 128.328L279.728 124.672L293.349 134.049Z" fill="#F9BF30"/>
<path d="M273.694 128.761L272.73 128.21L279.59 124.2L279.728 124.672L280.18 124.986L273.694 128.761Z" fill="white"/>
<path d="M317.818 132.063L323.125 149.519L336.746 158.896L326.427 163.103L329.513 180.442L317.818 165.364L306.104 166.917L309.21 153.176L298.871 137.037L312.492 143.386L317.818 132.063Z" fill="#E8A200"/>
<path d="M292.522 140.673L298.871 137.017L308.679 141.597C308.679 141.597 308.639 148.202 308.679 148.36C308.718 148.517 304.63 148.713 304.355 148.713C304.099 148.713 292.522 140.673 292.522 140.673Z" fill="#F9BF30"/>
<path d="M329.513 180.442L323.164 184.098L320.059 166.779C320.059 166.779 323.144 163.536 323.125 163.536C323.105 163.536 326.584 164.125 326.584 164.125L329.513 180.442Z" fill="#E8A200"/>
<path d="M311.45 135.719L316.776 153.176L330.397 162.553L320.059 166.76L323.164 184.078L311.45 169.02L299.755 170.573L302.841 156.813L292.522 140.673L306.143 147.023L311.45 135.719Z" fill="#FDD762"/>
<path d="M323.164 184.078L320.059 166.76L330.397 162.553L316.777 153.176L311.45 135.719L306.124 147.023L292.503 140.673L293.446 142.148L306.576 148.261L311.254 138.314L315.951 153.746L328.412 162.317L318.998 166.15L321.907 182.466L323.164 184.078Z" fill="white"/>
<path d="M311.45 135.719L317.818 132.063L323.125 149.519L316.777 153.176L311.45 135.719Z" fill="#E8A200"/>
<path d="M336.746 158.896L330.397 162.553L316.776 153.176L323.125 149.519L336.746 158.896Z" fill="#F9BF30"/>
<path d="M317.091 153.608L316.128 153.058L322.987 149.067L323.125 149.52L323.577 149.834L317.091 153.608Z" fill="white"/>
<path d="M361.217 156.931L366.543 174.367L380.164 183.744L369.825 187.971L372.931 205.289L361.217 190.212L349.522 191.765L352.608 178.024L342.289 161.884L355.89 168.234L361.217 156.931Z" fill="#E8A200"/>
<path d="M335.921 165.521L342.269 161.865L352.077 166.445C352.077 166.445 352.038 173.05 352.077 173.207C352.116 173.365 348.028 173.561 347.753 173.561C347.478 173.561 335.921 165.521 335.921 165.521Z" fill="#F9BF30"/>
<path d="M372.931 205.289L366.583 208.946L363.478 191.627C363.478 191.627 366.563 188.383 366.544 188.383C366.524 188.383 370.003 188.973 370.003 188.973L372.931 205.289Z" fill="#E8A200"/>
<path d="M354.868 160.567L360.175 178.024L373.796 187.401L363.477 191.607L366.563 208.926L354.868 193.868L343.154 195.421L346.259 181.66L335.921 165.521L349.542 171.871L354.868 160.567Z" fill="#FDD762"/>
<path d="M366.563 208.926L363.457 191.607L373.796 187.401L360.175 178.024L354.849 160.567L349.522 171.871L335.901 165.521L336.845 166.995L349.974 173.109L354.652 163.162L359.35 178.594L371.811 187.165L362.396 190.998L365.305 207.314L366.563 208.926Z" fill="white"/>
<path d="M354.868 160.567L361.217 156.931L366.543 174.367L360.175 178.024L354.868 160.567Z" fill="#E8A200"/>
<path d="M380.164 183.744L373.796 187.401L360.175 178.024L366.543 174.367L380.164 183.744Z" fill="#F9BF30"/>
<path d="M360.509 178.456L359.526 177.906L366.406 173.915L366.543 174.367L366.995 174.682L360.509 178.456Z" fill="white"/>
</g>
<defs>
<radialGradient id="paint0_radial" cx="0" cy="0" r="1" gradientUnits="userSpaceOnUse" gradientTransform="translate(455.568 244.874) scale(91.9797 91.9953)">
<stop stop-color="#01C8EF"/>
<stop offset="0.0894" stop-color="#03BEE9"/>
<stop offset="0.2388" stop-color="#08A5D7"/>
<stop offset="0.4288" stop-color="#107BBB"/>
<stop offset="0.4457" stop-color="#1177B8"/>
<stop offset="1" stop-color="#112564"/>
</radialGradient>
<clipPath id="clip0">
<rect width="673" height="606" fill="white"/>
</clipPath>
</defs>
</svg>
