<svg width="106" height="106" viewBox="0 0 106 106" fill="none" xmlns="http://www.w3.org/2000/svg">
<path d="M7.31034 0H58.4828C62.5194 0 65.7931 3.27366 65.7931 7.31034V98.6897C65.7931 102.726 62.5194 106 58.4828 106H7.31034C3.27366 106 0 102.726 0 98.6897V7.31034C0 3.27366 3.27366 0 7.31034 0Z" fill="white"/>
<path d="M102.345 14.6207H62.1378C60.1206 14.6276 58.4895 16.2587 58.4827 18.2759V40.2069C58.4895 42.2241 60.1206 43.8553 62.1378 43.8621H73.1034V54.8276L84.0689 43.8621H102.345C104.362 43.8553 105.993 42.2241 106 40.2069V18.2759C105.993 16.2587 104.362 14.6276 102.345 14.6207Z" fill="#FDD762"/>
<path d="M51.1725 47.5172V71.2758C51.1725 72.2856 50.3546 73.1034 49.3449 73.1034H16.4483C15.4386 73.1034 14.6207 72.2856 14.6207 71.2758V47.5172H51.1725Z" fill="#FDD762"/>
<path d="M38.3794 40.2069H51.1725V47.5173H38.3794V40.2069Z" fill="#FDD762"/>
<path d="M45.6897 32.8966L51.1725 40.2069H38.3794H27.4138H14.6207L20.1035 32.8966H45.6897Z" fill="#FDD762"/>
<path d="M47.5173 0V5.48276C47.5173 6.4925 46.6994 7.31034 45.6897 7.31034H20.1035C19.0937 7.31034 18.2759 6.4925 18.2759 5.48276V0H47.5173Z" fill="#FDD762"/>
<path d="M38.3793 47.5173V54.8276L32.8966 51.1724L27.4138 54.8276V47.5173V40.2069H38.3793V47.5173Z" fill="#FDD762"/>
<path d="M14.6207 40.2069H27.4138V47.5173H14.6207V40.2069Z" fill="#FDD762"/>
<path d="M47.1517 31.8C46.8068 31.3408 46.2653 31.069 45.6896 31.069H20.1034C19.5277 31.069 18.9863 31.3408 18.6414 31.8L13.1586 39.1103C12.921 39.4256 12.7931 39.8117 12.7931 40.2069V71.2759C12.7931 73.2953 14.4288 74.931 16.4483 74.931H49.3448C51.3643 74.931 53 73.2953 53 71.2759V40.2069C53 39.8117 52.8721 39.4256 52.6345 39.1103L47.1517 31.8ZM21.0172 34.7241H44.7758L47.5172 38.3793H18.2758L21.0172 34.7241ZM25.5862 45.6897H16.4483V42.0345H25.5862V45.6897ZM29.2414 42.0345H36.5517V51.4123L33.9108 49.6532C33.2963 49.2443 32.4968 49.2443 31.8822 49.6532L29.2414 51.4123V42.0345ZM40.2069 42.0345H49.3448V45.6897H40.2069V42.0345ZM16.4483 71.2759V49.3448H25.5862V54.8276C25.5862 55.8373 26.404 56.6552 27.4138 56.6552C27.7747 56.6552 28.1288 56.5478 28.4281 56.3468L32.8965 53.3655L37.365 56.3445C38.2057 56.9042 39.3388 56.678 39.8985 55.8396C40.0972 55.5403 40.2046 55.1885 40.2069 54.8276V49.3448H49.3448V71.2759H16.4483Z" fill="#B48728"/>
<path d="M23.7587 84.069H27.4138V87.7241H23.7587V84.069Z" fill="#FDD762"/>
<path d="M31.069 84.069H34.7241V87.7241H31.069V84.069Z" fill="#FDD762"/>
<path d="M38.3794 84.069H42.0346V87.7241H38.3794V84.069Z" fill="#FDD762"/>
</svg>
