<svg width="106" height="91" viewBox="0 0 106 91" fill="none" xmlns="http://www.w3.org/2000/svg">
<g clip-path="url(#clip0)">
<path d="M99.4237 50.0946C99.3588 50.02 99.2939 49.9454 99.2073 49.8894L95.4865 46.7923C98.5584 46.1953 101.89 43.9564 101.89 41.6802C101.89 39.0122 97.6065 38.0794 93.9506 38.0794C90.1216 38.0794 89.689 40.3369 89.6457 41.9414L80.0624 33.9748C78.1155 32.3143 74.4163 31.0083 71.669 31.0083H53H34.331C31.5837 31.0083 27.8845 32.3143 25.9375 33.9748L16.3543 41.9414C16.311 40.3556 15.8567 38.0794 12.0494 38.0794C8.39347 38.0794 4.1102 39.0309 4.1102 41.6802C4.1102 43.9564 7.42 46.1953 10.5135 46.7923L6.79265 49.8894C6.70612 49.964 6.64122 50.02 6.57633 50.0946C2.59592 53.0238 0 58.4531 0 62.3897V74.1065C0 76.9424 1.29796 79.5357 3.39633 81.4574V86.0098C3.39633 88.6591 5.97061 90.8233 9.15061 90.8233H16.0947C19.2747 90.8233 21.849 88.6591 21.849 86.0098V84.853H53H84.151V86.0098C84.151 88.6778 86.7253 90.8233 89.9053 90.8233H96.8494C100.029 90.8233 102.604 88.6591 102.604 86.0098V81.4574C104.702 79.5357 106 76.961 106 74.1065V62.3897C106 58.4531 103.404 53.0238 99.4237 50.0946ZM29.442 37.501C30.7833 36.5308 33.1412 35.8032 34.331 35.8032H53H71.669C72.8371 35.8032 75.1951 36.5308 76.558 37.501L89.1265 48.005H53H16.8735L29.442 37.501ZM4.3049 60.6173C4.3049 57.7254 6.92245 55.3933 10.1457 55.3933C13.369 55.3933 23.9257 60.7292 23.9257 63.6211C23.9257 66.513 13.369 65.8413 10.1457 65.8413C6.92245 65.8413 4.3049 63.5092 4.3049 60.6173ZM21.849 79.7036H20.7457H19.6208L13.0012 79.7223C11.1624 79.2372 9.86449 78.6588 8.95592 78.0432C8.50163 77.726 8.13388 77.4088 7.85265 77.0916C7.57143 76.7745 7.37673 76.4386 7.24694 76.1215C6.4249 74.1251 8.11224 72.2781 8.11224 72.2781H19.3829L26.911 79.7223L21.849 79.7036ZM69.2245 79.7036H53H36.7755C33.4008 79.7036 30.6535 77.3342 30.6535 74.4236H53H75.3465C75.3465 77.3342 72.5992 79.7036 69.2245 79.7036ZM70.6306 70.8228H53H35.3694C31.6918 70.8228 28.7065 66.9048 28.7065 62.0912H53H77.2935C77.2935 66.9048 74.3082 70.8228 70.6306 70.8228ZM98.7314 76.1028C98.6016 76.42 98.3853 76.7371 98.1257 77.073C97.8445 77.3901 97.4984 77.726 97.0224 78.0245C96.1139 78.6402 94.8159 79.2186 92.9771 79.7036L86.3575 79.685H85.2543H84.151H79.0673L86.5955 72.2408H97.8661C97.8445 72.2594 99.5535 74.0878 98.7314 76.1028ZM95.8326 65.8413C92.6094 65.8413 82.0527 66.513 82.0527 63.6211C82.0527 60.7479 92.6094 55.3933 95.8326 55.3933C99.0559 55.3933 101.673 57.7254 101.673 60.6173C101.695 63.5092 99.0559 65.8413 95.8326 65.8413Z" fill="white"/>
<path d="M52.8703 29.1613C55.7735 29.1613 58.127 27.1315 58.127 24.6276C58.127 22.1237 55.7735 20.0939 52.8703 20.0939C49.967 20.0939 47.6135 22.1237 47.6135 24.6276C47.6135 27.1315 49.967 29.1613 52.8703 29.1613Z" fill="#FDD762"/>
<path d="M65.3954 13.7317C65.3089 13.657 65.244 13.6011 65.1575 13.5451L64.9195 13.3585C64.8979 13.3025 64.8546 13.2839 64.7897 13.2466C57.9971 7.92926 47.6134 8.13449 41.1452 13.7317L40.3881 14.3847L39.3281 15.2989C38.0518 16.3996 38.0518 18.2094 39.3281 19.3102C40.6044 20.4296 42.7028 20.4296 43.9791 19.3102L45.7963 17.743C49.9065 14.1981 56.6126 14.1981 60.7228 17.743L62.0207 18.8437C63.2971 19.9445 65.3522 19.9445 66.6285 18.8251C67.2342 18.3027 67.5803 17.5937 67.5803 16.8288C67.5803 16.0825 67.2558 15.3735 66.6285 14.8511L65.3954 13.7317Z" fill="#FDD762"/>
<path d="M74.3514 8.13557L73.2698 7.2027C73.2698 7.2027 73.2698 7.18405 73.2482 7.18405L72.3829 6.43776C72.2314 6.30716 72.0584 6.19521 71.8853 6.10193C60.831 -2.27516 44.0008 -2.01396 33.2927 6.86687C33.2494 6.90419 33.1845 6.9415 33.1196 6.97882L31.151 8.67662C29.9829 9.68411 29.9829 11.3259 31.1727 12.3334C32.3408 13.3409 34.2445 13.3596 35.4127 12.3521L37.3812 10.6543C37.4029 10.6356 37.4029 10.617 37.4245 10.617C46.0776 3.39663 59.8143 3.35932 68.5539 10.4677L70.1114 11.811C71.2796 12.8185 73.1833 12.8185 74.3514 11.7924C75.498 10.7662 75.5196 9.14305 74.3514 8.13557Z" fill="#FDD762"/>
</g>
<defs>
<clipPath id="clip0">
<rect width="106" height="90.8234" fill="white"/>
</clipPath>
</defs>
</svg>
