<svg width="123" height="106" viewBox="0 0 123 106" fill="none" xmlns="http://www.w3.org/2000/svg">
<g clip-path="url(#clip0)">
<path d="M123 0H0V85.7021H123V0Z" fill="white"/>
<path d="M29.605 36.0851H23.4125C22.2038 36.0851 21.207 35.0251 21.207 33.7395V27.154C21.207 25.8685 22.2038 24.8085 23.4125 24.8085H29.605C30.8138 24.8085 31.8105 25.8685 31.8105 27.154V33.7395C31.8105 35.0251 30.8138 36.0851 29.605 36.0851Z" fill="#FDD762"/>
<path d="M52.9324 36.0851H46.7399C45.5312 36.0851 44.5344 35.0251 44.5344 33.7395V27.154C44.5344 25.8685 45.5312 24.8085 46.7399 24.8085H52.9324C54.1411 24.8085 55.1379 25.8685 55.1379 27.154V33.7395C55.1379 35.0251 54.1411 36.0851 52.9324 36.0851Z" fill="#FDD762"/>
<path d="M76.26 36.0851H70.0676C68.8588 36.0851 67.8621 35.0251 67.8621 33.7395V27.154C67.8621 25.8685 68.8588 24.8085 70.0676 24.8085H76.26C77.4688 24.8085 78.4655 25.8685 78.4655 27.154V33.7395C78.4655 35.0251 77.4688 36.0851 76.26 36.0851Z" fill="#FDD762"/>
<path d="M99.5876 36.0851H93.3952C92.1864 36.0851 91.1897 35.0251 91.1897 33.7395V27.154C91.1897 25.8685 92.1864 24.8085 93.3952 24.8085H99.5876C100.796 24.8085 101.793 25.8685 101.793 27.154V33.7395C101.793 35.0251 100.796 36.0851 99.5876 36.0851Z" fill="#FDD762"/>
<path d="M29.605 60.8937H23.4125C22.2038 60.8937 21.207 59.8337 21.207 58.5481V51.9626C21.207 50.6771 22.2038 49.6171 23.4125 49.6171H29.605C30.8138 49.6171 31.8105 50.6771 31.8105 51.9626V58.5481C31.8105 59.8337 30.8138 60.8937 29.605 60.8937Z" fill="#FDD762"/>
<path d="M52.9324 60.8937H46.7399C45.5312 60.8937 44.5344 59.8337 44.5344 58.5481V51.9626C44.5344 50.6771 45.5312 49.6171 46.7399 49.6171H52.9324C54.1411 49.6171 55.1379 50.6771 55.1379 51.9626V58.5481C55.1379 59.8337 54.1411 60.8937 52.9324 60.8937Z" fill="#FDD762"/>
<path d="M76.26 60.8937H70.0676C68.8588 60.8937 67.8621 59.8337 67.8621 58.5481V51.9626C67.8621 50.6771 68.8588 49.6171 70.0676 49.6171H76.26C77.4688 49.6171 78.4655 50.6771 78.4655 51.9626V58.5481C78.4655 59.8337 77.4688 60.8937 76.26 60.8937Z" fill="#FDD762"/>
<path d="M99.5876 60.8937H93.3952C92.1864 60.8937 91.1897 59.8337 91.1897 58.5481V51.9626C91.1897 50.6771 92.1864 49.6171 93.3952 49.6171H99.5876C100.796 49.6171 101.793 50.6771 101.793 51.9626V58.5481C101.793 59.8337 100.796 60.8937 99.5876 60.8937Z" fill="#FDD762"/>
<path d="M63.6206 99.2341V85.7021H59.3793V99.2341H31.8103V106H91.1896V99.2341H63.6206Z" fill="#FDD762"/>
</g>
<defs>
<clipPath id="clip0">
<rect width="123" height="106" fill="white"/>
</clipPath>
</defs>
</svg>
