<svg width="106" height="106" viewBox="0 0 106 106" fill="none" xmlns="http://www.w3.org/2000/svg">
<path d="M74.9307 106H31.0691C31.0691 101.664 34.3423 98.1483 38.3794 98.1483H67.6205C71.6576 98.1483 74.9307 101.664 74.9307 106Z" fill="#F2F2F2"/>
<path d="M65.7924 98.1482H40.2075L43.8616 82.4447H62.1383L65.7924 98.1482Z" fill="#C6C6C7"/>
<path d="M106 66.7412H0V6.87113C0 3.07533 2.86324 0 6.39727 0H99.6027C103.137 0 106 3.07533 106 6.87113V66.7412Z" fill="white"/>
<path d="M99.6027 82.4446H6.39727C2.86531 82.4446 0 79.3693 0 75.5735V66.7411H106V75.5735C106 79.3693 103.137 82.4446 99.6027 82.4446Z" fill="#F2F2F2"/>
<path d="M89.5514 58.8894H62.1384C61.1281 58.8894 60.3103 58.011 60.3103 56.9259C60.3103 55.843 61.1281 54.9624 62.1384 54.9624H89.5514C90.5617 54.9624 91.3795 55.8407 91.3795 56.9259C91.3795 58.0088 90.5617 58.8894 89.5514 58.8894Z" fill="#FDD762"/>
<path d="M34.7233 47.1107H16.4487C15.4384 47.1107 14.6206 46.2301 14.6206 45.1472C14.6206 44.0643 15.4384 43.1837 16.4487 43.1837H34.7254C35.7357 43.1837 36.5535 44.0643 36.5535 45.1472C36.5535 46.2301 35.7357 47.1107 34.7233 47.1107Z" fill="#FDD762"/>
<path d="M80.413 47.1107H53C51.9896 47.1107 51.1719 46.2301 51.1719 45.1472C51.1719 44.0643 51.9896 43.1837 53 43.1837H80.413C81.4233 43.1837 82.2411 44.0643 82.2411 45.1472C82.2411 46.2324 81.4254 47.1107 80.413 47.1107Z" fill="#FDD762"/>
<path d="M43.8617 47.1107C43.6236 47.1107 43.3876 47.0528 43.1681 46.9528C42.93 46.8549 42.7478 46.7171 42.5656 46.5414C42.2344 46.1678 42.0356 45.6786 42.0356 45.1472C42.0356 44.6157 42.2344 44.1265 42.5656 43.7529C42.7478 43.5772 42.9321 43.4394 43.1681 43.3415C43.8244 43.048 44.6484 43.2037 45.1597 43.7529C45.4889 44.1265 45.6897 44.6357 45.6897 45.1472C45.6897 45.6564 45.4889 46.1678 45.1597 46.5414C44.8119 46.895 44.3378 47.1107 43.8617 47.1107Z" fill="#FDD762"/>
<path d="M53.0001 58.8894H25.5871C24.5768 58.8894 23.759 58.011 23.759 56.9259C23.759 55.843 24.5768 54.9624 25.5871 54.9624H53.0001C54.0104 54.9624 54.8282 55.8407 54.8282 56.9259C54.8282 58.011 54.0104 58.8894 53.0001 58.8894Z" fill="#FDD762"/>
<path d="M16.4488 58.8894C16.2107 58.8894 15.9747 58.8294 15.7553 58.7316C15.5358 58.6337 15.335 58.4958 15.1528 58.3202C14.8216 57.9466 14.6228 57.4574 14.6228 56.9259C14.6228 56.6702 14.6766 56.4145 14.7698 56.181C14.8609 55.9253 14.9892 55.7296 15.1528 55.5339C15.5917 55.0825 16.2128 54.8868 16.7966 55.0047C16.9271 55.0247 17.0347 55.0647 17.1465 55.1225C17.2542 55.1626 17.366 55.2204 17.4571 55.2982C17.5647 55.376 17.6579 55.4561 17.749 55.5339C17.9125 55.7296 18.0409 55.9275 18.132 56.181C18.2231 56.4167 18.279 56.6724 18.279 56.9259C18.279 57.4552 18.0782 57.9466 17.749 58.3202C17.6579 58.398 17.5647 58.4781 17.4571 58.5559C17.366 58.6337 17.2542 58.6938 17.1465 58.7316C17.0347 58.7916 16.9271 58.8294 16.7966 58.8494C16.6869 58.8694 16.5585 58.8894 16.4488 58.8894Z" fill="#FDD762"/>
<path d="M89.5514 47.1107C89.4396 47.1107 89.3133 47.0907 89.2035 47.0707C89.0752 47.0507 88.9655 47.0129 88.8557 46.9528C88.746 46.9128 88.6363 46.855 88.5245 46.7771C88.4355 46.6993 88.3444 46.6193 88.2512 46.5414C87.9199 46.1679 87.7212 45.6586 87.7212 45.1472C87.7212 44.638 87.9199 44.1265 88.2512 43.753L88.5245 43.5173C88.6363 43.4394 88.746 43.3794 88.8557 43.3416C88.9655 43.2838 89.0752 43.2437 89.2035 43.2237C89.7894 43.0859 90.4271 43.3016 90.8494 43.753C90.9219 43.8508 90.9964 43.9486 91.0689 44.0665C91.1414 44.1643 91.1952 44.2822 91.2325 44.4C91.2884 44.5179 91.3235 44.6358 91.3401 44.7736C91.3608 44.8915 91.3774 45.0293 91.3774 45.1472C91.3774 45.2651 91.3587 45.4029 91.3401 45.5408C91.3235 45.6586 91.2863 45.7765 91.2325 45.8944C91.1952 46.0122 91.1414 46.1301 91.0689 46.2479C90.9964 46.3458 90.9219 46.4436 90.8494 46.5414C90.7584 46.6193 90.6652 46.6993 90.5762 46.7771C90.4664 46.855 90.3546 46.915 90.247 46.9528C90.1352 47.0106 90.0275 47.0507 89.8971 47.0707C89.7894 47.0907 89.6611 47.1107 89.5514 47.1107Z" fill="#FDD762"/>
<path d="M89.5514 23.5553H62.1384C61.1281 23.5553 60.3103 22.6747 60.3103 21.5918C60.3103 20.5089 61.1281 19.6283 62.1384 19.6283H89.5514C90.5617 19.6283 91.3795 20.5089 91.3795 21.5918C91.3795 22.6747 90.5617 23.5553 89.5514 23.5553Z" fill="#FDD762"/>
<path d="M89.5516 35.3341H71.2749C70.2645 35.3341 69.4468 34.4535 69.4468 33.3706C69.4468 32.2877 70.2645 31.4071 71.2749 31.4071H89.5516C90.5619 31.4071 91.3797 32.2877 91.3797 33.3706C91.3797 34.4535 90.5619 35.3341 89.5516 35.3341Z" fill="#FDD762"/>
<path d="M56.6541 35.3341H53C51.9897 35.3341 51.1719 34.4535 51.1719 33.3706C51.1719 32.2877 51.9897 31.4071 53 31.4071H56.6541C57.6644 31.4071 58.4822 32.2877 58.4822 33.3706C58.4822 34.4535 57.6665 35.3341 56.6541 35.3341Z" fill="#FDD762"/>
<path d="M80.413 11.7793H53C51.9896 11.7793 51.1719 10.8987 51.1719 9.81579C51.1719 8.73287 51.9896 7.85229 53 7.85229H80.413C81.4233 7.85229 82.2411 8.73287 82.2411 9.81579C82.2411 10.8987 81.4254 11.7793 80.413 11.7793Z" fill="#FDD762"/>
<path d="M89.5514 11.7788C89.4396 11.7788 89.3133 11.7588 89.2035 11.7388C89.0752 11.7188 88.9655 11.681 88.8557 11.6209C88.746 11.5809 88.6363 11.5231 88.5245 11.4452C88.4355 11.3674 88.3444 11.2874 88.2512 11.2095C87.9199 10.836 87.7212 10.3267 87.7212 9.8153C87.7212 9.30385 87.9199 8.79463 88.2512 8.42106L88.5245 8.18535C88.6363 8.10752 88.746 8.04748 88.8557 8.00968C88.9655 7.95186 89.0752 7.91184 89.2035 7.89182C89.7894 7.75396 90.4271 7.96965 90.8494 8.42106C90.9219 8.5189 90.9964 8.61674 91.0689 8.73459C91.1414 8.83244 91.1952 8.95029 91.2325 9.06814C91.2884 9.186 91.3235 9.30385 91.3401 9.44172C91.3608 9.55958 91.3774 9.69744 91.3774 9.8153C91.3774 9.93315 91.3587 10.071 91.3401 10.2089C91.3235 10.3267 91.2863 10.4446 91.2325 10.5624C91.1952 10.6803 91.1414 10.7982 91.0689 10.916C90.9964 11.0139 90.9219 11.1117 90.8494 11.2095C90.7584 11.2874 90.6652 11.3674 90.5762 11.4452C90.4664 11.5231 90.3546 11.5831 90.247 11.6209C90.1352 11.6787 90.0275 11.7188 89.8971 11.7388C89.7894 11.7588 89.6611 11.7788 89.5514 11.7788Z" fill="#FDD762"/>
<path d="M54.8281 23.5553C54.3519 23.5553 53.8757 23.3396 53.53 22.9861C53.3664 22.7904 53.2381 22.5747 53.147 22.339C53.0559 22.1033 53 21.8476 53 21.5918C53 21.3361 53.0559 21.0826 53.147 20.8469C53.2381 20.6112 53.3664 20.3955 53.53 20.1998C53.9503 19.7484 54.59 19.5527 55.1738 19.6706C55.3043 19.6906 55.4119 19.7284 55.5237 19.7884C55.6314 19.8285 55.7432 19.8863 55.8343 19.9641C55.9419 20.0419 56.0351 20.122 56.1075 20.1998C56.2897 20.3955 56.4181 20.6112 56.5092 20.8469C56.6003 21.0826 56.6562 21.3383 56.6562 21.5918C56.6562 21.8476 56.6003 22.1011 56.5092 22.3368C56.4181 22.5725 56.2897 22.7882 56.1075 22.9838C56.0351 23.0617 55.9419 23.1417 55.8343 23.2196C55.7432 23.2974 55.6314 23.3574 55.5237 23.3952C55.4119 23.453 55.3043 23.4931 55.1738 23.5131C55.0662 23.5353 54.9378 23.5553 54.8281 23.5553Z" fill="#FDD762"/>
<path d="M63.9665 35.3341C63.4717 35.3341 63.0142 35.1184 62.6684 34.7649C62.3372 34.3913 62.1384 33.8821 62.1384 33.3706C62.1384 32.8614 62.3372 32.35 62.6684 31.9764C63.3454 31.2492 64.5876 31.2492 65.2646 31.9764C65.5938 32.35 65.7946 32.8592 65.7946 33.3706C65.7946 33.5085 65.776 33.6263 65.7573 33.7642C65.7408 33.8821 65.7035 33.9999 65.6497 34.1178C65.6124 34.2356 65.5586 34.3535 65.4861 34.4713C65.4137 34.5692 65.3391 34.667 65.2667 34.7649C64.9168 35.1184 64.4592 35.3341 63.9665 35.3341Z" fill="#FDD762"/>
<path d="M16.4487 35.334H42.0337V7.85168H16.4487V35.334Z" fill="#FDD762"/>
</svg>
